<svg xmlns="http://www.w3.org/2000/svg" viewBox="0 0 36 36">
    <path data-name="AddMemory" d="M25.306 26.661H10.695a1.357 1.357 0 0 1-1.355-1.355V10.695c0-.747.608-1.355 1.355-1.355h14.611c.747 0 1.355.608 1.355 1.355v14.611c0 .747-.608 1.355-1.355 1.355Zm-13.967-2H24.66V11.34H11.339v13.321ZM22 17.22h-3.22v-2.74a.781.781 0 0 0-1.56 0v2.74H14a.781.781 0 0 0 0 1.56h3.22v2.74a.781.781 0 0 0 1.56 0v-2.74H22a.781.781 0 0 0 0-1.56Zm0 0h-3.22v-2.74a.781.781 0 0 0-1.56 0v2.74H14a.781.781 0 0 0 0 1.56h3.22v2.74a.781.781 0 0 0 1.56 0v-2.74H22a.781.781 0 0 0 0-1.56Zm0 0h-3.22v-2.74a.781.781 0 0 0-1.56 0v2.74H14a.781.781 0 0 0 0 1.56h3.22v2.74a.781.781 0 0 0 1.56 0v-2.74H22a.781.781 0 0 0 0-1.56Zm0 0h-3.22v-2.74a.781.781 0 0 0-1.56 0v2.74H14a.781.781 0 0 0 0 1.56h3.22v2.74a.781.781 0 0 0 1.56 0v-2.74H22a.781.781 0 0 0 0-1.56Zm12.91 7.41h-4.12v-5.85h2.97a.781.781 0 0 0 0-1.56h-2.97v-5.85h4.12a.781.781 0 0 0 0-1.56h-4.12V8.5c0-1.78-1.51-3.29-3.29-3.29h-1.41V1.09a.781.781 0 0 0-1.56 0v4.12h-5.75V2.24a.781.781 0 0 0-1.56 0v2.97h-5.75V1.09a.781.781 0 0 0-1.56 0v4.12H8.5c-1.78 0-3.29 1.51-3.29 3.29v1.31H1.09a.781.781 0 0 0 0 1.56h4.12v5.85H2.24a.781.781 0 0 0 0 1.56h2.97v5.85H1.09a.781.781 0 0 0 0 1.56h4.12v1.31c0 1.78 1.51 3.29 3.29 3.29h1.41v4.12a.781.781 0 0 0 1.56 0v-4.12h5.75v2.97a.781.781 0 0 0 1.56 0v-2.97h5.75v4.12a.781.781 0 0 0 1.56 0v-4.12h1.41c1.78 0 3.29-1.51 3.29-3.29v-1.31h4.12a.781.781 0 0 0 0-1.56Zm-5.68 2.87c0 .92-.81 1.73-1.73 1.73h-19c-.92 0-1.73-.81-1.73-1.73v-19c0-.92.81-1.73 1.73-1.73h19c.92 0 1.73.81 1.73 1.73v19ZM22 17.22h-3.22v-2.74a.781.781 0 0 0-1.56 0v2.74H14a.781.781 0 0 0 0 1.56h3.22v2.74a.781.781 0 0 0 1.56 0v-2.74H22a.781.781 0 0 0 0-1.56Zm0 0h-3.22v-2.74a.781.781 0 0 0-1.56 0v2.74H14a.781.781 0 0 0 0 1.56h3.22v2.74a.781.781 0 0 0 1.56 0v-2.74H22a.781.781 0 0 0 0-1.56Zm0 0h-3.22v-2.74a.781.781 0 0 0-1.56 0v2.74H14a.781.781 0 0 0 0 1.56h3.22v2.74a.781.781 0 0 0 1.56 0v-2.74H22a.781.781 0 0 0 0-1.56Zm0 0h-3.22v-2.74a.781.781 0 0 0-1.56 0v2.74H14a.781.781 0 0 0 0 1.56h3.22v2.74a.781.781 0 0 0 1.56 0v-2.74H22a.781.781 0 0 0 0-1.56Zm0 0h-3.22v-2.74a.781.781 0 0 0-1.56 0v2.74H14a.781.781 0 0 0 0 1.56h3.22v2.74a.781.781 0 0 0 1.56 0v-2.74H22a.781.781 0 0 0 0-1.56Z" style="fill:currentColor"/>
</svg>
