<svg xmlns="http://www.w3.org/2000/svg" viewBox="0 0 36 36">
    <path data-name="AddUser" d="M16.8 14.42c2.25-1.28 3.78-3.77 3.78-6.62 0-4.16-3.25-7.55-7.25-7.55S6.09 3.64 6.09 7.8c0 2.85 1.52 5.33 3.76 6.61-4.17 1.39-7.04 5.14-7.04 9.51v10.86c0 .53.43.97.97.97.53 0 .96-.44.96-.97V23.92c0-4.01 3.03-7.38 7.19-8.02a9.18 9.18 0 0 1 2.57-.03h.04c4.21.56 7.38 4.01 7.38 8.05v10.86c0 .53.44.97.97.97.54 0 .97-.44.97-.97V23.92c0-4.33-2.92-8.11-7.06-9.5Zm-3.47-.75c-3.07 0-5.56-2.63-5.56-5.87s2.49-5.86 5.56-5.86 5.56 2.62 5.56 5.86-2.49 5.87-5.56 5.87Zm3.84 8.23c0-2.12-1.72-3.84-3.84-3.84S9.5 19.78 9.5 21.9c0 1.46.82 2.74 2.03 3.38l-1.59 8.26h6.79l-1.6-8.26a3.832 3.832 0 0 0 2.04-3.38Zm15.02-9.69h-4.11V8.09c0-.55-.45-1-1-1s-1 .45-1 1v4.12h-4.12c-.55 0-1 .44-1 1 0 .55.45 1 1 1h4.12v4.11c0 .55.45 1 1 1s1-.45 1-1v-4.11h4.11c.56 0 1-.45 1-1 0-.56-.44-1-1-1Z" style="fill:currentColor"/>
</svg>
