<svg xmlns="http://www.w3.org/2000/svg" viewBox="0 0 36 36">
    <path data-name="AiAgent" d="M11.75 20.15c-1.44 0-2.54 1.1-2.54 2.54s1.1 2.53 2.54 2.53c1.43 0 2.53-1.09 2.53-2.53s-1.1-2.54-2.53-2.54Zm0 3.81c-.68 0-1.27-.59-1.27-1.27s.59-1.27 1.27-1.27c.67 0 1.26.59 1.26 1.27s-.59 1.27-1.26 1.27Zm12.67-3.81c-1.43 0-2.53 1.1-2.53 2.54s1.1 2.53 2.53 2.53c1.44 0 2.54-1.09 2.54-2.53s-1.1-2.54-2.54-2.54Zm0 3.81c-.67 0-1.27-.59-1.27-1.27s.6-1.27 1.27-1.27c.68 0 1.27.59 1.27 1.27s-.59 1.27-1.27 1.27Zm0-3.81c-1.43 0-2.53 1.1-2.53 2.54s1.1 2.53 2.53 2.53c1.44 0 2.54-1.09 2.54-2.53s-1.1-2.54-2.54-2.54Zm0 3.81c-.67 0-1.27-.59-1.27-1.27s.6-1.27 1.27-1.27c.68 0 1.27.59 1.27 1.27s-.59 1.27-1.27 1.27Zm-12.67-3.81c-1.44 0-2.54 1.1-2.54 2.54s1.1 2.53 2.54 2.53c1.43 0 2.53-1.09 2.53-2.53s-1.1-2.54-2.53-2.54Zm0 3.81c-.68 0-1.27-.59-1.27-1.27s.59-1.27 1.27-1.27c.67 0 1.26.59 1.26 1.27s-.59 1.27-1.26 1.27Zm0-3.81c-1.44 0-2.54 1.1-2.54 2.54s1.1 2.53 2.54 2.53c1.43 0 2.53-1.09 2.53-2.53s-1.1-2.54-2.53-2.54Zm0 3.81c-.68 0-1.27-.59-1.27-1.27s.59-1.27 1.27-1.27c.67 0 1.26.59 1.26 1.27s-.59 1.27-1.26 1.27Zm12.67-3.81c-1.43 0-2.53 1.1-2.53 2.54s1.1 2.53 2.53 2.53c1.44 0 2.54-1.09 2.54-2.53s-1.1-2.54-2.54-2.54Zm0 3.81c-.67 0-1.27-.59-1.27-1.27s.6-1.27 1.27-1.27c.68 0 1.27.59 1.27 1.27s-.59 1.27-1.27 1.27Zm0-3.81c-1.43 0-2.53 1.1-2.53 2.54s1.1 2.53 2.53 2.53c1.44 0 2.54-1.09 2.54-2.53s-1.1-2.54-2.54-2.54Zm0 3.81c-.67 0-1.27-.59-1.27-1.27s.6-1.27 1.27-1.27c.68 0 1.27.59 1.27 1.27s-.59 1.27-1.27 1.27Zm-12.67-3.81c-1.44 0-2.54 1.1-2.54 2.54s1.1 2.53 2.54 2.53c1.43 0 2.53-1.09 2.53-2.53s-1.1-2.54-2.53-2.54Zm0 3.81c-.68 0-1.27-.59-1.27-1.27s.59-1.27 1.27-1.27c.67 0 1.26.59 1.26 1.27s-.59 1.27-1.26 1.27Zm0-3.81c-1.44 0-2.54 1.1-2.54 2.54s1.1 2.53 2.54 2.53c1.43 0 2.53-1.09 2.53-2.53s-1.1-2.54-2.53-2.54Zm0 3.81c-.68 0-1.27-.59-1.27-1.27s.59-1.27 1.27-1.27c.67 0 1.26.59 1.26 1.27s-.59 1.27-1.26 1.27Zm12.67-3.81c-1.43 0-2.53 1.1-2.53 2.54s1.1 2.53 2.53 2.53c1.44 0 2.54-1.09 2.54-2.53s-1.1-2.54-2.54-2.54Zm0 3.81c-.67 0-1.27-.59-1.27-1.27s.6-1.27 1.27-1.27c.68 0 1.27.59 1.27 1.27s-.59 1.27-1.27 1.27Zm0-3.81c-1.43 0-2.53 1.1-2.53 2.54s1.1 2.53 2.53 2.53c1.44 0 2.54-1.09 2.54-2.53s-1.1-2.54-2.54-2.54Zm0 3.81c-.67 0-1.27-.59-1.27-1.27s.6-1.27 1.27-1.27c.68 0 1.27.59 1.27 1.27s-.59 1.27-1.27 1.27Zm-12.67-3.81c-1.44 0-2.54 1.1-2.54 2.54s1.1 2.53 2.54 2.53c1.43 0 2.53-1.09 2.53-2.53s-1.1-2.54-2.53-2.54Zm0 3.81c-.68 0-1.27-.59-1.27-1.27s.59-1.27 1.27-1.27c.67 0 1.26.59 1.26 1.27s-.59 1.27-1.26 1.27Zm0-3.81c-1.44 0-2.54 1.1-2.54 2.54s1.1 2.53 2.54 2.53c1.43 0 2.53-1.09 2.53-2.53s-1.1-2.54-2.53-2.54Zm0 3.81c-.68 0-1.27-.59-1.27-1.27s.59-1.27 1.27-1.27c.67 0 1.26.59 1.26 1.27s-.59 1.27-1.26 1.27Zm12.67-3.81c-1.43 0-2.53 1.1-2.53 2.54s1.1 2.53 2.53 2.53c1.44 0 2.54-1.09 2.54-2.53s-1.1-2.54-2.54-2.54Zm0 3.81c-.67 0-1.27-.59-1.27-1.27s.6-1.27 1.27-1.27c.68 0 1.27.59 1.27 1.27s-.59 1.27-1.27 1.27Zm0-3.81c-1.43 0-2.53 1.1-2.53 2.54s1.1 2.53 2.53 2.53c1.44 0 2.54-1.09 2.54-2.53s-1.1-2.54-2.54-2.54Zm0 3.81c-.67 0-1.27-.59-1.27-1.27s.6-1.27 1.27-1.27c.68 0 1.27.59 1.27 1.27s-.59 1.27-1.27 1.27Zm-12.67-3.81c-1.44 0-2.54 1.1-2.54 2.54s1.1 2.53 2.54 2.53c1.43 0 2.53-1.09 2.53-2.53s-1.1-2.54-2.53-2.54Zm0 3.81c-.68 0-1.27-.59-1.27-1.27s.59-1.27 1.27-1.27c.67 0 1.26.59 1.26 1.27s-.59 1.27-1.26 1.27Zm0-3.81c-1.44 0-2.54 1.1-2.54 2.54s1.1 2.53 2.54 2.53c1.43 0 2.53-1.09 2.53-2.53s-1.1-2.54-2.53-2.54Zm0 3.81c-.68 0-1.27-.59-1.27-1.27s.59-1.27 1.27-1.27c.67 0 1.26.59 1.26 1.27s-.59 1.27-1.26 1.27Zm12.67-3.81c-1.43 0-2.53 1.1-2.53 2.54s1.1 2.53 2.53 2.53c1.44 0 2.54-1.09 2.54-2.53s-1.1-2.54-2.54-2.54Zm0 3.81c-.67 0-1.27-.59-1.27-1.27s.6-1.27 1.27-1.27c.68 0 1.27.59 1.27 1.27s-.59 1.27-1.27 1.27Zm0-3.81c-1.43 0-2.53 1.1-2.53 2.54s1.1 2.53 2.53 2.53c1.44 0 2.54-1.09 2.54-2.53s-1.1-2.54-2.54-2.54Zm0 3.81c-.67 0-1.27-.59-1.27-1.27s.6-1.27 1.27-1.27c.68 0 1.27.59 1.27 1.27s-.59 1.27-1.27 1.27Zm-12.67-3.81c-1.44 0-2.54 1.1-2.54 2.54s1.1 2.53 2.54 2.53c1.43 0 2.53-1.09 2.53-2.53s-1.1-2.54-2.53-2.54Zm0 3.81c-.68 0-1.27-.59-1.27-1.27s.59-1.27 1.27-1.27c.67 0 1.26.59 1.26 1.27s-.59 1.27-1.26 1.27Zm0-3.81c-1.44 0-2.54 1.1-2.54 2.54s1.1 2.53 2.54 2.53c1.43 0 2.53-1.09 2.53-2.53s-1.1-2.54-2.53-2.54Zm0 3.81c-.68 0-1.27-.59-1.27-1.27s.59-1.27 1.27-1.27c.67 0 1.26.59 1.26 1.27s-.59 1.27-1.26 1.27Zm12.67-3.81c-1.43 0-2.53 1.1-2.53 2.54s1.1 2.53 2.53 2.53c1.44 0 2.54-1.09 2.54-2.53s-1.1-2.54-2.54-2.54Zm0 3.81c-.67 0-1.27-.59-1.27-1.27s.6-1.27 1.27-1.27c.68 0 1.27.59 1.27 1.27s-.59 1.27-1.27 1.27Zm0-3.81c-1.43 0-2.53 1.1-2.53 2.54s1.1 2.53 2.53 2.53c1.44 0 2.54-1.09 2.54-2.53s-1.1-2.54-2.54-2.54Zm0 3.81c-.67 0-1.27-.59-1.27-1.27s.6-1.27 1.27-1.27c.68 0 1.27.59 1.27 1.27s-.59 1.27-1.27 1.27Zm-12.67-3.81c-1.44 0-2.54 1.1-2.54 2.54s1.1 2.53 2.54 2.53c1.43 0 2.53-1.09 2.53-2.53s-1.1-2.54-2.53-2.54Zm0 3.81c-.68 0-1.27-.59-1.27-1.27s.59-1.27 1.27-1.27c.67 0 1.26.59 1.26 1.27s-.59 1.27-1.26 1.27Zm0-3.81c-1.44 0-2.54 1.1-2.54 2.54s1.1 2.53 2.54 2.53c1.43 0 2.53-1.09 2.53-2.53s-1.1-2.54-2.53-2.54Zm0 3.81c-.68 0-1.27-.59-1.27-1.27s.59-1.27 1.27-1.27c.67 0 1.26.59 1.26 1.27s-.59 1.27-1.26 1.27Zm12.67-3.81c-1.43 0-2.53 1.1-2.53 2.54s1.1 2.53 2.53 2.53c1.44 0 2.54-1.09 2.54-2.53s-1.1-2.54-2.54-2.54Zm0 3.81c-.67 0-1.27-.59-1.27-1.27s.6-1.27 1.27-1.27c.68 0 1.27.59 1.27 1.27s-.59 1.27-1.27 1.27Zm0-3.81c-1.43 0-2.53 1.1-2.53 2.54s1.1 2.53 2.53 2.53c1.44 0 2.54-1.09 2.54-2.53s-1.1-2.54-2.54-2.54Zm0 3.81c-.67 0-1.27-.59-1.27-1.27s.6-1.27 1.27-1.27c.68 0 1.27.59 1.27 1.27s-.59 1.27-1.27 1.27Zm-12.67-3.81c-1.44 0-2.54 1.1-2.54 2.54s1.1 2.53 2.54 2.53c1.43 0 2.53-1.09 2.53-2.53s-1.1-2.54-2.53-2.54Zm0 3.81c-.68 0-1.27-.59-1.27-1.27s.59-1.27 1.27-1.27c.67 0 1.26.59 1.26 1.27s-.59 1.27-1.26 1.27Zm0-3.81c-1.44 0-2.54 1.1-2.54 2.54s1.1 2.53 2.54 2.53c1.43 0 2.53-1.09 2.53-2.53s-1.1-2.54-2.53-2.54Zm0 3.81c-.68 0-1.27-.59-1.27-1.27s.59-1.27 1.27-1.27c.67 0 1.26.59 1.26 1.27s-.59 1.27-1.26 1.27Zm12.67-3.81c-1.43 0-2.53 1.1-2.53 2.54s1.1 2.53 2.53 2.53c1.44 0 2.54-1.09 2.54-2.53s-1.1-2.54-2.54-2.54Zm0 3.81c-.67 0-1.27-.59-1.27-1.27s.6-1.27 1.27-1.27c.68 0 1.27.59 1.27 1.27s-.59 1.27-1.27 1.27Zm0-3.81c-1.43 0-2.53 1.1-2.53 2.54s1.1 2.53 2.53 2.53c1.44 0 2.54-1.09 2.54-2.53s-1.1-2.54-2.54-2.54Zm0 3.81c-.67 0-1.27-.59-1.27-1.27s.6-1.27 1.27-1.27c.68 0 1.27.59 1.27 1.27s-.59 1.27-1.27 1.27Zm-12.67-3.81c-1.44 0-2.54 1.1-2.54 2.54s1.1 2.53 2.54 2.53c1.43 0 2.53-1.09 2.53-2.53s-1.1-2.54-2.53-2.54Zm0 3.81c-.68 0-1.27-.59-1.27-1.27s.59-1.27 1.27-1.27c.67 0 1.26.59 1.26 1.27s-.59 1.27-1.26 1.27Zm0-3.81c-1.44 0-2.54 1.1-2.54 2.54s1.1 2.53 2.54 2.53c1.43 0 2.53-1.09 2.53-2.53s-1.1-2.54-2.53-2.54Zm0 3.81c-.68 0-1.27-.59-1.27-1.27s.59-1.27 1.27-1.27c.67 0 1.26.59 1.26 1.27s-.59 1.27-1.26 1.27Zm12.67-3.81c-1.43 0-2.53 1.1-2.53 2.54s1.1 2.53 2.53 2.53c1.44 0 2.54-1.09 2.54-2.53s-1.1-2.54-2.54-2.54Zm0 3.81c-.67 0-1.27-.59-1.27-1.27s.6-1.27 1.27-1.27c.68 0 1.27.59 1.27 1.27s-.59 1.27-1.27 1.27Zm0-3.81c-1.43 0-2.53 1.1-2.53 2.54s1.1 2.53 2.53 2.53c1.44 0 2.54-1.09 2.54-2.53s-1.1-2.54-2.54-2.54Zm0 3.81c-.67 0-1.27-.59-1.27-1.27s.6-1.27 1.27-1.27c.68 0 1.27.59 1.27 1.27s-.59 1.27-1.27 1.27Zm-12.67-3.81c-1.44 0-2.54 1.1-2.54 2.54s1.1 2.53 2.54 2.53c1.43 0 2.53-1.09 2.53-2.53s-1.1-2.54-2.53-2.54Zm0 3.81c-.68 0-1.27-.59-1.27-1.27s.59-1.27 1.27-1.27c.67 0 1.26.59 1.26 1.27s-.59 1.27-1.26 1.27Zm22.56-7.02h-2.96v-2.78c0-1.27-1.01-2.37-2.37-2.37h-10.3V8.75c1.43-.26 2.53-1.61 2.53-3.13S19.77 2.41 18 2.41s-3.21 1.44-3.21 3.21c0 1.78 1.1 2.79 2.53 3.13v3.04H7.02c-1.27 0-2.37 1.01-2.37 2.37v2.78H1.69c-.84 0-1.52.68-1.52 1.52v8.45c0 .85.68 1.53 1.52 1.53h2.96v2.78c0 1.27 1.01 2.37 2.37 2.37h21.96c1.27 0 2.37-1.01 2.37-2.37v-2.78h2.96c.84 0 1.52-.68 1.52-1.53v-8.45c0-.84-.68-1.52-1.52-1.52ZM4.57 26.91c0 .09-.09.17-.17.17H1.86c-.08 0-.17-.08-.17-.17v-8.45c0-.08.09-.16.17-.16H4.4c.08 0 .17.08.17.16v8.45ZM16.23 5.79c0-1.01.84-1.86 1.85-1.86 1.02 0 1.86.85 1.86 1.86s-.84 1.86-1.86 1.86c-1.01 0-1.85-.85-1.85-1.86Zm13.85 25.35c0 .59-.5 1.01-1.01 1.01H7.1c-.59 0-1.01-.5-1.01-1.01v-16.9c0-.59.5-1.01 1.01-1.01h21.97c.59 0 1.01.5 1.01 1.01v16.9Zm4.48-4.23c0 .09-.08.17-.17.17h-2.53c-.09 0-.17-.08-.17-.17v-8.45c0-.08.08-.16.17-.16h2.53c.09 0 .17.08.17.16v8.45Zm-10.14-6.76c-1.43 0-2.53 1.1-2.53 2.54s1.1 2.53 2.53 2.53c1.44 0 2.54-1.09 2.54-2.53s-1.1-2.54-2.54-2.54Zm0 3.81c-.67 0-1.27-.59-1.27-1.27s.6-1.27 1.27-1.27c.68 0 1.27.59 1.27 1.27s-.59 1.27-1.27 1.27Zm-12.67-3.81c-1.44 0-2.54 1.1-2.54 2.54s1.1 2.53 2.54 2.53c1.43 0 2.53-1.09 2.53-2.53s-1.1-2.54-2.53-2.54Zm0 3.81c-.68 0-1.27-.59-1.27-1.27s.59-1.27 1.27-1.27c.67 0 1.26.59 1.26 1.27s-.59 1.27-1.26 1.27Zm0-3.81c-1.44 0-2.54 1.1-2.54 2.54s1.1 2.53 2.54 2.53c1.43 0 2.53-1.09 2.53-2.53s-1.1-2.54-2.53-2.54Zm0 3.81c-.68 0-1.27-.59-1.27-1.27s.59-1.27 1.27-1.27c.67 0 1.26.59 1.26 1.27s-.59 1.27-1.26 1.27Zm12.67-3.81c-1.43 0-2.53 1.1-2.53 2.54s1.1 2.53 2.53 2.53c1.44 0 2.54-1.09 2.54-2.53s-1.1-2.54-2.54-2.54Zm0 3.81c-.67 0-1.27-.59-1.27-1.27s.6-1.27 1.27-1.27c.68 0 1.27.59 1.27 1.27s-.59 1.27-1.27 1.27Zm0-3.81c-1.43 0-2.53 1.1-2.53 2.54s1.1 2.53 2.53 2.53c1.44 0 2.54-1.09 2.54-2.53s-1.1-2.54-2.54-2.54Zm0 3.81c-.67 0-1.27-.59-1.27-1.27s.6-1.27 1.27-1.27c.68 0 1.27.59 1.27 1.27s-.59 1.27-1.27 1.27Zm-12.67-3.81c-1.44 0-2.54 1.1-2.54 2.54s1.1 2.53 2.54 2.53c1.43 0 2.53-1.09 2.53-2.53s-1.1-2.54-2.53-2.54Zm0 3.81c-.68 0-1.27-.59-1.27-1.27s.59-1.27 1.27-1.27c.67 0 1.26.59 1.26 1.27s-.59 1.27-1.26 1.27Zm0-3.81c-1.44 0-2.54 1.1-2.54 2.54s1.1 2.53 2.54 2.53c1.43 0 2.53-1.09 2.53-2.53s-1.1-2.54-2.53-2.54Zm0 3.81c-.68 0-1.27-.59-1.27-1.27s.59-1.27 1.27-1.27c.67 0 1.26.59 1.26 1.27s-.59 1.27-1.26 1.27Zm12.67-3.81c-1.43 0-2.53 1.1-2.53 2.54s1.1 2.53 2.53 2.53c1.44 0 2.54-1.09 2.54-2.53s-1.1-2.54-2.54-2.54Zm0 3.81c-.67 0-1.27-.59-1.27-1.27s.6-1.27 1.27-1.27c.68 0 1.27.59 1.27 1.27s-.59 1.27-1.27 1.27Zm0-3.81c-1.43 0-2.53 1.1-2.53 2.54s1.1 2.53 2.53 2.53c1.44 0 2.54-1.09 2.54-2.53s-1.1-2.54-2.54-2.54Zm0 3.81c-.67 0-1.27-.59-1.27-1.27s.6-1.27 1.27-1.27c.68 0 1.27.59 1.27 1.27s-.59 1.27-1.27 1.27Zm-12.67-3.81c-1.44 0-2.54 1.1-2.54 2.54s1.1 2.53 2.54 2.53c1.43 0 2.53-1.09 2.53-2.53s-1.1-2.54-2.53-2.54Zm0 3.81c-.68 0-1.27-.59-1.27-1.27s.59-1.27 1.27-1.27c.67 0 1.26.59 1.26 1.27s-.59 1.27-1.26 1.27Zm0-3.81c-1.44 0-2.54 1.1-2.54 2.54s1.1 2.53 2.54 2.53c1.43 0 2.53-1.09 2.53-2.53s-1.1-2.54-2.53-2.54Zm0 3.81c-.68 0-1.27-.59-1.27-1.27s.59-1.27 1.27-1.27c.67 0 1.26.59 1.26 1.27s-.59 1.27-1.26 1.27Zm12.67-3.81c-1.43 0-2.53 1.1-2.53 2.54s1.1 2.53 2.53 2.53c1.44 0 2.54-1.09 2.54-2.53s-1.1-2.54-2.54-2.54Zm0 3.81c-.67 0-1.27-.59-1.27-1.27s.6-1.27 1.27-1.27c.68 0 1.27.59 1.27 1.27s-.59 1.27-1.27 1.27Zm0-3.81c-1.43 0-2.53 1.1-2.53 2.54s1.1 2.53 2.53 2.53c1.44 0 2.54-1.09 2.54-2.53s-1.1-2.54-2.54-2.54Zm0 3.81c-.67 0-1.27-.59-1.27-1.27s.6-1.27 1.27-1.27c.68 0 1.27.59 1.27 1.27s-.59 1.27-1.27 1.27Zm-12.67-3.81c-1.44 0-2.54 1.1-2.54 2.54s1.1 2.53 2.54 2.53c1.43 0 2.53-1.09 2.53-2.53s-1.1-2.54-2.53-2.54Zm0 3.81c-.68 0-1.27-.59-1.27-1.27s.59-1.27 1.27-1.27c.67 0 1.26.59 1.26 1.27s-.59 1.27-1.26 1.27Zm0-3.81c-1.44 0-2.54 1.1-2.54 2.54s1.1 2.53 2.54 2.53c1.43 0 2.53-1.09 2.53-2.53s-1.1-2.54-2.53-2.54Zm0 3.81c-.68 0-1.27-.59-1.27-1.27s.59-1.27 1.27-1.27c.67 0 1.26.59 1.26 1.27s-.59 1.27-1.26 1.27Zm12.67-3.81c-1.43 0-2.53 1.1-2.53 2.54s1.1 2.53 2.53 2.53c1.44 0 2.54-1.09 2.54-2.53s-1.1-2.54-2.54-2.54Zm0 3.81c-.67 0-1.27-.59-1.27-1.27s.6-1.27 1.27-1.27c.68 0 1.27.59 1.27 1.27s-.59 1.27-1.27 1.27Zm0-3.81c-1.43 0-2.53 1.1-2.53 2.54s1.1 2.53 2.53 2.53c1.44 0 2.54-1.09 2.54-2.53s-1.1-2.54-2.54-2.54Zm0 3.81c-.67 0-1.27-.59-1.27-1.27s.6-1.27 1.27-1.27c.68 0 1.27.59 1.27 1.27s-.59 1.27-1.27 1.27Zm-12.67-3.81c-1.44 0-2.54 1.1-2.54 2.54s1.1 2.53 2.54 2.53c1.43 0 2.53-1.09 2.53-2.53s-1.1-2.54-2.53-2.54Zm0 3.81c-.68 0-1.27-.59-1.27-1.27s.59-1.27 1.27-1.27c.67 0 1.26.59 1.26 1.27s-.59 1.27-1.26 1.27Zm0-3.81c-1.44 0-2.54 1.1-2.54 2.54s1.1 2.53 2.54 2.53c1.43 0 2.53-1.09 2.53-2.53s-1.1-2.54-2.53-2.54Zm0 3.81c-.68 0-1.27-.59-1.27-1.27s.59-1.27 1.27-1.27c.67 0 1.26.59 1.26 1.27s-.59 1.27-1.26 1.27Zm12.67-3.81c-1.43 0-2.53 1.1-2.53 2.54s1.1 2.53 2.53 2.53c1.44 0 2.54-1.09 2.54-2.53s-1.1-2.54-2.54-2.54Zm0 3.81c-.67 0-1.27-.59-1.27-1.27s.6-1.27 1.27-1.27c.68 0 1.27.59 1.27 1.27s-.59 1.27-1.27 1.27Zm0-3.81c-1.43 0-2.53 1.1-2.53 2.54s1.1 2.53 2.53 2.53c1.44 0 2.54-1.09 2.54-2.53s-1.1-2.54-2.54-2.54Zm0 3.81c-.67 0-1.27-.59-1.27-1.27s.6-1.27 1.27-1.27c.68 0 1.27.59 1.27 1.27s-.59 1.27-1.27 1.27Zm-12.67-3.81c-1.44 0-2.54 1.1-2.54 2.54s1.1 2.53 2.54 2.53c1.43 0 2.53-1.09 2.53-2.53s-1.1-2.54-2.53-2.54Zm0 3.81c-.68 0-1.27-.59-1.27-1.27s.59-1.27 1.27-1.27c.67 0 1.26.59 1.26 1.27s-.59 1.27-1.26 1.27Zm0-3.81c-1.44 0-2.54 1.1-2.54 2.54s1.1 2.53 2.54 2.53c1.43 0 2.53-1.09 2.53-2.53s-1.1-2.54-2.53-2.54Zm0 3.81c-.68 0-1.27-.59-1.27-1.27s.59-1.27 1.27-1.27c.67 0 1.26.59 1.26 1.27s-.59 1.27-1.26 1.27Zm12.67-3.81c-1.43 0-2.53 1.1-2.53 2.54s1.1 2.53 2.53 2.53c1.44 0 2.54-1.09 2.54-2.53s-1.1-2.54-2.54-2.54Zm0 3.81c-.67 0-1.27-.59-1.27-1.27s.6-1.27 1.27-1.27c.68 0 1.27.59 1.27 1.27s-.59 1.27-1.27 1.27Zm0-3.81c-1.43 0-2.53 1.1-2.53 2.54s1.1 2.53 2.53 2.53c1.44 0 2.54-1.09 2.54-2.53s-1.1-2.54-2.54-2.54Zm0 3.81c-.67 0-1.27-.59-1.27-1.27s.6-1.27 1.27-1.27c.68 0 1.27.59 1.27 1.27s-.59 1.27-1.27 1.27Zm-12.67-3.81c-1.44 0-2.54 1.1-2.54 2.54s1.1 2.53 2.54 2.53c1.43 0 2.53-1.09 2.53-2.53s-1.1-2.54-2.53-2.54Zm0 3.81c-.68 0-1.27-.59-1.27-1.27s.59-1.27 1.27-1.27c.67 0 1.26.59 1.26 1.27s-.59 1.27-1.26 1.27Zm0-3.81c-1.44 0-2.54 1.1-2.54 2.54s1.1 2.53 2.54 2.53c1.43 0 2.53-1.09 2.53-2.53s-1.1-2.54-2.53-2.54Zm0 3.81c-.68 0-1.27-.59-1.27-1.27s.59-1.27 1.27-1.27c.67 0 1.26.59 1.26 1.27s-.59 1.27-1.26 1.27Zm12.67-3.81c-1.43 0-2.53 1.1-2.53 2.54s1.1 2.53 2.53 2.53c1.44 0 2.54-1.09 2.54-2.53s-1.1-2.54-2.54-2.54Zm0 3.81c-.67 0-1.27-.59-1.27-1.27s.6-1.27 1.27-1.27c.68 0 1.27.59 1.27 1.27s-.59 1.27-1.27 1.27Zm0-3.81c-1.43 0-2.53 1.1-2.53 2.54s1.1 2.53 2.53 2.53c1.44 0 2.54-1.09 2.54-2.53s-1.1-2.54-2.54-2.54Zm0 3.81c-.67 0-1.27-.59-1.27-1.27s.6-1.27 1.27-1.27c.68 0 1.27.59 1.27 1.27s-.59 1.27-1.27 1.27Zm-12.67-3.81c-1.44 0-2.54 1.1-2.54 2.54s1.1 2.53 2.54 2.53c1.43 0 2.53-1.09 2.53-2.53s-1.1-2.54-2.53-2.54Zm0 3.81c-.68 0-1.27-.59-1.27-1.27s.59-1.27 1.27-1.27c.67 0 1.26.59 1.26 1.27s-.59 1.27-1.26 1.27Zm0-3.81c-1.44 0-2.54 1.1-2.54 2.54s1.1 2.53 2.54 2.53c1.43 0 2.53-1.09 2.53-2.53s-1.1-2.54-2.53-2.54Zm0 3.81c-.68 0-1.27-.59-1.27-1.27s.59-1.27 1.27-1.27c.67 0 1.26.59 1.26 1.27s-.59 1.27-1.26 1.27Zm12.67-3.81c-1.43 0-2.53 1.1-2.53 2.54s1.1 2.53 2.53 2.53c1.44 0 2.54-1.09 2.54-2.53s-1.1-2.54-2.54-2.54Zm0 3.81c-.67 0-1.27-.59-1.27-1.27s.6-1.27 1.27-1.27c.68 0 1.27.59 1.27 1.27s-.59 1.27-1.27 1.27Zm0-3.81c-1.43 0-2.53 1.1-2.53 2.54s1.1 2.53 2.53 2.53c1.44 0 2.54-1.09 2.54-2.53s-1.1-2.54-2.54-2.54Zm0 3.81c-.67 0-1.27-.59-1.27-1.27s.6-1.27 1.27-1.27c.68 0 1.27.59 1.27 1.27s-.59 1.27-1.27 1.27Zm-12.67-3.81c-1.44 0-2.54 1.1-2.54 2.54s1.1 2.53 2.54 2.53c1.43 0 2.53-1.09 2.53-2.53s-1.1-2.54-2.53-2.54Zm0 3.81c-.68 0-1.27-.59-1.27-1.27s.59-1.27 1.27-1.27c.67 0 1.26.59 1.26 1.27s-.59 1.27-1.26 1.27Zm0-3.81c-1.44 0-2.54 1.1-2.54 2.54s1.1 2.53 2.54 2.53c1.43 0 2.53-1.09 2.53-2.53s-1.1-2.54-2.53-2.54Zm0 3.81c-.68 0-1.27-.59-1.27-1.27s.59-1.27 1.27-1.27c.67 0 1.26.59 1.26 1.27s-.59 1.27-1.26 1.27Zm12.67-3.81c-1.43 0-2.53 1.1-2.53 2.54s1.1 2.53 2.53 2.53c1.44 0 2.54-1.09 2.54-2.53s-1.1-2.54-2.54-2.54Zm0 3.81c-.67 0-1.27-.59-1.27-1.27s.6-1.27 1.27-1.27c.68 0 1.27.59 1.27 1.27s-.59 1.27-1.27 1.27Zm-12.67-3.81c-1.44 0-2.54 1.1-2.54 2.54s1.1 2.53 2.54 2.53c1.43 0 2.53-1.09 2.53-2.53s-1.1-2.54-2.53-2.54Zm0 3.81c-.68 0-1.27-.59-1.27-1.27s.59-1.27 1.27-1.27c.67 0 1.26.59 1.26 1.27s-.59 1.27-1.26 1.27Zm12.67-3.81c-1.43 0-2.53 1.1-2.53 2.54s1.1 2.53 2.53 2.53c1.44 0 2.54-1.09 2.54-2.53s-1.1-2.54-2.54-2.54Zm0 3.81c-.67 0-1.27-.59-1.27-1.27s.6-1.27 1.27-1.27c.68 0 1.27.59 1.27 1.27s-.59 1.27-1.27 1.27Z" style="fill:currentColor"/>
</svg>
