<svg xmlns="http://www.w3.org/2000/svg" viewBox="0 0 36 36">
  <path d="M18 2.29c3.733 0 6.77 3.042 6.77 6.78a6.8 6.8 0 0 1-3.295 5.809 2.62 2.62 0 0 0-1.236 2.738l3.108 16.093H12.653l3.108-16.095a2.62 2.62 0 0 0-1.235-2.735 6.78 6.78 0 0 1-3.296-5.913c.053-3.598 3.018-6.592 6.608-6.675zm.001-2q-.103 0-.207.002C13.151.399 9.3 4.293 9.231 8.936a8.76 8.76 0 0 0 4.271 7.66.61.61 0 0 1 .296.638L10.429 34.68a.865.865 0 0 0 .849 1.029h13.445a.865.865 0 0 0 .849-1.029l-3.369-17.443a.61.61 0 0 1 .297-.642 8.75 8.75 0 0 0 4.27-7.526C26.77 4.22 22.85.29 18 .29" data-name="ApiKey" style="fill:currentColor"/>
</svg>
