<svg xmlns="http://www.w3.org/2000/svg" viewBox="0 0 36 36">
    <path data-name="Decisions" d="M15.24.61C5.21 1.79 5.36 9.55 5.41 12.1c.01.53-.17 1.07-.51 1.5-2.06 2.62-3.55 4.7-3.83 5.09-.18.26-.25.57-.18.88l.14.49.39.22c.26.15 2.24 1.27 3.7 1.99-.89 4.84-1.01 7.8.63 9.43 1.47 1.45 4.03 1.45 7.43.85l.04 1.71c.01.54.46.97 1 .97h.02c.55-.01.99-.47.98-1.02l-.1-4.07-1.16.23c-3.86.77-5.96.74-6.8-.09-1.07-1.07-.75-4.13.07-8.39l.15-.77-.72-.33c-.91-.41-2.41-1.22-3.37-1.76.66-.9 1.79-2.42 3.19-4.2.62-.79.95-1.78.93-2.77-.08-4.2.82-8.61 8.06-9.46.55-.07.95-.57.88-1.11a.995.995 0 0 0-1.11-.88Zm18.45 18.25c-.5-.24-1.1-.03-1.34.46-.98 2.01-2.42 2.78-3.95 3.59-.42.22-.83.45-1.23.69l-.22.13-.13.22c-2.02 3.51-1.79 6.44-1.47 10.5.04.52.48.92 1 .92h.07c.56-.05.97-.53.92-1.08-.32-4.19-.42-6.38 1.09-9.12.3-.17.6-.33.91-.5 1.66-.88 3.54-1.88 4.81-4.47.24-.5.03-1.1-.46-1.34Zm-.87-14.09c-.88 0-1.62.6-1.85 1.41h-2.19c-.14 0-.26.05-.36.14l-3.44 3.45h-5.21l-1.54-2.66h-3.9l-1.96 3.39 1.96 3.38h3.9l1.8-3.11h5.15c.14 0 .26-.05.36-.15l3.44-3.44h1.98a1.925 1.925 0 1 0 1.86-2.41Zm-15.16 8.11H14.9l-1.37-2.38 1.37-2.39h2.76l1.35 2.34c0 .02.01.03.02.05l-1.37 2.38Zm15.16-5.26a.92.92 0 0 1-.92-.93.926.926 0 0 1 1.85 0c0 .52-.42.93-.93.93Zm-.1-7.44c-1.07 0-1.93.86-1.93 1.92 0 .4.12.77.33 1.07l-1.2 1.2h-4.21c-.13 0-.26.05-.36.15l-3.64 3.64c-.2.2-.2.51 0 .71.1.1.23.15.35.15.13 0 .26-.05.36-.15l3.5-3.5h4.2c.14 0 .26-.05.36-.14l1.4-1.4c.25.12.53.2.84.2 1.06 0 1.93-.86 1.93-1.93 0-1.06-.87-1.92-1.93-1.92Zm0 2.85c-.51 0-.93-.42-.93-.93s.42-.92.93-.92.93.41.93.92-.42.93-.93.93ZM28.13.11a1.9 1.9 0 0 0-1.82 1.32h-3.05c-.28 0-.5.22-.5.5v2.68l-3.04 2.94c-.2.19-.2.5-.01.7.1.1.23.16.36.16.12 0 .25-.05.35-.15l3.19-3.08c.09-.1.15-.22.15-.36V2.43h2.48c.18.87.96 1.53 1.89 1.53 1.06 0 1.92-.86 1.92-1.93 0-1.06-.86-1.92-1.92-1.92Zm0 2.85c-.51 0-.93-.42-.93-.93s.42-.92.93-.92.92.41.92.92-.41.93-.92.93Zm5.74 10.08c-.88 0-1.61.59-1.84 1.4h-1.15l-3.82-3.82a.513.513 0 0 0-.71 0c-.19.2-.19.51 0 .71l3.97 3.96c.09.1.22.15.35.15h1.34c.21.83.96 1.45 1.86 1.45a1.925 1.925 0 1 0 0-3.85Zm0 2.85c-.51 0-.92-.41-.92-.92 0-.52.41-.93.92-.93.52 0 .93.41.93.93 0 .51-.41.92-.93.92Zm-3.46.34c-.26 0-.51.05-.73.14l-3.2-3.54a.48.48 0 0 0-.37-.17h-3.89l-.96-.96a.513.513 0 0 0-.71 0c-.19.2-.19.51 0 .71l1.11 1.1c.09.1.22.15.35.15h3.88l2.99 3.32a1.923 1.923 0 0 0 1.53 3.1c1.06 0 1.92-.86 1.92-1.92 0-1.07-.86-1.93-1.92-1.93Zm0 2.85a.92.92 0 0 1-.93-.92c0-.52.41-.93.93-.93.51 0 .92.41.92.93 0 .51-.41.92-.92.92Zm3.46-10.32c-.89 0-1.63.61-1.85 1.43h-1.99l-1.19-1.2a.513.513 0 0 0-.71 0c-.2.2-.2.51 0 .71l1.34 1.34c.1.1.22.15.36.15h2.19c.22.82.96 1.43 1.85 1.43a1.931 1.931 0 0 0 0-3.86Zm0 2.86c-.51 0-.92-.42-.92-.93s.41-.93.92-.93c.52 0 .93.42.93.93s-.41.93-.93.93ZM20.31.15a1.926 1.926 0 0 0-.56 3.77v.78l-1.1 1.1a.501.501 0 0 0 .36.85c.13 0 .25-.05.35-.15l1.24-1.24c.1-.09.15-.22.15-.35v-.96c.85-.2 1.48-.96 1.48-1.87 0-1.06-.86-1.93-1.92-1.93Zm0 2.86c-.51 0-.93-.42-.93-.93s.42-.93.93-.93.92.42.92.93-.41.93-.92.93Zm6.54 3.03a.513.513 0 0 0-.71 0L23.99 8.2a.495.495 0 0 0 .35.85.5.5 0 0 0 .35-.14l2.16-2.16c.2-.2.2-.51 0-.71Zm-1.12 8.45h-6.65c-.28 0-.5.22-.5.5 0 .27.22.5.5.5h6.65c.27 0 .5-.23.5-.5 0-.28-.23-.5-.5-.5Zm1.63 1.88h-4.52c-.28 0-.5.22-.5.5 0 .27.22.5.5.5h4.52c.27 0 .5-.23.5-.5 0-.28-.23-.5-.5-.5Z" style="fill:currentColor"/>
</svg>
