<svg xmlns="http://www.w3.org/2000/svg" viewBox="0 0 36 36">
    <path data-name="Docs" d="M26.448.55H6.92a2.04 2.04 0 0 0-2.04 2.04v30.98a2.04 2.04 0 0 0 2.04 2.04h22.75a2.04 2.04 0 0 0 2.04-2.04V5.829c0-.364-.144-.714-.401-.972L27.424.955a1.375 1.375 0 0 0-.976-.405Zm-.258 2 3.52 3.54v.13h-3.68V2.55h.16Zm3.52 31.06H6.88V2.55h17.15v4.464c0 .666.54 1.206 1.206 1.206h4.474v25.39ZM22.576 5.724H9.304v-1h13.272v1Zm.046 3.318H9.35v-1h13.272v1Zm4.731 3.317H9.35v-1h18.003v1Zm0 3.319H9.35v-1h18.003v1Zm0 3.318H9.35v-1h18.003v1ZM15.458 31.579H9.35v-1h6.108v1Zm0-2.617H9.35v-1h6.108v1Z" style="fill:currentColor"/>
</svg>
