<svg xmlns="http://www.w3.org/2000/svg" viewBox="0 0 36 36">
    <path data-name="Entity" d="M12.42 22.07v1h5.12v-1h-5.12Zm0-3.12v1h11.04v-1H12.42Zm-.24-6.26v1h19.24v-1H12.18Zm.16 3.13v1h19.08v-1H12.34Zm0 0v1h19.08v-1H12.34Zm-.16-3.13v1h19.24v-1H12.18Zm.24 6.26v1h11.04v-1H12.42Zm0 3.12v1h5.12v-1h-5.12Zm0 0v1h5.12v-1h-5.12Zm0-3.12v1h11.04v-1H12.42Zm-.24-6.26v1h19.24v-1H12.18Zm.16 3.13v1h19.08v-1H12.34Zm0 1h19.08v-1H12.34v1Zm-.16-4.13v1h19.24v-1H12.18Zm.24 7.26h11.04v-1H12.42v1Zm0 3.12h5.12v-1h-5.12v1ZM33.51 8.78H8.47c-.6 0-1.16.27-1.55.73L.94 16.72c-.62.74-.62 1.82 0 2.56l5.98 7.21c.39.46.95.73 1.55.73h25.04c1.11 0 2.01-.9 2.01-2.01V10.79c0-1.11-.9-2.01-2.01-2.01ZM6.92 23.35 2.48 18l4.44-5.35v10.7Zm26.59 1.87H8.92V10.78h24.59l.01.01-.01 14.43Zm-21.17-8.4h19.08v-1H12.34v1Zm-.16-3.13h19.24v-1H12.18v1Zm.24 6.26h11.04v-1H12.42v1Zm0 3.12h5.12v-1h-5.12v1Zm0-1v1h5.12v-1h-5.12Zm0-3.12v1h11.04v-1H12.42Zm-.24-6.26v1h19.24v-1H12.18Zm.16 3.13v1h19.08v-1H12.34Zm0 0v1h19.08v-1H12.34Zm-.16-3.13v1h19.24v-1H12.18Zm.24 6.26v1h11.04v-1H12.42Zm0 3.12v1h5.12v-1h-5.12Zm0 0v1h5.12v-1h-5.12Zm0-3.12v1h11.04v-1H12.42Zm-.24-6.26v1h19.24v-1H12.18Zm.16 3.13v1h19.08v-1H12.34Zm-.16-3.13v1h19.24v-1H12.18Zm.16 3.13v1h19.08v-1H12.34Zm.08 3.13v1h11.04v-1H12.42Zm0 3.12v1h5.12v-1h-5.12Z" style="fill:currentColor"/>
</svg>
