<svg xmlns="http://www.w3.org/2000/svg" viewBox="0 0 36 36">
    <path data-name="Facts" d="M18 9.98c-.83 0-1.5.67-1.5 1.5v8.95c0 .83.67 1.5 1.5 1.5s1.5-.67 1.5-1.5v-8.95c0-.83-.67-1.5-1.5-1.5Zm0-5.9c-.84 0-1.52.68-1.52 1.52 0 .83.68 1.51 1.52 1.51s1.52-.68 1.52-1.51c0-.84-.68-1.52-1.52-1.52Zm0 0c-.84 0-1.52.68-1.52 1.52 0 .83.68 1.51 1.52 1.51s1.52-.68 1.52-1.51c0-.84-.68-1.52-1.52-1.52Zm0 5.9c-.83 0-1.5.67-1.5 1.5v8.95c0 .83.67 1.5 1.5 1.5s1.5-.67 1.5-1.5v-8.95c0-.83-.67-1.5-1.5-1.5Zm0 0c-.83 0-1.5.67-1.5 1.5v8.95c0 .83.67 1.5 1.5 1.5s1.5-.67 1.5-1.5v-8.95c0-.83-.67-1.5-1.5-1.5Zm0-5.9c-.84 0-1.52.68-1.52 1.52 0 .83.68 1.51 1.52 1.51s1.52-.68 1.52-1.51c0-.84-.68-1.52-1.52-1.52Zm0 0c-.84 0-1.52.68-1.52 1.52 0 .83.68 1.51 1.52 1.51s1.52-.68 1.52-1.51c0-.84-.68-1.52-1.52-1.52Zm0 5.9c-.83 0-1.5.67-1.5 1.5v8.95c0 .83.67 1.5 1.5 1.5s1.5-.67 1.5-1.5v-8.95c0-.83-.67-1.5-1.5-1.5Zm0 0c-.83 0-1.5.67-1.5 1.5v8.95c0 .83.67 1.5 1.5 1.5s1.5-.67 1.5-1.5v-8.95c0-.83-.67-1.5-1.5-1.5Zm0-5.9c-.84 0-1.52.68-1.52 1.52 0 .83.68 1.51 1.52 1.51s1.52-.68 1.52-1.51c0-.84-.68-1.52-1.52-1.52Zm0 0c-.84 0-1.52.68-1.52 1.52 0 .83.68 1.51 1.52 1.51s1.52-.68 1.52-1.51c0-.84-.68-1.52-1.52-1.52Zm0 5.9c-.83 0-1.5.67-1.5 1.5v8.95c0 .83.67 1.5 1.5 1.5s1.5-.67 1.5-1.5v-8.95c0-.83-.67-1.5-1.5-1.5Zm0 0c-.83 0-1.5.67-1.5 1.5v8.95c0 .83.67 1.5 1.5 1.5s1.5-.67 1.5-1.5v-8.95c0-.83-.67-1.5-1.5-1.5Zm0-5.9c-.84 0-1.52.68-1.52 1.52 0 .83.68 1.51 1.52 1.51s1.52-.68 1.52-1.51c0-.84-.68-1.52-1.52-1.52Zm0 0c-.84 0-1.52.68-1.52 1.52 0 .83.68 1.51 1.52 1.51s1.52-.68 1.52-1.51c0-.84-.68-1.52-1.52-1.52Zm0 5.9c-.83 0-1.5.67-1.5 1.5v8.95c0 .83.67 1.5 1.5 1.5s1.5-.67 1.5-1.5v-8.95c0-.83-.67-1.5-1.5-1.5Zm0 0c-.83 0-1.5.67-1.5 1.5v8.95c0 .83.67 1.5 1.5 1.5s1.5-.67 1.5-1.5v-8.95c0-.83-.67-1.5-1.5-1.5Zm0-5.9c-.84 0-1.52.68-1.52 1.52 0 .83.68 1.51 1.52 1.51s1.52-.68 1.52-1.51c0-.84-.68-1.52-1.52-1.52Zm0 0c-.84 0-1.52.68-1.52 1.52 0 .83.68 1.51 1.52 1.51s1.52-.68 1.52-1.51c0-.84-.68-1.52-1.52-1.52Zm0 5.9c-.83 0-1.5.67-1.5 1.5v8.95c0 .83.67 1.5 1.5 1.5s1.5-.67 1.5-1.5v-8.95c0-.83-.67-1.5-1.5-1.5Zm0 0c-.83 0-1.5.67-1.5 1.5v8.95c0 .83.67 1.5 1.5 1.5s1.5-.67 1.5-1.5v-8.95c0-.83-.67-1.5-1.5-1.5Zm0-5.9c-.84 0-1.52.68-1.52 1.52 0 .83.68 1.51 1.52 1.51s1.52-.68 1.52-1.51c0-.84-.68-1.52-1.52-1.52Zm0 0c-.84 0-1.52.68-1.52 1.52 0 .83.68 1.51 1.52 1.51s1.52-.68 1.52-1.51c0-.84-.68-1.52-1.52-1.52Zm0 5.9c-.83 0-1.5.67-1.5 1.5v8.95c0 .83.67 1.5 1.5 1.5s1.5-.67 1.5-1.5v-8.95c0-.83-.67-1.5-1.5-1.5Zm0 0c-.83 0-1.5.67-1.5 1.5v8.95c0 .83.67 1.5 1.5 1.5s1.5-.67 1.5-1.5v-8.95c0-.83-.67-1.5-1.5-1.5Zm0-5.9c-.84 0-1.52.68-1.52 1.52 0 .83.68 1.51 1.52 1.51s1.52-.68 1.52-1.51c0-.84-.68-1.52-1.52-1.52Zm0 0c-.84 0-1.52.68-1.52 1.52 0 .83.68 1.51 1.52 1.51s1.52-.68 1.52-1.51c0-.84-.68-1.52-1.52-1.52Zm0 5.9c-.83 0-1.5.67-1.5 1.5v8.95c0 .83.67 1.5 1.5 1.5s1.5-.67 1.5-1.5v-8.95c0-.83-.67-1.5-1.5-1.5Zm0 0c-.83 0-1.5.67-1.5 1.5v8.95c0 .83.67 1.5 1.5 1.5s1.5-.67 1.5-1.5v-8.95c0-.83-.67-1.5-1.5-1.5Zm0-2.87c.84 0 1.52-.68 1.52-1.51a1.52 1.52 0 1 0-3.04 0c0 .83.68 1.51 1.52 1.51ZM17.48.18C10.85.44 5.35 5.87 5.01 12.5c-.2 4.12 1.51 7.85 4.32 10.36.85.76 1.38 1.81 1.38 2.95v2.52c0 1.02.82 1.84 1.83 1.84h4.35l-2.86 1.28a.993.993 0 1 0 .82 1.81l6.9-3.09h1.71c1.01 0 1.83-.82 1.83-1.84v-2.52c0-1.14.53-2.19 1.37-2.94 2.67-2.38 4.34-5.84 4.34-9.7C31 5.82 24.9-.11 17.48.18Zm5.82 28H12.7v-1.97h10.6v1.97Zm2.26-6.9a6.32 6.32 0 0 0-2.12 3.56H12.56c-.27-1.31-.94-2.52-1.97-3.4-2.64-2.26-3.58-5.22-3.6-8.16-.04-4.75 2.81-9.04 7.32-10.52 7.63-2.5 14.7 3.14 14.7 10.41 0 3.04-.34 5.51-3.45 8.11ZM18 9.98c-.83 0-1.5.67-1.5 1.5v8.95c0 .83.67 1.5 1.5 1.5s1.5-.67 1.5-1.5v-8.95c0-.83-.67-1.5-1.5-1.5Zm0-5.9c-.84 0-1.52.68-1.52 1.52 0 .83.68 1.51 1.52 1.51s1.52-.68 1.52-1.51c0-.84-.68-1.52-1.52-1.52Zm0 0c-.84 0-1.52.68-1.52 1.52 0 .83.68 1.51 1.52 1.51s1.52-.68 1.52-1.51c0-.84-.68-1.52-1.52-1.52Zm0 5.9c-.83 0-1.5.67-1.5 1.5v8.95c0 .83.67 1.5 1.5 1.5s1.5-.67 1.5-1.5v-8.95c0-.83-.67-1.5-1.5-1.5Zm0 0c-.83 0-1.5.67-1.5 1.5v8.95c0 .83.67 1.5 1.5 1.5s1.5-.67 1.5-1.5v-8.95c0-.83-.67-1.5-1.5-1.5Zm0-5.9c-.84 0-1.52.68-1.52 1.52 0 .83.68 1.51 1.52 1.51s1.52-.68 1.52-1.51c0-.84-.68-1.52-1.52-1.52Zm0 0c-.84 0-1.52.68-1.52 1.52 0 .83.68 1.51 1.52 1.51s1.52-.68 1.52-1.51c0-.84-.68-1.52-1.52-1.52Zm0 5.9c-.83 0-1.5.67-1.5 1.5v8.95c0 .83.67 1.5 1.5 1.5s1.5-.67 1.5-1.5v-8.95c0-.83-.67-1.5-1.5-1.5Zm0 0c-.83 0-1.5.67-1.5 1.5v8.95c0 .83.67 1.5 1.5 1.5s1.5-.67 1.5-1.5v-8.95c0-.83-.67-1.5-1.5-1.5Zm0-5.9c-.84 0-1.52.68-1.52 1.52 0 .83.68 1.51 1.52 1.51s1.52-.68 1.52-1.51c0-.84-.68-1.52-1.52-1.52Zm0 0c-.84 0-1.52.68-1.52 1.52 0 .83.68 1.51 1.52 1.51s1.52-.68 1.52-1.51c0-.84-.68-1.52-1.52-1.52Zm0 5.9c-.83 0-1.5.67-1.5 1.5v8.95c0 .83.67 1.5 1.5 1.5s1.5-.67 1.5-1.5v-8.95c0-.83-.67-1.5-1.5-1.5Zm0 0c-.83 0-1.5.67-1.5 1.5v8.95c0 .83.67 1.5 1.5 1.5s1.5-.67 1.5-1.5v-8.95c0-.83-.67-1.5-1.5-1.5Zm0-5.9c-.84 0-1.52.68-1.52 1.52 0 .83.68 1.51 1.52 1.51s1.52-.68 1.52-1.51c0-.84-.68-1.52-1.52-1.52Zm0 0c-.84 0-1.52.68-1.52 1.52 0 .83.68 1.51 1.52 1.51s1.52-.68 1.52-1.51c0-.84-.68-1.52-1.52-1.52Zm0 5.9c-.83 0-1.5.67-1.5 1.5v8.95c0 .83.67 1.5 1.5 1.5s1.5-.67 1.5-1.5v-8.95c0-.83-.67-1.5-1.5-1.5Zm0 0c-.83 0-1.5.67-1.5 1.5v8.95c0 .83.67 1.5 1.5 1.5s1.5-.67 1.5-1.5v-8.95c0-.83-.67-1.5-1.5-1.5Zm0-5.9c-.84 0-1.52.68-1.52 1.52 0 .83.68 1.51 1.52 1.51s1.52-.68 1.52-1.51c0-.84-.68-1.52-1.52-1.52Zm0 0c-.84 0-1.52.68-1.52 1.52 0 .83.68 1.51 1.52 1.51s1.52-.68 1.52-1.51c0-.84-.68-1.52-1.52-1.52Zm0 5.9c-.83 0-1.5.67-1.5 1.5v8.95c0 .83.67 1.5 1.5 1.5s1.5-.67 1.5-1.5v-8.95c0-.83-.67-1.5-1.5-1.5Zm0 0c-.83 0-1.5.67-1.5 1.5v8.95c0 .83.67 1.5 1.5 1.5s1.5-.67 1.5-1.5v-8.95c0-.83-.67-1.5-1.5-1.5Zm0-5.9c-.84 0-1.52.68-1.52 1.52 0 .83.68 1.51 1.52 1.51s1.52-.68 1.52-1.51c0-.84-.68-1.52-1.52-1.52Zm0 0c-.84 0-1.52.68-1.52 1.52 0 .83.68 1.51 1.52 1.51s1.52-.68 1.52-1.51c0-.84-.68-1.52-1.52-1.52Zm0 5.9c-.83 0-1.5.67-1.5 1.5v8.95c0 .83.67 1.5 1.5 1.5s1.5-.67 1.5-1.5v-8.95c0-.83-.67-1.5-1.5-1.5Zm0 0c-.83 0-1.5.67-1.5 1.5v8.95c0 .83.67 1.5 1.5 1.5s1.5-.67 1.5-1.5v-8.95c0-.83-.67-1.5-1.5-1.5Zm0-5.9c-.84 0-1.52.68-1.52 1.52 0 .83.68 1.51 1.52 1.51s1.52-.68 1.52-1.51c0-.84-.68-1.52-1.52-1.52Zm0 0c-.84 0-1.52.68-1.52 1.52 0 .83.68 1.51 1.52 1.51s1.52-.68 1.52-1.51c0-.84-.68-1.52-1.52-1.52Zm0 5.9c-.83 0-1.5.67-1.5 1.5v8.95c0 .83.67 1.5 1.5 1.5s1.5-.67 1.5-1.5v-8.95c0-.83-.67-1.5-1.5-1.5Zm3.94 22.15a.993.993 0 0 0-1.33-.45l-5.14 2.36c-.49.24-.7.84-.45 1.33.17.36.52.56.89.56.15 0 .3-.03.44-.1l5.14-2.36a1 1 0 0 0 .45-1.34Z" style="fill:currentColor"/>
</svg>
