<svg xmlns="http://www.w3.org/2000/svg" viewBox="0 0 36 36">
    <path data-name="Logout" d="M18.996 32.938a1.5 1.5 0 0 1-1.5 1.5h-7.353c-4.369 0-7.924-3.555-7.924-7.924V9.525c0-4.369 3.555-7.924 7.924-7.924h7.353a1.5 1.5 0 1 1 0 3h-7.353a4.93 4.93 0 0 0-4.924 4.924v16.988a4.93 4.93 0 0 0 4.924 4.924h7.353a1.5 1.5 0 0 1 1.5 1.5Zm15.841-15.799c-.021-.022-.05-.029-.072-.049-.024-.028-.039-.061-.065-.088l-6.297-6.297a1.5 1.5 0 1 0-2.121 2.121l3.736 3.736H9.704a1.5 1.5 0 1 0 0 3h20.517l-3.929 3.852a1.5 1.5 0 0 0 2.1 2.142l6.423-6.297a1.5 1.5 0 0 0 .021-2.121Z" style="fill:currentColor"/>
</svg>
