<svg xmlns="http://www.w3.org/2000/svg" viewBox="0 0 36 36">
    <path data-name="Memories" d="M11.56 17.66c-.9-.34-1.72-.47-2.45-.45h-.07c-.73.01-1.38.17-1.95.41-.42.18-.8.4-1.13.64-.22.16-.41.33-.58.5-.26.25-.47.5-.62.72-.18.36-.09.72.18.9.09.06.2.09.31.09.26.04.55-.06.69-.27.06-.11.17-.25.3-.39.38-.42 1.01-.9 1.79-1.12 0 .09.02.21.04.35s.04.3.04.44c0 .41 0 .81-.11 1.18-.04.13-.09.25-.16.36-.04.09-.07.18-.07.27-.01.09.01.17.04.25.05.16.17.3.3.39.11.05.22.06.33.06.28.03.53-.12.67-.34.09-.18.17-.36.22-.55.12-.38.17-.76.18-1.12 0-.17-.01-.34-.04-.5 0-.27 0-.54-.09-.81.09 0 .18.01.27.02.37.06.78.2 1.18.33.11.06.22.07.33.06.27.03.53-.13.67-.42l.09-.09c.09-.36 0-.73-.36-.91Zm2.63 6.81v-.19c-.73-.54-1.63-.81-2.18-.9-.09 0-.18.01-.26.03-.09.02-.17.06-.25.1a.64.64 0 0 0-.29.39c-.01-.02-.01-.04-.01-.07v.27c0-.01.01-.02.02-.03.03.22.12.42.28.55.07.06.15.1.24.12.35 0 .96.25 1.49.6l-.13.12c-.27.19-.54.37-.81.46-.3 0-.53.31-.55.62a.66.66 0 0 0 0 .28c0 .37.45.64.82.55.63-.09 1.09-.45 1.45-.73l.18-.18c.18.27.27.55.27.82 0 .09.03.17.06.25.12.23.4.38.67.38.36 0 .63-.36.63-.72v-.09c-.09-1.27-.81-2.09-1.63-2.63ZM17 11.68c-.25-1.02-.66-1.81-1.13-2.39-.1-.12-.2-.23-.3-.34-.2-.2-.41-.38-.62-.53-.11-.07-.21-.14-.32-.2-.22-.13-.43-.23-.64-.31-.48-.17-.94-.24-1.31-.23-.11 0-.21 0-.3.01l.06.03c-.3.07-.52.37-.52.69 0 .01.01.03.01.04 0 .02-.01.03-.01.05 0 .36.37.64.73.64.35 0 1.23.09 2.04.95-.18.24-.43.41-.77.5-.36.18-.82.18-1.09.18s-.54.15-.66.38c-.04.08-.07.16-.07.25 0 .02.01.04.01.06 0 .01-.01.02-.01.04 0 .36.28.72.64.72.45 0 1 0 1.63-.27.36-.09.73-.36 1-.64 0 .19.18.46.18.73.09.36.45.54.82.45.29-.07.46-.33.46-.62 0-.01.01-.01.01-.02.01-.08 0-.17-.02-.26l.18.09Zm-4.17 2.26c-.79-1.74-2.4-2.49-3.36-2.63-.36 0-.72.19-.81.55 0 .28.11.55.32.71.08.09.18.16.31.2.41.04 1.07.29 1.62.82.56.54 1.01 1.35 1.01 2.53 0 .09.03.18.07.25.11.23.39.39.66.39.36 0 .63-.37.63-.73-.02-.82-.19-1.51-.45-2.09Zm-1.27 3.72c-.9-.34-1.72-.47-2.45-.45h-.07c-.73.01-1.38.17-1.95.41-.42.18-.8.4-1.13.64-.22.16-.41.33-.58.5-.26.25-.47.5-.62.72-.18.36-.09.72.18.9.09.06.2.09.31.09.26.04.55-.06.69-.27.06-.11.17-.25.3-.39.38-.42 1.01-.9 1.79-1.12 0 .09.02.21.04.35s.04.3.04.44c0 .41 0 .81-.11 1.18-.04.13-.09.25-.16.36-.04.09-.07.18-.07.27-.01.09.01.17.04.25.05.16.17.3.3.39.11.05.22.06.33.06.28.03.53-.12.67-.34.09-.18.17-.36.22-.55.12-.38.17-.76.18-1.12 0-.17-.01-.34-.04-.5 0-.27 0-.54-.09-.81.09 0 .18.01.27.02.37.06.78.2 1.18.33.11.06.22.07.33.06.27.03.53-.13.67-.42l.09-.09c.09-.36 0-.73-.36-.91Zm1.27-3.72c-.79-1.74-2.4-2.49-3.36-2.63-.36 0-.72.19-.81.55 0 .28.11.55.32.71.08.09.18.16.31.2.41.04 1.07.29 1.62.82.56.54 1.01 1.35 1.01 2.53 0 .09.03.18.07.25.11.23.39.39.66.39.36 0 .63-.37.63-.73-.02-.82-.19-1.51-.45-2.09Zm1.36 10.53v-.19c-.73-.54-1.63-.81-2.18-.9-.09 0-.18.01-.26.03-.09.02-.17.06-.25.1a.64.64 0 0 0-.29.39c-.01-.02-.01-.04-.01-.07v.27c0-.01.01-.02.02-.03.03.22.12.42.28.55.07.06.15.1.24.12.35 0 .96.25 1.49.6l-.13.12c-.27.19-.54.37-.81.46-.3 0-.53.31-.55.62a.66.66 0 0 0 0 .28c0 .37.45.64.82.55.63-.09 1.09-.45 1.45-.73l.18-.18c.18.27.27.55.27.82 0 .09.03.17.06.25.12.23.4.38.67.38.36 0 .63-.36.63-.72v-.09c-.09-1.27-.81-2.09-1.63-2.63ZM17 11.68c-.25-1.02-.66-1.81-1.13-2.39-.1-.12-.2-.23-.3-.34-.2-.2-.41-.38-.62-.53-.11-.07-.21-.14-.32-.2-.22-.13-.43-.23-.64-.31-.48-.17-.94-.24-1.31-.23-.11 0-.21 0-.3.01l.06.03c-.3.07-.52.37-.52.69 0 .01.01.03.01.04 0 .02-.01.03-.01.05 0 .36.37.64.73.64.35 0 1.23.09 2.04.95-.18.24-.43.41-.77.5-.36.18-.82.18-1.09.18s-.54.15-.66.38c-.04.08-.07.16-.07.25 0 .02.01.04.01.06 0 .01-.01.02-.01.04 0 .36.28.72.64.72.45 0 1 0 1.63-.27.36-.09.73-.36 1-.64 0 .19.18.46.18.73.09.36.45.54.82.45.29-.07.46-.33.46-.62 0-.01.01-.01.01-.02.01-.08 0-.17-.02-.26l.18.09Zm0 0c-.25-1.02-.66-1.81-1.13-2.39-.1-.12-.2-.23-.3-.34-.2-.2-.41-.38-.62-.53-.11-.07-.21-.14-.32-.2-.22-.13-.43-.23-.64-.31-.48-.17-.94-.24-1.31-.23-.11 0-.21 0-.3.01l.06.03c-.3.07-.52.37-.52.69 0 .01.01.03.01.04 0 .02-.01.03-.01.05 0 .36.37.64.73.64.35 0 1.23.09 2.04.95-.18.24-.43.41-.77.5-.36.18-.82.18-1.09.18s-.54.15-.66.38c-.04.08-.07.16-.07.25 0 .02.01.04.01.06 0 .01-.01.02-.01.04 0 .36.28.72.64.72.45 0 1 0 1.63-.27.36-.09.73-.36 1-.64 0 .19.18.46.18.73.09.36.45.54.82.45.29-.07.46-.33.46-.62 0-.01.01-.01.01-.02.01-.08 0-.17-.02-.26l.18.09Zm-2.81 12.79v-.19c-.73-.54-1.63-.81-2.18-.9-.09 0-.18.01-.26.03-.09.02-.17.06-.25.1a.64.64 0 0 0-.29.39c-.01-.02-.01-.04-.01-.07v.27c0-.01.01-.02.02-.03.03.22.12.42.28.55.07.06.15.1.24.12.35 0 .96.25 1.49.6l-.13.12c-.27.19-.54.37-.81.46-.3 0-.53.31-.55.62a.66.66 0 0 0 0 .28c0 .37.45.64.82.55.63-.09 1.09-.45 1.45-.73l.18-.18c.18.27.27.55.27.82 0 .09.03.17.06.25.12.23.4.38.67.38.36 0 .63-.36.63-.72v-.09c-.09-1.27-.81-2.09-1.63-2.63Zm-1.36-10.53c-.79-1.74-2.4-2.49-3.36-2.63-.36 0-.72.19-.81.55 0 .28.11.55.32.71.08.09.18.16.31.2.41.04 1.07.29 1.62.82.56.54 1.01 1.35 1.01 2.53 0 .09.03.18.07.25.11.23.39.39.66.39.36 0 .63-.37.63-.73-.02-.82-.19-1.51-.45-2.09Zm-1.27 3.72c-.9-.34-1.72-.47-2.45-.45h-.07c-.73.01-1.38.17-1.95.41-.42.18-.8.4-1.13.64-.22.16-.41.33-.58.5-.26.25-.47.5-.62.72-.18.36-.09.72.18.9.09.06.2.09.31.09.26.04.55-.06.69-.27.06-.11.17-.25.3-.39.38-.42 1.01-.9 1.79-1.12 0 .09.02.21.04.35s.04.3.04.44c0 .41 0 .81-.11 1.18-.04.13-.09.25-.16.36-.04.09-.07.18-.07.27-.01.09.01.17.04.25.05.16.17.3.3.39.11.05.22.06.33.06.28.03.53-.12.67-.34.09-.18.17-.36.22-.55.12-.38.17-.76.18-1.12 0-.17-.01-.34-.04-.5 0-.27 0-.54-.09-.81.09 0 .18.01.27.02.37.06.78.2 1.18.33.11.06.22.07.33.06.27.03.53-.13.67-.42l.09-.09c.09-.36 0-.73-.36-.91Zm0 0c-.9-.34-1.72-.47-2.45-.45h-.07c-.73.01-1.38.17-1.95.41-.42.18-.8.4-1.13.64-.22.16-.41.33-.58.5-.26.25-.47.5-.62.72-.18.36-.09.72.18.9.09.06.2.09.31.09.26.04.55-.06.69-.27.06-.11.17-.25.3-.39.38-.42 1.01-.9 1.79-1.12 0 .09.02.21.04.35s.04.3.04.44c0 .41 0 .81-.11 1.18-.04.13-.09.25-.16.36-.04.09-.07.18-.07.27-.01.09.01.17.04.25.05.16.17.3.3.39.11.05.22.06.33.06.28.03.53-.12.67-.34.09-.18.17-.36.22-.55.12-.38.17-.76.18-1.12 0-.17-.01-.34-.04-.5 0-.27 0-.54-.09-.81.09 0 .18.01.27.02.37.06.78.2 1.18.33.11.06.22.07.33.06.27.03.53-.13.67-.42l.09-.09c.09-.36 0-.73-.36-.91Zm1.27-3.72c-.79-1.74-2.4-2.49-3.36-2.63-.36 0-.72.19-.81.55 0 .28.11.55.32.71.08.09.18.16.31.2.41.04 1.07.29 1.62.82.56.54 1.01 1.35 1.01 2.53 0 .09.03.18.07.25.11.23.39.39.66.39.36 0 .63-.37.63-.73-.02-.82-.19-1.51-.45-2.09Zm1.36 10.53v-.19c-.73-.54-1.63-.81-2.18-.9-.09 0-.18.01-.26.03-.09.02-.17.06-.25.1a.64.64 0 0 0-.29.39c-.01-.02-.01-.04-.01-.07v.27c0-.01.01-.02.02-.03.03.22.12.42.28.55.07.06.15.1.24.12.35 0 .96.25 1.49.6l-.13.12c-.27.19-.54.37-.81.46-.3 0-.53.31-.55.62a.66.66 0 0 0 0 .28c0 .37.45.64.82.55.63-.09 1.09-.45 1.45-.73l.18-.18c.18.27.27.55.27.82 0 .09.03.17.06.25.12.23.4.38.67.38.36 0 .63-.36.63-.72v-.09c-.09-1.27-.81-2.09-1.63-2.63ZM17 11.68c-.25-1.02-.66-1.81-1.13-2.39-.1-.12-.2-.23-.3-.34-.2-.2-.41-.38-.62-.53-.11-.07-.21-.14-.32-.2-.22-.13-.43-.23-.64-.31-.48-.17-.94-.24-1.31-.23-.11 0-.21 0-.3.01l.06.03c-.3.07-.52.37-.52.69 0 .01.01.03.01.04 0 .02-.01.03-.01.05 0 .36.37.64.73.64.35 0 1.23.09 2.04.95-.18.24-.43.41-.77.5-.36.18-.82.18-1.09.18s-.54.15-.66.38c-.04.08-.07.16-.07.25 0 .02.01.04.01.06 0 .01-.01.02-.01.04 0 .36.28.72.64.72.45 0 1 0 1.63-.27.36-.09.73-.36 1-.64 0 .19.18.46.18.73.09.36.45.54.82.45.29-.07.46-.33.46-.62 0-.01.01-.01.01-.02.01-.08 0-.17-.02-.26l.18.09Zm0 0c-.25-1.02-.66-1.81-1.13-2.39-.1-.12-.2-.23-.3-.34-.2-.2-.41-.38-.62-.53-.11-.07-.21-.14-.32-.2-.22-.13-.43-.23-.64-.31-.48-.17-.94-.24-1.31-.23-.11 0-.21 0-.3.01l.06.03c-.3.07-.52.37-.52.69 0 .01.01.03.01.04 0 .02-.01.03-.01.05 0 .36.37.64.73.64.35 0 1.23.09 2.04.95-.18.24-.43.41-.77.5-.36.18-.82.18-1.09.18s-.54.15-.66.38c-.04.08-.07.16-.07.25 0 .02.01.04.01.06 0 .01-.01.02-.01.04 0 .36.28.72.64.72.45 0 1 0 1.63-.27.36-.09.73-.36 1-.64 0 .19.18.46.18.73.09.36.45.54.82.45.29-.07.46-.33.46-.62 0-.01.01-.01.01-.02.01-.08 0-.17-.02-.26l.18.09Zm-2.81 12.79v-.19c-.73-.54-1.63-.81-2.18-.9-.09 0-.18.01-.26.03-.09.02-.17.06-.25.1a.64.64 0 0 0-.29.39c-.01-.02-.01-.04-.01-.07v.27c0-.01.01-.02.02-.03.03.22.12.42.28.55.07.06.15.1.24.12.35 0 .96.25 1.49.6l-.13.12c-.27.19-.54.37-.81.46-.3 0-.53.31-.55.62a.66.66 0 0 0 0 .28c0 .37.45.64.82.55.63-.09 1.09-.45 1.45-.73l.18-.18c.18.27.27.55.27.82 0 .09.03.17.06.25.12.23.4.38.67.38.36 0 .63-.36.63-.72v-.09c-.09-1.27-.81-2.09-1.63-2.63Zm-1.36-10.53c-.79-1.74-2.4-2.49-3.36-2.63-.36 0-.72.19-.81.55 0 .28.11.55.32.71.08.09.18.16.31.2.41.04 1.07.29 1.62.82.56.54 1.01 1.35 1.01 2.53 0 .09.03.18.07.25.11.23.39.39.66.39.36 0 .63-.37.63-.73-.02-.82-.19-1.51-.45-2.09Zm-1.27 3.72c-.9-.34-1.72-.47-2.45-.45h-.07c-.73.01-1.38.17-1.95.41-.42.18-.8.4-1.13.64-.22.16-.41.33-.58.5-.26.25-.47.5-.62.72-.18.36-.09.72.18.9.09.06.2.09.31.09.26.04.55-.06.69-.27.06-.11.17-.25.3-.39.38-.42 1.01-.9 1.79-1.12 0 .09.02.21.04.35s.04.3.04.44c0 .41 0 .81-.11 1.18-.04.13-.09.25-.16.36-.04.09-.07.18-.07.27-.01.09.01.17.04.25.05.16.17.3.3.39.11.05.22.06.33.06.28.03.53-.12.67-.34.09-.18.17-.36.22-.55.12-.38.17-.76.18-1.12 0-.17-.01-.34-.04-.5 0-.27 0-.54-.09-.81.09 0 .18.01.27.02.37.06.78.2 1.18.33.11.06.22.07.33.06.27.03.53-.13.67-.42l.09-.09c.09-.36 0-.73-.36-.91Zm0 0c-.9-.34-1.72-.47-2.45-.45h-.07c-.73.01-1.38.17-1.95.41-.42.18-.8.4-1.13.64-.22.16-.41.33-.58.5-.26.25-.47.5-.62.72-.18.36-.09.72.18.9.09.06.2.09.31.09.26.04.55-.06.69-.27.06-.11.17-.25.3-.39.38-.42 1.01-.9 1.79-1.12 0 .09.02.21.04.35s.04.3.04.44c0 .41 0 .81-.11 1.18-.04.13-.09.25-.16.36-.04.09-.07.18-.07.27-.01.09.01.17.04.25.05.16.17.3.3.39.11.05.22.06.33.06.28.03.53-.12.67-.34.09-.18.17-.36.22-.55.12-.38.17-.76.18-1.12 0-.17-.01-.34-.04-.5 0-.27 0-.54-.09-.81.09 0 .18.01.27.02.37.06.78.2 1.18.33.11.06.22.07.33.06.27.03.53-.13.67-.42l.09-.09c.09-.36 0-.73-.36-.91Zm1.27-3.72c-.79-1.74-2.4-2.49-3.36-2.63-.36 0-.72.19-.81.55 0 .28.11.55.32.71.08.09.18.16.31.2.41.04 1.07.29 1.62.82.56.54 1.01 1.35 1.01 2.53 0 .09.03.18.07.25.11.23.39.39.66.39.36 0 .63-.37.63-.73-.02-.82-.19-1.51-.45-2.09Zm1.36 10.53v-.19c-.73-.54-1.63-.81-2.18-.9-.09 0-.18.01-.26.03-.09.02-.17.06-.25.1a.64.64 0 0 0-.29.39c-.01-.02-.01-.04-.01-.07v.27c0-.01.01-.02.02-.03.03.22.12.42.28.55.07.06.15.1.24.12.35 0 .96.25 1.49.6l-.13.12c-.27.19-.54.37-.81.46-.3 0-.53.31-.55.62a.66.66 0 0 0 0 .28c0 .37.45.64.82.55.63-.09 1.09-.45 1.45-.73l.18-.18c.18.27.27.55.27.82 0 .09.03.17.06.25.12.23.4.38.67.38.36 0 .63-.36.63-.72v-.09c-.09-1.27-.81-2.09-1.63-2.63ZM17 11.68c-.25-1.02-.66-1.81-1.13-2.39-.1-.12-.2-.23-.3-.34-.2-.2-.41-.38-.62-.53-.11-.07-.21-.14-.32-.2-.22-.13-.43-.23-.64-.31-.48-.17-.94-.24-1.31-.23-.11 0-.21 0-.3.01l.06.03c-.3.07-.52.37-.52.69 0 .01.01.03.01.04 0 .02-.01.03-.01.05 0 .36.37.64.73.64.35 0 1.23.09 2.04.95-.18.24-.43.41-.77.5-.36.18-.82.18-1.09.18s-.54.15-.66.38c-.04.08-.07.16-.07.25 0 .02.01.04.01.06 0 .01-.01.02-.01.04 0 .36.28.72.64.72.45 0 1 0 1.63-.27.36-.09.73-.36 1-.64 0 .19.18.46.18.73.09.36.45.54.82.45.29-.07.46-.33.46-.62 0-.01.01-.01.01-.02.01-.08 0-.17-.02-.26l.18.09Zm0 0c-.25-1.02-.66-1.81-1.13-2.39-.1-.12-.2-.23-.3-.34-.2-.2-.41-.38-.62-.53-.11-.07-.21-.14-.32-.2-.22-.13-.43-.23-.64-.31-.48-.17-.94-.24-1.31-.23-.11 0-.21 0-.3.01l.06.03c-.3.07-.52.37-.52.69 0 .01.01.03.01.04 0 .02-.01.03-.01.05 0 .36.37.64.73.64.35 0 1.23.09 2.04.95-.18.24-.43.41-.77.5-.36.18-.82.18-1.09.18s-.54.15-.66.38c-.04.08-.07.16-.07.25 0 .02.01.04.01.06 0 .01-.01.02-.01.04 0 .36.28.72.64.72.45 0 1 0 1.63-.27.36-.09.73-.36 1-.64 0 .19.18.46.18.73.09.36.45.54.82.45.29-.07.46-.33.46-.62 0-.01.01-.01.01-.02.01-.08 0-.17-.02-.26l.18.09Zm-2.81 12.79v-.19c-.73-.54-1.63-.81-2.18-.9-.09 0-.18.01-.26.03-.09.02-.17.06-.25.1a.64.64 0 0 0-.29.39c-.01-.02-.01-.04-.01-.07v.27c0-.01.01-.02.02-.03.03.22.12.42.28.55.07.06.15.1.24.12.35 0 .96.25 1.49.6l-.13.12c-.27.19-.54.37-.81.46-.3 0-.53.31-.55.62a.66.66 0 0 0 0 .28c0 .37.45.64.82.55.63-.09 1.09-.45 1.45-.73l.18-.18c.18.27.27.55.27.82 0 .09.03.17.06.25.12.23.4.38.67.38.36 0 .63-.36.63-.72v-.09c-.09-1.27-.81-2.09-1.63-2.63Zm-1.36-10.53c-.79-1.74-2.4-2.49-3.36-2.63-.36 0-.72.19-.81.55 0 .28.11.55.32.71.08.09.18.16.31.2.41.04 1.07.29 1.62.82.56.54 1.01 1.35 1.01 2.53 0 .09.03.18.07.25.11.23.39.39.66.39.36 0 .63-.37.63-.73-.02-.82-.19-1.51-.45-2.09Zm-1.27 3.72c-.9-.34-1.72-.47-2.45-.45h-.07c-.73.01-1.38.17-1.95.41-.42.18-.8.4-1.13.64-.22.16-.41.33-.58.5-.26.25-.47.5-.62.72-.18.36-.09.72.18.9.09.06.2.09.31.09.26.04.55-.06.69-.27.06-.11.17-.25.3-.39.38-.42 1.01-.9 1.79-1.12 0 .09.02.21.04.35s.04.3.04.44c0 .41 0 .81-.11 1.18-.04.13-.09.25-.16.36-.04.09-.07.18-.07.27-.01.09.01.17.04.25.05.16.17.3.3.39.11.05.22.06.33.06.28.03.53-.12.67-.34.09-.18.17-.36.22-.55.12-.38.17-.76.18-1.12 0-.17-.01-.34-.04-.5 0-.27 0-.54-.09-.81.09 0 .18.01.27.02.37.06.78.2 1.18.33.11.06.22.07.33.06.27.03.53-.13.67-.42l.09-.09c.09-.36 0-.73-.36-.91Zm0 0c-.9-.34-1.72-.47-2.45-.45h-.07c-.73.01-1.38.17-1.95.41-.42.18-.8.4-1.13.64-.22.16-.41.33-.58.5-.26.25-.47.5-.62.72-.18.36-.09.72.18.9.09.06.2.09.31.09.26.04.55-.06.69-.27.06-.11.17-.25.3-.39.38-.42 1.01-.9 1.79-1.12 0 .09.02.21.04.35s.04.3.04.44c0 .41 0 .81-.11 1.18-.04.13-.09.25-.16.36-.04.09-.07.18-.07.27-.01.09.01.17.04.25.05.16.17.3.3.39.11.05.22.06.33.06.28.03.53-.12.67-.34.09-.18.17-.36.22-.55.12-.38.17-.76.18-1.12 0-.17-.01-.34-.04-.5 0-.27 0-.54-.09-.81.09 0 .18.01.27.02.37.06.78.2 1.18.33.11.06.22.07.33.06.27.03.53-.13.67-.42l.09-.09c.09-.36 0-.73-.36-.91Zm1.27-3.72c-.79-1.74-2.4-2.49-3.36-2.63-.36 0-.72.19-.81.55 0 .28.11.55.32.71.08.09.18.16.31.2.41.04 1.07.29 1.62.82.56.54 1.01 1.35 1.01 2.53 0 .09.03.18.07.25.11.23.39.39.66.39.36 0 .63-.37.63-.73-.02-.82-.19-1.51-.45-2.09Zm1.36 10.53v-.19c-.73-.54-1.63-.81-2.18-.9-.09 0-.18.01-.26.03-.09.02-.17.06-.25.1a.64.64 0 0 0-.29.39c-.01-.02-.01-.04-.01-.07v.27c0-.01.01-.02.02-.03.03.22.12.42.28.55.07.06.15.1.24.12.35 0 .96.25 1.49.6l-.13.12c-.27.19-.54.37-.81.46-.3 0-.53.31-.55.62a.66.66 0 0 0 0 .28c0 .37.45.64.82.55.63-.09 1.09-.45 1.45-.73l.18-.18c.18.27.27.55.27.82 0 .09.03.17.06.25.12.23.4.38.67.38.36 0 .63-.36.63-.72v-.09c-.09-1.27-.81-2.09-1.63-2.63ZM17 11.68c-.25-1.02-.66-1.81-1.13-2.39-.1-.12-.2-.23-.3-.34-.2-.2-.41-.38-.62-.53-.11-.07-.21-.14-.32-.2-.22-.13-.43-.23-.64-.31-.48-.17-.94-.24-1.31-.23-.11 0-.21 0-.3.01l.06.03c-.3.07-.52.37-.52.69 0 .01.01.03.01.04 0 .02-.01.03-.01.05 0 .36.37.64.73.64.35 0 1.23.09 2.04.95-.18.24-.43.41-.77.5-.36.18-.82.18-1.09.18s-.54.15-.66.38c-.04.08-.07.16-.07.25 0 .02.01.04.01.06 0 .01-.01.02-.01.04 0 .36.28.72.64.72.45 0 1 0 1.63-.27.36-.09.73-.36 1-.64 0 .19.18.46.18.73.09.36.45.54.82.45.29-.07.46-.33.46-.62 0-.01.01-.01.01-.02.01-.08 0-.17-.02-.26l.18.09Zm0 0c-.25-1.02-.66-1.81-1.13-2.39-.1-.12-.2-.23-.3-.34-.2-.2-.41-.38-.62-.53-.11-.07-.21-.14-.32-.2-.22-.13-.43-.23-.64-.31-.48-.17-.94-.24-1.31-.23-.11 0-.21 0-.3.01l.06.03c-.3.07-.52.37-.52.69 0 .01.01.03.01.04 0 .02-.01.03-.01.05 0 .36.37.64.73.64.35 0 1.23.09 2.04.95-.18.24-.43.41-.77.5-.36.18-.82.18-1.09.18s-.54.15-.66.38c-.04.08-.07.16-.07.25 0 .02.01.04.01.06 0 .01-.01.02-.01.04 0 .36.28.72.64.72.45 0 1 0 1.63-.27.36-.09.73-.36 1-.64 0 .19.18.46.18.73.09.36.45.54.82.45.29-.07.46-.33.46-.62 0-.01.01-.01.01-.02.01-.08 0-.17-.02-.26l.18.09Zm-2.81 12.79v-.19c-.73-.54-1.63-.81-2.18-.9-.09 0-.18.01-.26.03-.09.02-.17.06-.25.1a.64.64 0 0 0-.29.39c-.01-.02-.01-.04-.01-.07v.27c0-.01.01-.02.02-.03.03.22.12.42.28.55.07.06.15.1.24.12.35 0 .96.25 1.49.6l-.13.12c-.27.19-.54.37-.81.46-.3 0-.53.31-.55.62a.66.66 0 0 0 0 .28c0 .37.45.64.82.55.63-.09 1.09-.45 1.45-.73l.18-.18c.18.27.27.55.27.82 0 .09.03.17.06.25.12.23.4.38.67.38.36 0 .63-.36.63-.72v-.09c-.09-1.27-.81-2.09-1.63-2.63Zm-1.36-10.53c-.79-1.74-2.4-2.49-3.36-2.63-.36 0-.72.19-.81.55 0 .28.11.55.32.71.08.09.18.16.31.2.41.04 1.07.29 1.62.82.56.54 1.01 1.35 1.01 2.53 0 .09.03.18.07.25.11.23.39.39.66.39.36 0 .63-.37.63-.73-.02-.82-.19-1.51-.45-2.09Zm-1.27 3.72c-.9-.34-1.72-.47-2.45-.45h-.07c-.73.01-1.38.17-1.95.41-.42.18-.8.4-1.13.64-.22.16-.41.33-.58.5-.26.25-.47.5-.62.72-.18.36-.09.72.18.9.09.06.2.09.31.09.26.04.55-.06.69-.27.06-.11.17-.25.3-.39.38-.42 1.01-.9 1.79-1.12 0 .09.02.21.04.35s.04.3.04.44c0 .41 0 .81-.11 1.18-.04.13-.09.25-.16.36-.04.09-.07.18-.07.27-.01.09.01.17.04.25.05.16.17.3.3.39.11.05.22.06.33.06.28.03.53-.12.67-.34.09-.18.17-.36.22-.55.12-.38.17-.76.18-1.12 0-.17-.01-.34-.04-.5 0-.27 0-.54-.09-.81.09 0 .18.01.27.02.37.06.78.2 1.18.33.11.06.22.07.33.06.27.03.53-.13.67-.42l.09-.09c.09-.36 0-.73-.36-.91Zm0 0c-.9-.34-1.72-.47-2.45-.45h-.07c-.73.01-1.38.17-1.95.41-.42.18-.8.4-1.13.64-.22.16-.41.33-.58.5-.26.25-.47.5-.62.72-.18.36-.09.72.18.9.09.06.2.09.31.09.26.04.55-.06.69-.27.06-.11.17-.25.3-.39.38-.42 1.01-.9 1.79-1.12 0 .09.02.21.04.35s.04.3.04.44c0 .41 0 .81-.11 1.18-.04.13-.09.25-.16.36-.04.09-.07.18-.07.27-.01.09.01.17.04.25.05.16.17.3.3.39.11.05.22.06.33.06.28.03.53-.12.67-.34.09-.18.17-.36.22-.55.12-.38.17-.76.18-1.12 0-.17-.01-.34-.04-.5 0-.27 0-.54-.09-.81.09 0 .18.01.27.02.37.06.78.2 1.18.33.11.06.22.07.33.06.27.03.53-.13.67-.42l.09-.09c.09-.36 0-.73-.36-.91Zm1.27-3.72c-.79-1.74-2.4-2.49-3.36-2.63-.36 0-.72.19-.81.55 0 .28.11.55.32.71.08.09.18.16.31.2.41.04 1.07.29 1.62.82.56.54 1.01 1.35 1.01 2.53 0 .09.03.18.07.25.11.23.39.39.66.39.36 0 .63-.37.63-.73-.02-.82-.19-1.51-.45-2.09Zm1.36 10.53v-.19c-.73-.54-1.63-.81-2.18-.9-.09 0-.18.01-.26.03-.09.02-.17.06-.25.1a.64.64 0 0 0-.29.39c-.01-.02-.01-.04-.01-.07v.27c0-.01.01-.02.02-.03.03.22.12.42.28.55.07.06.15.1.24.12.35 0 .96.25 1.49.6l-.13.12c-.27.19-.54.37-.81.46-.3 0-.53.31-.55.62a.66.66 0 0 0 0 .28c0 .37.45.64.82.55.63-.09 1.09-.45 1.45-.73l.18-.18c.18.27.27.55.27.82 0 .09.03.17.06.25.12.23.4.38.67.38.36 0 .63-.36.63-.72v-.09c-.09-1.27-.81-2.09-1.63-2.63ZM17 11.68c-.25-1.02-.66-1.81-1.13-2.39-.1-.12-.2-.23-.3-.34-.2-.2-.41-.38-.62-.53-.11-.07-.21-.14-.32-.2-.22-.13-.43-.23-.64-.31-.48-.17-.94-.24-1.31-.23-.11 0-.21 0-.3.01l.06.03c-.3.07-.52.37-.52.69 0 .01.01.03.01.04 0 .02-.01.03-.01.05 0 .36.37.64.73.64.35 0 1.23.09 2.04.95-.18.24-.43.41-.77.5-.36.18-.82.18-1.09.18s-.54.15-.66.38c-.04.08-.07.16-.07.25 0 .02.01.04.01.06 0 .01-.01.02-.01.04 0 .36.28.72.64.72.45 0 1 0 1.63-.27.36-.09.73-.36 1-.64 0 .19.18.46.18.73.09.36.45.54.82.45.29-.07.46-.33.46-.62 0-.01.01-.01.01-.02.01-.08 0-.17-.02-.26l.18.09Zm0 0c-.25-1.02-.66-1.81-1.13-2.39-.1-.12-.2-.23-.3-.34-.2-.2-.41-.38-.62-.53-.11-.07-.21-.14-.32-.2-.22-.13-.43-.23-.64-.31-.48-.17-.94-.24-1.31-.23-.11 0-.21 0-.3.01l.06.03c-.3.07-.52.37-.52.69 0 .01.01.03.01.04 0 .02-.01.03-.01.05 0 .36.37.64.73.64.35 0 1.23.09 2.04.95-.18.24-.43.41-.77.5-.36.18-.82.18-1.09.18s-.54.15-.66.38c-.04.08-.07.16-.07.25 0 .02.01.04.01.06 0 .01-.01.02-.01.04 0 .36.28.72.64.72.45 0 1 0 1.63-.27.36-.09.73-.36 1-.64 0 .19.18.46.18.73.09.36.45.54.82.45.29-.07.46-.33.46-.62 0-.01.01-.01.01-.02.01-.08 0-.17-.02-.26l.18.09Zm-2.81 12.79v-.19c-.73-.54-1.63-.81-2.18-.9-.09 0-.18.01-.26.03-.09.02-.17.06-.25.1a.64.64 0 0 0-.29.39c-.01-.02-.01-.04-.01-.07v.27c0-.01.01-.02.02-.03.03.22.12.42.28.55.07.06.15.1.24.12.35 0 .96.25 1.49.6l-.13.12c-.27.19-.54.37-.81.46-.3 0-.53.31-.55.62a.66.66 0 0 0 0 .28c0 .37.45.64.82.55.63-.09 1.09-.45 1.45-.73l.18-.18c.18.27.27.55.27.82 0 .09.03.17.06.25.12.23.4.38.67.38.36 0 .63-.36.63-.72v-.09c-.09-1.27-.81-2.09-1.63-2.63Zm-1.36-10.53c-.79-1.74-2.4-2.49-3.36-2.63-.36 0-.72.19-.81.55 0 .28.11.55.32.71.08.09.18.16.31.2.41.04 1.07.29 1.62.82.56.54 1.01 1.35 1.01 2.53 0 .09.03.18.07.25.11.23.39.39.66.39.36 0 .63-.37.63-.73-.02-.82-.19-1.51-.45-2.09Zm-1.27 3.72c-.9-.34-1.72-.47-2.45-.45h-.07c-.73.01-1.38.17-1.95.41-.42.18-.8.4-1.13.64-.22.16-.41.33-.58.5-.26.25-.47.5-.62.72-.18.36-.09.72.18.9.09.06.2.09.31.09.26.04.55-.06.69-.27.06-.11.17-.25.3-.39.38-.42 1.01-.9 1.79-1.12 0 .09.02.21.04.35s.04.3.04.44c0 .41 0 .81-.11 1.18-.04.13-.09.25-.16.36-.04.09-.07.18-.07.27-.01.09.01.17.04.25.05.16.17.3.3.39.11.05.22.06.33.06.28.03.53-.12.67-.34.09-.18.17-.36.22-.55.12-.38.17-.76.18-1.12 0-.17-.01-.34-.04-.5 0-.27 0-.54-.09-.81.09 0 .18.01.27.02.37.06.78.2 1.18.33.11.06.22.07.33.06.27.03.53-.13.67-.42l.09-.09c.09-.36 0-.73-.36-.91Zm0 0c-.9-.34-1.72-.47-2.45-.45h-.07c-.73.01-1.38.17-1.95.41-.42.18-.8.4-1.13.64-.22.16-.41.33-.58.5-.26.25-.47.5-.62.72-.18.36-.09.72.18.9.09.06.2.09.31.09.26.04.55-.06.69-.27.06-.11.17-.25.3-.39.38-.42 1.01-.9 1.79-1.12 0 .09.02.21.04.35s.04.3.04.44c0 .41 0 .81-.11 1.18-.04.13-.09.25-.16.36-.04.09-.07.18-.07.27-.01.09.01.17.04.25.05.16.17.3.3.39.11.05.22.06.33.06.28.03.53-.12.67-.34.09-.18.17-.36.22-.55.12-.38.17-.76.18-1.12 0-.17-.01-.34-.04-.5 0-.27 0-.54-.09-.81.09 0 .18.01.27.02.37.06.78.2 1.18.33.11.06.22.07.33.06.27.03.53-.13.67-.42l.09-.09c.09-.36 0-.73-.36-.91Zm1.27-3.72c-.79-1.74-2.4-2.49-3.36-2.63-.36 0-.72.19-.81.55 0 .28.11.55.32.71.08.09.18.16.31.2.41.04 1.07.29 1.62.82.56.54 1.01 1.35 1.01 2.53 0 .09.03.18.07.25.11.23.39.39.66.39.36 0 .63-.37.63-.73-.02-.82-.19-1.51-.45-2.09Zm1.36 10.53v-.19c-.73-.54-1.63-.81-2.18-.9-.09 0-.18.01-.26.03-.09.02-.17.06-.25.1a.64.64 0 0 0-.29.39c-.01-.02-.01-.04-.01-.07v.27c0-.01.01-.02.02-.03.03.22.12.42.28.55.07.06.15.1.24.12.35 0 .96.25 1.49.6l-.13.12c-.27.19-.54.37-.81.46-.3 0-.53.31-.55.62a.66.66 0 0 0 0 .28c0 .37.45.64.82.55.63-.09 1.09-.45 1.45-.73l.18-.18c.18.27.27.55.27.82 0 .09.03.17.06.25.12.23.4.38.67.38.36 0 .63-.36.63-.72v-.09c-.09-1.27-.81-2.09-1.63-2.63ZM17 11.68c-.25-1.02-.66-1.81-1.13-2.39-.1-.12-.2-.23-.3-.34-.2-.2-.41-.38-.62-.53-.11-.07-.21-.14-.32-.2-.22-.13-.43-.23-.64-.31-.48-.17-.94-.24-1.31-.23-.11 0-.21 0-.3.01l.06.03c-.3.07-.52.37-.52.69 0 .01.01.03.01.04 0 .02-.01.03-.01.05 0 .36.37.64.73.64.35 0 1.23.09 2.04.95-.18.24-.43.41-.77.5-.36.18-.82.18-1.09.18s-.54.15-.66.38c-.04.08-.07.16-.07.25 0 .02.01.04.01.06 0 .01-.01.02-.01.04 0 .36.28.72.64.72.45 0 1 0 1.63-.27.36-.09.73-.36 1-.64 0 .19.18.46.18.73.09.36.45.54.82.45.29-.07.46-.33.46-.62 0-.01.01-.01.01-.02.01-.08 0-.17-.02-.26l.18.09Zm0 0c-.25-1.02-.66-1.81-1.13-2.39-.1-.12-.2-.23-.3-.34-.2-.2-.41-.38-.62-.53-.11-.07-.21-.14-.32-.2-.22-.13-.43-.23-.64-.31-.48-.17-.94-.24-1.31-.23-.11 0-.21 0-.3.01l.06.03c-.3.07-.52.37-.52.69 0 .01.01.03.01.04 0 .02-.01.03-.01.05 0 .36.37.64.73.64.35 0 1.23.09 2.04.95-.18.24-.43.41-.77.5-.36.18-.82.18-1.09.18s-.54.15-.66.38c-.04.08-.07.16-.07.25 0 .02.01.04.01.06 0 .01-.01.02-.01.04 0 .36.28.72.64.72.45 0 1 0 1.63-.27.36-.09.73-.36 1-.64 0 .19.18.46.18.73.09.36.45.54.82.45.29-.07.46-.33.46-.62 0-.01.01-.01.01-.02.01-.08 0-.17-.02-.26l.18.09Zm-2.81 12.79v-.19c-.73-.54-1.63-.81-2.18-.9-.09 0-.18.01-.26.03-.09.02-.17.06-.25.1a.64.64 0 0 0-.29.39c-.01-.02-.01-.04-.01-.07v.27c0-.01.01-.02.02-.03.03.22.12.42.28.55.07.06.15.1.24.12.35 0 .96.25 1.49.6l-.13.12c-.27.19-.54.37-.81.46-.3 0-.53.31-.55.62a.66.66 0 0 0 0 .28c0 .37.45.64.82.55.63-.09 1.09-.45 1.45-.73l.18-.18c.18.27.27.55.27.82 0 .09.03.17.06.25.12.23.4.38.67.38.36 0 .63-.36.63-.72v-.09c-.09-1.27-.81-2.09-1.63-2.63Zm-1.36-10.53c-.79-1.74-2.4-2.49-3.36-2.63-.36 0-.72.19-.81.55 0 .28.11.55.32.71.08.09.18.16.31.2.41.04 1.07.29 1.62.82.56.54 1.01 1.35 1.01 2.53 0 .09.03.18.07.25.11.23.39.39.66.39.36 0 .63-.37.63-.73-.02-.82-.19-1.51-.45-2.09Zm-1.27 3.72c-.9-.34-1.72-.47-2.45-.45h-.07c-.73.01-1.38.17-1.95.41-.42.18-.8.4-1.13.64-.22.16-.41.33-.58.5-.26.25-.47.5-.62.72-.18.36-.09.72.18.9.09.06.2.09.31.09.26.04.55-.06.69-.27.06-.11.17-.25.3-.39.38-.42 1.01-.9 1.79-1.12 0 .09.02.21.04.35s.04.3.04.44c0 .41 0 .81-.11 1.18-.04.13-.09.25-.16.36-.04.09-.07.18-.07.27-.01.09.01.17.04.25.05.16.17.3.3.39.11.05.22.06.33.06.28.03.53-.12.67-.34.09-.18.17-.36.22-.55.12-.38.17-.76.18-1.12 0-.17-.01-.34-.04-.5 0-.27 0-.54-.09-.81.09 0 .18.01.27.02.37.06.78.2 1.18.33.11.06.22.07.33.06.27.03.53-.13.67-.42l.09-.09c.09-.36 0-.73-.36-.91Zm0 0c-.9-.34-1.72-.47-2.45-.45h-.07c-.73.01-1.38.17-1.95.41-.42.18-.8.4-1.13.64-.22.16-.41.33-.58.5-.26.25-.47.5-.62.72-.18.36-.09.72.18.9.09.06.2.09.31.09.26.04.55-.06.69-.27.06-.11.17-.25.3-.39.38-.42 1.01-.9 1.79-1.12 0 .09.02.21.04.35s.04.3.04.44c0 .41 0 .81-.11 1.18-.04.13-.09.25-.16.36-.04.09-.07.18-.07.27-.01.09.01.17.04.25.05.16.17.3.3.39.11.05.22.06.33.06.28.03.53-.12.67-.34.09-.18.17-.36.22-.55.12-.38.17-.76.18-1.12 0-.17-.01-.34-.04-.5 0-.27 0-.54-.09-.81.09 0 .18.01.27.02.37.06.78.2 1.18.33.11.06.22.07.33.06.27.03.53-.13.67-.42l.09-.09c.09-.36 0-.73-.36-.91Zm1.27-3.72c-.79-1.74-2.4-2.49-3.36-2.63-.36 0-.72.19-.81.55 0 .28.11.55.32.71.08.09.18.16.31.2.41.04 1.07.29 1.62.82.56.54 1.01 1.35 1.01 2.53 0 .09.03.18.07.25.11.23.39.39.66.39.36 0 .63-.37.63-.73-.02-.82-.19-1.51-.45-2.09Zm1.36 10.53v-.19c-.73-.54-1.63-.81-2.18-.9-.09 0-.18.01-.26.03-.09.02-.17.06-.25.1a.64.64 0 0 0-.29.39c-.01-.02-.01-.04-.01-.07v.27c0-.01.01-.02.02-.03.03.22.12.42.28.55.07.06.15.1.24.12.35 0 .96.25 1.49.6l-.13.12c-.27.19-.54.37-.81.46-.3 0-.53.31-.55.62a.66.66 0 0 0 0 .28c0 .37.45.64.82.55.63-.09 1.09-.45 1.45-.73l.18-.18c.18.27.27.55.27.82 0 .09.03.17.06.25.12.23.4.38.67.38.36 0 .63-.36.63-.72v-.09c-.09-1.27-.81-2.09-1.63-2.63ZM17 11.68c-.25-1.02-.66-1.81-1.13-2.39-.1-.12-.2-.23-.3-.34-.2-.2-.41-.38-.62-.53-.11-.07-.21-.14-.32-.2-.22-.13-.43-.23-.64-.31-.48-.17-.94-.24-1.31-.23-.11 0-.21 0-.3.01l.06.03c-.3.07-.52.37-.52.69 0 .01.01.03.01.04 0 .02-.01.03-.01.05 0 .36.37.64.73.64.35 0 1.23.09 2.04.95-.18.24-.43.41-.77.5-.36.18-.82.18-1.09.18s-.54.15-.66.38c-.04.08-.07.16-.07.25 0 .02.01.04.01.06 0 .01-.01.02-.01.04 0 .36.28.72.64.72.45 0 1 0 1.63-.27.36-.09.73-.36 1-.64 0 .19.18.46.18.73.09.36.45.54.82.45.29-.07.46-.33.46-.62 0-.01.01-.01.01-.02.01-.08 0-.17-.02-.26l.18.09Zm0 0c-.25-1.02-.66-1.81-1.13-2.39-.1-.12-.2-.23-.3-.34-.2-.2-.41-.38-.62-.53-.11-.07-.21-.14-.32-.2-.22-.13-.43-.23-.64-.31-.48-.17-.94-.24-1.31-.23-.11 0-.21 0-.3.01l.06.03c-.3.07-.52.37-.52.69 0 .01.01.03.01.04 0 .02-.01.03-.01.05 0 .36.37.64.73.64.35 0 1.23.09 2.04.95-.18.24-.43.41-.77.5-.36.18-.82.18-1.09.18s-.54.15-.66.38c-.04.08-.07.16-.07.25 0 .02.01.04.01.06 0 .01-.01.02-.01.04 0 .36.28.72.64.72.45 0 1 0 1.63-.27.36-.09.73-.36 1-.64 0 .19.18.46.18.73.09.36.45.54.82.45.29-.07.46-.33.46-.62 0-.01.01-.01.01-.02.01-.08 0-.17-.02-.26l.18.09Zm-2.81 12.79v-.19c-.73-.54-1.63-.81-2.18-.9-.09 0-.18.01-.26.03-.09.02-.17.06-.25.1a.64.64 0 0 0-.29.39c-.01-.02-.01-.04-.01-.07v.27c0-.01.01-.02.02-.03.03.22.12.42.28.55.07.06.15.1.24.12.35 0 .96.25 1.49.6l-.13.12c-.27.19-.54.37-.81.46-.3 0-.53.31-.55.62a.66.66 0 0 0 0 .28c0 .37.45.64.82.55.63-.09 1.09-.45 1.45-.73l.18-.18c.18.27.27.55.27.82 0 .09.03.17.06.25.12.23.4.38.67.38.36 0 .63-.36.63-.72v-.09c-.09-1.27-.81-2.09-1.63-2.63Zm-4.9-11.7c.41.04 1.07.29 1.62.82.56.54 1.01 1.35 1.01 2.53 0 .09.03.18.07.25.11.23.39.39.66.39.36 0 .63-.37.63-.73-.02-.82-.19-1.51-.45-2.09-.79-1.74-2.4-2.49-3.36-2.63-.36 0-.72.19-.81.55 0 .28.11.55.32.71.08.09.18.16.31.2Zm2.54 5.89.09-.09c.09-.36 0-.73-.36-.91-.9-.34-1.72-.47-2.45-.45h-.07c-.73.01-1.38.17-1.95.41-.42.18-.8.4-1.13.64-.22.16-.41.33-.58.5-.26.25-.47.5-.62.72-.18.36-.09.72.18.9.09.06.2.09.31.09.26.04.55-.06.69-.27.06-.11.17-.25.3-.39.38-.42 1.01-.9 1.79-1.12 0 .09.02.21.04.35s.04.3.04.44c0 .41 0 .81-.11 1.18-.04.13-.09.25-.16.36-.04.09-.07.18-.07.27-.01.09.01.17.04.25.05.16.17.3.3.39.11.05.22.06.33.06.28.03.53-.12.67-.34.09-.18.17-.36.22-.55.12-.38.17-.76.18-1.12 0-.17-.01-.34-.04-.5 0-.27 0-.54-.09-.81.09 0 .18.01.27.02.37.06.78.2 1.18.33.11.06.22.07.33.06.27.03.53-.13.67-.42Zm19.87 3.6c-1.38 0-2.39.79-2.79 1.93H19V15.4h1.63v2.35c0 .37.27.73.73.73h3.81c.36 1.27 1.45 2.18 2.81 2.18s2.9-1.27 2.9-2.91c0-1.63-1.36-2.9-2.9-2.9s-2.63 1-2.9 2.36h-3.09v-2.36a.71.71 0 0 0-.72-.72h-2.36v-2.54h9.88c.28 1.36 1.46 2.35 2.91 2.35s2.9-1.27 2.9-2.9-1.36-2.9-2.9-2.9c-1.55 0-2.54.91-2.82 2.18H19V8.41h2.99c.36 0 .73-.27.73-.72V4.78h2.36c.27 1.36 1.45 2.45 2.9 2.45s2.9-1.36 2.9-2.9-1.36-2.9-2.9-2.9-2.45.9-2.81 2.08h-3.18c-.36 0-.72.28-.72.73v2.9H19V3.6c0-.9-.37-1.81-1.09-2.45-.73-.63-1.72-.99-2.99-.81-1.55.27-2.54 1.63-2.73 2.99-.54 0-1.08 0-1.72.18-.81.28-1.63.91-1.99 2.09-.64-.09-1.27 0-2 .27-1.27.73-1.81 1.91-1.72 3.09 0 .27 0 .45.09.72-.55.18-1.09.64-1.45 1.18-.46.73-.64 1.72-.19 2.81-.45.18-.81.46-.99.82-.37.45-.46 1-.46 1.45s.09.91.28 1.36c0 .09.09.18.18.36-.82.55-1.36 1.45-1.36 2.54s.45 2.09 1.08 2.63c.37.37.73.55 1.09.73-.45.91-.27 1.99.18 2.72.46.73 1.09 1.27 1.91 1.45V28c0 .64.36 1.18.73 1.64.36.36.9.72 1.45.81h.54c0 .64.27 1.36.82 1.91.9.9 1.99 1.18 2.9 1.09.36 0 .73-.09 1.09-.28.18.91.81 1.73 1.72 2.18 1.27.55 2.45.45 3.27-.18a2.86 2.86 0 0 0 1.27-2.36v-3.08h2.63v1.99c0 .37.27.73.72.73h2.67l.01.11c.36 1.27 1.45 2.18 2.81 2.18s2.9-1.27 2.9-2.9c0-1.64-1.36-2.91-2.9-2.91-1.5 0-2.56.95-2.87 2.25h-1.89v-2c0-.36-.27-.72-.73-.72H19v-2.54h9.9c.37 1.25 1.45 2.14 2.8 2.14 1.36 0 2.9-1.27 2.9-2.9s-1.36-2.9-2.9-2.9Zm-3.72-6.14c.9 0 1.63.73 1.63 1.63a1.635 1.635 0 1 1-1.63-1.63Zm3.72-6.71c.9 0 1.63.72 1.63 1.63s-.73 1.63-1.63 1.63c-.91 0-1.64-.72-1.64-1.63s.73-1.63 1.64-1.63Zm-3.72-6.8c.9 0 1.63.72 1.63 1.63s-.73 1.63-1.63 1.63c-.91 0-1.64-.72-1.64-1.63s.73-1.63 1.64-1.63ZM16.37 19.3c0-.91-.46-1.64-.73-2.09a.652.652 0 0 0-.91-.27c-.36.18-.45.63-.27.9.18.37.46.91.55 1.64 0 .54 0 1-.28 1.45-.54-.64-.81-1.18-.9-1.54-.09-.37-.46-.55-.82-.46-.36.09-.54.46-.45.82.18.63.72 1.63 1.54 2.45.82.91 2 1.63 3.54 1.99v8.35c0 .45-.27.91-.73 1.27-.45.27-1.09.45-1.9 0-1.36-.55-1.73-3.36.99-4.08.37-.09.64-.46.46-.82 0-.36-.46-.63-.82-.45-1.81.45-2.72 1.63-2.99 2.9-.18.18-.64.45-1.18.45s-1.18-.09-1.81-.72c-.55-.55-.64-1.27-.37-2 .18-.72.73-1.36 1.18-1.63.36-.18.45-.64.27-.91-.18-.36-.54-.45-.9-.27-.82.45-1.55 1.36-1.82 2.36h-.45c-.27 0-.55-.18-.73-.45-.18-.19-.36-.46-.36-.73s0-.64.36-1.09c.28-.27.18-.72-.09-1-.27-.18-.72-.18-1 .09-.09.19-.18.28-.27.46-.45-.09-.9-.37-1.09-.82-.27-.54-.36-1.09 0-1.63.37-.46.91-.55 1.36-.46.55 0 .91.37 1.09.64.18.36.64.45.91.27.36-.18.45-.63.27-.91-.45-.72-1.27-1.17-2.17-1.36-.55 0-1.18 0-1.82.37h-.18c-.27 0-.73-.18-1.09-.55-.36-.27-.63-.81-.63-1.63s.99-1.81 1.9-1.63c.36.09.73-.09.82-.46.09-.36-.09-.72-.46-.81-.27 0-.54-.09-.81 0l-.18-.09s-.19-.18-.28-.37c-.09-.18-.18-.45-.18-.72s0-.46.18-.64c.09-.18.37-.36.73-.45.45.36 1.09.54 1.63.63 1 0 2.09-.27 2.72-1.08.19-.28.19-.73-.18-1-.36-.27-.72-.18-.9.18-.28.36-.82.64-1.46.54-.63 0-1.18-.36-1.36-.99-.27-.73-.18-1.18 0-1.55.18-.36.55-.54.91-.72.18.27.54.54.82.72.36.19.72 0 .9-.27.19-.36 0-.72-.27-.9-.36-.19-.81-.82-.81-1.55 0-.63.18-1.36.99-1.81.64-.18 1.09-.18 1.36-.18.37 0 .64.27.91.54.45.55.64 1.45.45 2.09-.09.36.1.72.46.81.36.1.72-.09.81-.45.28-1.09 0-2.45-.72-3.36l-.55-.54c.19-.82.73-1.18 1.18-1.36.46-.18 1-.18 1.36 0 0 .27.19.64.46.91.45.63 1.18 1.09 2.08 1.36.37 0 .73-.18.82-.55 0-.36-.18-.72-.54-.81-.64-.18-1.09-.46-1.27-.82-.28-.36-.37-.72-.28-1.18 0-.91.73-1.72 1.64-1.9.81-.18 1.36 0 1.81.45.45.36.64.91.64 1.45v19.32l.18.09c-.73-.18-1.36-.54-1.91-.9.55-.82.73-1.73.64-2.54Zm11.38 10.9c.9 0 1.63.73 1.63 1.64 0 .9-.73 1.63-1.63 1.63a1.635 1.635 0 1 1 0-3.27Zm3.95-3.41c-.91 0-1.64-.72-1.64-1.63s.73-1.63 1.64-1.63c.9 0 1.63.72 1.63 1.63s-.73 1.63-1.63 1.63ZM16.83 11.87c0-.01.01-.01.01-.02.01-.08 0-.17-.02-.26l.18.09c-.25-1.02-.66-1.81-1.13-2.39-.1-.12-.2-.23-.3-.34-.2-.2-.41-.38-.62-.53-.11-.07-.21-.14-.32-.2-.22-.13-.43-.23-.64-.31-.48-.17-.94-.24-1.31-.23-.11 0-.21 0-.3.01l.06.03c-.3.07-.52.37-.52.69 0 .01.01.03.01.04 0 .02-.01.03-.01.05 0 .36.37.64.73.64.35 0 1.23.09 2.04.95-.18.24-.43.41-.77.5-.36.18-.82.18-1.09.18s-.54.15-.66.38c-.04.08-.07.16-.07.25 0 .02.01.04.01.06 0 .01-.01.02-.01.04 0 .36.28.72.64.72.45 0 1 0 1.63-.27.36-.09.73-.36 1-.64 0 .19.18.46.18.73.09.36.45.54.82.45.29-.07.46-.33.46-.62Zm-5.08 11.54c-.09.02-.17.06-.25.1a.64.64 0 0 0-.29.39c-.01-.02-.01-.04-.01-.07v.27c0-.01.01-.02.02-.03.03.22.12.42.28.55.07.06.15.1.24.12.35 0 .96.25 1.49.6l-.13.12c-.27.19-.54.37-.81.46-.3 0-.53.31-.55.62a.66.66 0 0 0 0 .28c0 .37.45.64.82.55.63-.09 1.09-.45 1.45-.73l.18-.18c.18.27.27.55.27.82 0 .09.03.17.06.25.12.23.4.38.67.38.36 0 .63-.36.63-.72v-.09c-.09-1.27-.81-2.09-1.63-2.63v-.19c-.73-.54-1.63-.81-2.18-.9-.09 0-.18.01-.26.03Zm-2.28-12.1c-.36 0-.72.19-.81.55 0 .28.11.55.32.71.08.09.18.16.31.2.41.04 1.07.29 1.62.82.56.54 1.01 1.35 1.01 2.53 0 .09.03.18.07.25.11.23.39.39.66.39.36 0 .63-.37.63-.73-.02-.82-.19-1.51-.45-2.09-.79-1.74-2.4-2.49-3.36-2.63Zm2.36 7.35.09-.09c.09-.36 0-.73-.36-.91-.9-.34-1.72-.47-2.45-.45h-.07c-.73.01-1.38.17-1.95.41-.42.18-.8.4-1.13.64-.22.16-.41.33-.58.5-.26.25-.47.5-.62.72-.18.36-.09.72.18.9.09.06.2.09.31.09.26.04.55-.06.69-.27.06-.11.17-.25.3-.39.38-.42 1.01-.9 1.79-1.12 0 .09.02.21.04.35s.04.3.04.44c0 .41 0 .81-.11 1.18-.04.13-.09.25-.16.36-.04.09-.07.18-.07.27-.01.09.01.17.04.25.05.16.17.3.3.39.11.05.22.06.33.06.28.03.53-.12.67-.34.09-.18.17-.36.22-.55.12-.38.17-.76.18-1.12 0-.17-.01-.34-.04-.5 0-.27 0-.54-.09-.81.09 0 .18.01.27.02.37.06.78.2 1.18.33.11.06.22.07.33.06.27.03.53-.13.67-.42Zm-.27-1c-.9-.34-1.72-.47-2.45-.45h-.07c-.73.01-1.38.17-1.95.41-.42.18-.8.4-1.13.64-.22.16-.41.33-.58.5-.26.25-.47.5-.62.72-.18.36-.09.72.18.9.09.06.2.09.31.09.26.04.55-.06.69-.27.06-.11.17-.25.3-.39.38-.42 1.01-.9 1.79-1.12 0 .09.02.21.04.35s.04.3.04.44c0 .41 0 .81-.11 1.18-.04.13-.09.25-.16.36-.04.09-.07.18-.07.27-.01.09.01.17.04.25.05.16.17.3.3.39.11.05.22.06.33.06.28.03.53-.12.67-.34.09-.18.17-.36.22-.55.12-.38.17-.76.18-1.12 0-.17-.01-.34-.04-.5 0-.27 0-.54-.09-.81.09 0 .18.01.27.02.37.06.78.2 1.18.33.11.06.22.07.33.06.27.03.53-.13.67-.42l.09-.09c.09-.36 0-.73-.36-.91Zm1.27-3.72c-.79-1.74-2.4-2.49-3.36-2.63-.36 0-.72.19-.81.55 0 .28.11.55.32.71.08.09.18.16.31.2.41.04 1.07.29 1.62.82.56.54 1.01 1.35 1.01 2.53 0 .09.03.18.07.25.11.23.39.39.66.39.36 0 .63-.37.63-.73-.02-.82-.19-1.51-.45-2.09Zm1.36 10.53v-.19c-.73-.54-1.63-.81-2.18-.9-.09 0-.18.01-.26.03-.09.02-.17.06-.25.1a.64.64 0 0 0-.29.39c-.01-.02-.01-.04-.01-.07v.27c0-.01.01-.02.02-.03.03.22.12.42.28.55.07.06.15.1.24.12.35 0 .96.25 1.49.6l-.13.12c-.27.19-.54.37-.81.46-.3 0-.53.31-.55.62a.66.66 0 0 0 0 .28c0 .37.45.64.82.55.63-.09 1.09-.45 1.45-.73l.18-.18c.18.27.27.55.27.82 0 .09.03.17.06.25.12.23.4.38.67.38.36 0 .63-.36.63-.72v-.09c-.09-1.27-.81-2.09-1.63-2.63ZM17 11.68c-.25-1.02-.66-1.81-1.13-2.39-.1-.12-.2-.23-.3-.34-.2-.2-.41-.38-.62-.53-.11-.07-.21-.14-.32-.2-.22-.13-.43-.23-.64-.31-.48-.17-.94-.24-1.31-.23-.11 0-.21 0-.3.01l.06.03c-.3.07-.52.37-.52.69 0 .01.01.03.01.04 0 .02-.01.03-.01.05 0 .36.37.64.73.64.35 0 1.23.09 2.04.95-.18.24-.43.41-.77.5-.36.18-.82.18-1.09.18s-.54.15-.66.38c-.04.08-.07.16-.07.25 0 .02.01.04.01.06 0 .01-.01.02-.01.04 0 .36.28.72.64.72.45 0 1 0 1.63-.27.36-.09.73-.36 1-.64 0 .19.18.46.18.73.09.36.45.54.82.45.29-.07.46-.33.46-.62 0-.01.01-.01.01-.02.01-.08 0-.17-.02-.26l.18.09Zm0 0c-.25-1.02-.66-1.81-1.13-2.39-.1-.12-.2-.23-.3-.34-.2-.2-.41-.38-.62-.53-.11-.07-.21-.14-.32-.2-.22-.13-.43-.23-.64-.31-.48-.17-.94-.24-1.31-.23-.11 0-.21 0-.3.01l.06.03c-.3.07-.52.37-.52.69 0 .01.01.03.01.04 0 .02-.01.03-.01.05 0 .36.37.64.73.64.35 0 1.23.09 2.04.95-.18.24-.43.41-.77.5-.36.18-.82.18-1.09.18s-.54.15-.66.38c-.04.08-.07.16-.07.25 0 .02.01.04.01.06 0 .01-.01.02-.01.04 0 .36.28.72.64.72.45 0 1 0 1.63-.27.36-.09.73-.36 1-.64 0 .19.18.46.18.73.09.36.45.54.82.45.29-.07.46-.33.46-.62 0-.01.01-.01.01-.02.01-.08 0-.17-.02-.26l.18.09Zm-2.81 12.79v-.19c-.73-.54-1.63-.81-2.18-.9-.09 0-.18.01-.26.03-.09.02-.17.06-.25.1a.64.64 0 0 0-.29.39c-.01-.02-.01-.04-.01-.07v.27c0-.01.01-.02.02-.03.03.22.12.42.28.55.07.06.15.1.24.12.35 0 .96.25 1.49.6l-.13.12c-.27.19-.54.37-.81.46-.3 0-.53.31-.55.62a.66.66 0 0 0 0 .28c0 .37.45.64.82.55.63-.09 1.09-.45 1.45-.73l.18-.18c.18.27.27.55.27.82 0 .09.03.17.06.25.12.23.4.38.67.38.36 0 .63-.36.63-.72v-.09c-.09-1.27-.81-2.09-1.63-2.63Zm-1.36-10.53c-.79-1.74-2.4-2.49-3.36-2.63-.36 0-.72.19-.81.55 0 .28.11.55.32.71.08.09.18.16.31.2.41.04 1.07.29 1.62.82.56.54 1.01 1.35 1.01 2.53 0 .09.03.18.07.25.11.23.39.39.66.39.36 0 .63-.37.63-.73-.02-.82-.19-1.51-.45-2.09Zm-1.27 3.72c-.9-.34-1.72-.47-2.45-.45h-.07c-.73.01-1.38.17-1.95.41-.42.18-.8.4-1.13.64-.22.16-.41.33-.58.5-.26.25-.47.5-.62.72-.18.36-.09.72.18.9.09.06.2.09.31.09.26.04.55-.06.69-.27.06-.11.17-.25.3-.39.38-.42 1.01-.9 1.79-1.12 0 .09.02.21.04.35s.04.3.04.44c0 .41 0 .81-.11 1.18-.04.13-.09.25-.16.36-.04.09-.07.18-.07.27-.01.09.01.17.04.25.05.16.17.3.3.39.11.05.22.06.33.06.28.03.53-.12.67-.34.09-.18.17-.36.22-.55.12-.38.17-.76.18-1.12 0-.17-.01-.34-.04-.5 0-.27 0-.54-.09-.81.09 0 .18.01.27.02.37.06.78.2 1.18.33.11.06.22.07.33.06.27.03.53-.13.67-.42l.09-.09c.09-.36 0-.73-.36-.91Zm0 0c-.9-.34-1.72-.47-2.45-.45h-.07c-.73.01-1.38.17-1.95.41-.42.18-.8.4-1.13.64-.22.16-.41.33-.58.5-.26.25-.47.5-.62.72-.18.36-.09.72.18.9.09.06.2.09.31.09.26.04.55-.06.69-.27.06-.11.17-.25.3-.39.38-.42 1.01-.9 1.79-1.12 0 .09.02.21.04.35s.04.3.04.44c0 .41 0 .81-.11 1.18-.04.13-.09.25-.16.36-.04.09-.07.18-.07.27-.01.09.01.17.04.25.05.16.17.3.3.39.11.05.22.06.33.06.28.03.53-.12.67-.34.09-.18.17-.36.22-.55.12-.38.17-.76.18-1.12 0-.17-.01-.34-.04-.5 0-.27 0-.54-.09-.81.09 0 .18.01.27.02.37.06.78.2 1.18.33.11.06.22.07.33.06.27.03.53-.13.67-.42l.09-.09c.09-.36 0-.73-.36-.91Zm1.27-3.72c-.79-1.74-2.4-2.49-3.36-2.63-.36 0-.72.19-.81.55 0 .28.11.55.32.71.08.09.18.16.31.2.41.04 1.07.29 1.62.82.56.54 1.01 1.35 1.01 2.53 0 .09.03.18.07.25.11.23.39.39.66.39.36 0 .63-.37.63-.73-.02-.82-.19-1.51-.45-2.09Zm1.36 10.53v-.19c-.73-.54-1.63-.81-2.18-.9-.09 0-.18.01-.26.03-.09.02-.17.06-.25.1a.64.64 0 0 0-.29.39c-.01-.02-.01-.04-.01-.07v.27c0-.01.01-.02.02-.03.03.22.12.42.28.55.07.06.15.1.24.12.35 0 .96.25 1.49.6l-.13.12c-.27.19-.54.37-.81.46-.3 0-.53.31-.55.62a.66.66 0 0 0 0 .28c0 .37.45.64.82.55.63-.09 1.09-.45 1.45-.73l.18-.18c.18.27.27.55.27.82 0 .09.03.17.06.25.12.23.4.38.67.38.36 0 .63-.36.63-.72v-.09c-.09-1.27-.81-2.09-1.63-2.63ZM17 11.68c-.25-1.02-.66-1.81-1.13-2.39-.1-.12-.2-.23-.3-.34-.2-.2-.41-.38-.62-.53-.11-.07-.21-.14-.32-.2-.22-.13-.43-.23-.64-.31-.48-.17-.94-.24-1.31-.23-.11 0-.21 0-.3.01l.06.03c-.3.07-.52.37-.52.69 0 .01.01.03.01.04 0 .02-.01.03-.01.05 0 .36.37.64.73.64.35 0 1.23.09 2.04.95-.18.24-.43.41-.77.5-.36.18-.82.18-1.09.18s-.54.15-.66.38c-.04.08-.07.16-.07.25 0 .02.01.04.01.06 0 .01-.01.02-.01.04 0 .36.28.72.64.72.45 0 1 0 1.63-.27.36-.09.73-.36 1-.64 0 .19.18.46.18.73.09.36.45.54.82.45.29-.07.46-.33.46-.62 0-.01.01-.01.01-.02.01-.08 0-.17-.02-.26l.18.09Zm0 0c-.25-1.02-.66-1.81-1.13-2.39-.1-.12-.2-.23-.3-.34-.2-.2-.41-.38-.62-.53-.11-.07-.21-.14-.32-.2-.22-.13-.43-.23-.64-.31-.48-.17-.94-.24-1.31-.23-.11 0-.21 0-.3.01l.06.03c-.3.07-.52.37-.52.69 0 .01.01.03.01.04 0 .02-.01.03-.01.05 0 .36.37.64.73.64.35 0 1.23.09 2.04.95-.18.24-.43.41-.77.5-.36.18-.82.18-1.09.18s-.54.15-.66.38c-.04.08-.07.16-.07.25 0 .02.01.04.01.06 0 .01-.01.02-.01.04 0 .36.28.72.64.72.45 0 1 0 1.63-.27.36-.09.73-.36 1-.64 0 .19.18.46.18.73.09.36.45.54.82.45.29-.07.46-.33.46-.62 0-.01.01-.01.01-.02.01-.08 0-.17-.02-.26l.18.09Zm-2.81 12.79v-.19c-.73-.54-1.63-.81-2.18-.9-.09 0-.18.01-.26.03-.09.02-.17.06-.25.1a.64.64 0 0 0-.29.39c-.01-.02-.01-.04-.01-.07v.27c0-.01.01-.02.02-.03.03.22.12.42.28.55.07.06.15.1.24.12.35 0 .96.25 1.49.6l-.13.12c-.27.19-.54.37-.81.46-.3 0-.53.31-.55.62a.66.66 0 0 0 0 .28c0 .37.45.64.82.55.63-.09 1.09-.45 1.45-.73l.18-.18c.18.27.27.55.27.82 0 .09.03.17.06.25.12.23.4.38.67.38.36 0 .63-.36.63-.72v-.09c-.09-1.27-.81-2.09-1.63-2.63Zm-1.36-10.53c-.79-1.74-2.4-2.49-3.36-2.63-.36 0-.72.19-.81.55 0 .28.11.55.32.71.08.09.18.16.31.2.41.04 1.07.29 1.62.82.56.54 1.01 1.35 1.01 2.53 0 .09.03.18.07.25.11.23.39.39.66.39.36 0 .63-.37.63-.73-.02-.82-.19-1.51-.45-2.09Zm-1.27 3.72c-.9-.34-1.72-.47-2.45-.45h-.07c-.73.01-1.38.17-1.95.41-.42.18-.8.4-1.13.64-.22.16-.41.33-.58.5-.26.25-.47.5-.62.72-.18.36-.09.72.18.9.09.06.2.09.31.09.26.04.55-.06.69-.27.06-.11.17-.25.3-.39.38-.42 1.01-.9 1.79-1.12 0 .09.02.21.04.35s.04.3.04.44c0 .41 0 .81-.11 1.18-.04.13-.09.25-.16.36-.04.09-.07.18-.07.27-.01.09.01.17.04.25.05.16.17.3.3.39.11.05.22.06.33.06.28.03.53-.12.67-.34.09-.18.17-.36.22-.55.12-.38.17-.76.18-1.12 0-.17-.01-.34-.04-.5 0-.27 0-.54-.09-.81.09 0 .18.01.27.02.37.06.78.2 1.18.33.11.06.22.07.33.06.27.03.53-.13.67-.42l.09-.09c.09-.36 0-.73-.36-.91Zm0 0c-.9-.34-1.72-.47-2.45-.45h-.07c-.73.01-1.38.17-1.95.41-.42.18-.8.4-1.13.64-.22.16-.41.33-.58.5-.26.25-.47.5-.62.72-.18.36-.09.72.18.9.09.06.2.09.31.09.26.04.55-.06.69-.27.06-.11.17-.25.3-.39.38-.42 1.01-.9 1.79-1.12 0 .09.02.21.04.35s.04.3.04.44c0 .41 0 .81-.11 1.18-.04.13-.09.25-.16.36-.04.09-.07.18-.07.27-.01.09.01.17.04.25.05.16.17.3.3.39.11.05.22.06.33.06.28.03.53-.12.67-.34.09-.18.17-.36.22-.55.12-.38.17-.76.18-1.12 0-.17-.01-.34-.04-.5 0-.27 0-.54-.09-.81.09 0 .18.01.27.02.37.06.78.2 1.18.33.11.06.22.07.33.06.27.03.53-.13.67-.42l.09-.09c.09-.36 0-.73-.36-.91Zm1.27-3.72c-.79-1.74-2.4-2.49-3.36-2.63-.36 0-.72.19-.81.55 0 .28.11.55.32.71.08.09.18.16.31.2.41.04 1.07.29 1.62.82.56.54 1.01 1.35 1.01 2.53 0 .09.03.18.07.25.11.23.39.39.66.39.36 0 .63-.37.63-.73-.02-.82-.19-1.51-.45-2.09Zm1.36 10.53v-.19c-.73-.54-1.63-.81-2.18-.9-.09 0-.18.01-.26.03-.09.02-.17.06-.25.1a.64.64 0 0 0-.29.39c-.01-.02-.01-.04-.01-.07v.27c0-.01.01-.02.02-.03.03.22.12.42.28.55.07.06.15.1.24.12.35 0 .96.25 1.49.6l-.13.12c-.27.19-.54.37-.81.46-.3 0-.53.31-.55.62a.66.66 0 0 0 0 .28c0 .37.45.64.82.55.63-.09 1.09-.45 1.45-.73l.18-.18c.18.27.27.55.27.82 0 .09.03.17.06.25.12.23.4.38.67.38.36 0 .63-.36.63-.72v-.09c-.09-1.27-.81-2.09-1.63-2.63ZM17 11.68c-.25-1.02-.66-1.81-1.13-2.39-.1-.12-.2-.23-.3-.34-.2-.2-.41-.38-.62-.53-.11-.07-.21-.14-.32-.2-.22-.13-.43-.23-.64-.31-.48-.17-.94-.24-1.31-.23-.11 0-.21 0-.3.01l.06.03c-.3.07-.52.37-.52.69 0 .01.01.03.01.04 0 .02-.01.03-.01.05 0 .36.37.64.73.64.35 0 1.23.09 2.04.95-.18.24-.43.41-.77.5-.36.18-.82.18-1.09.18s-.54.15-.66.38c-.04.08-.07.16-.07.25 0 .02.01.04.01.06 0 .01-.01.02-.01.04 0 .36.28.72.64.72.45 0 1 0 1.63-.27.36-.09.73-.36 1-.64 0 .19.18.46.18.73.09.36.45.54.82.45.29-.07.46-.33.46-.62 0-.01.01-.01.01-.02.01-.08 0-.17-.02-.26l.18.09Zm0 0c-.25-1.02-.66-1.81-1.13-2.39-.1-.12-.2-.23-.3-.34-.2-.2-.41-.38-.62-.53-.11-.07-.21-.14-.32-.2-.22-.13-.43-.23-.64-.31-.48-.17-.94-.24-1.31-.23-.11 0-.21 0-.3.01l.06.03c-.3.07-.52.37-.52.69 0 .01.01.03.01.04 0 .02-.01.03-.01.05 0 .36.37.64.73.64.35 0 1.23.09 2.04.95-.18.24-.43.41-.77.5-.36.18-.82.18-1.09.18s-.54.15-.66.38c-.04.08-.07.16-.07.25 0 .02.01.04.01.06 0 .01-.01.02-.01.04 0 .36.28.72.64.72.45 0 1 0 1.63-.27.36-.09.73-.36 1-.64 0 .19.18.46.18.73.09.36.45.54.82.45.29-.07.46-.33.46-.62 0-.01.01-.01.01-.02.01-.08 0-.17-.02-.26l.18.09Zm-2.81 12.79v-.19c-.73-.54-1.63-.81-2.18-.9-.09 0-.18.01-.26.03-.09.02-.17.06-.25.1a.64.64 0 0 0-.29.39c-.01-.02-.01-.04-.01-.07v.27c0-.01.01-.02.02-.03.03.22.12.42.28.55.07.06.15.1.24.12.35 0 .96.25 1.49.6l-.13.12c-.27.19-.54.37-.81.46-.3 0-.53.31-.55.62a.66.66 0 0 0 0 .28c0 .37.45.64.82.55.63-.09 1.09-.45 1.45-.73l.18-.18c.18.27.27.55.27.82 0 .09.03.17.06.25.12.23.4.38.67.38.36 0 .63-.36.63-.72v-.09c-.09-1.27-.81-2.09-1.63-2.63Zm-1.36-10.53c-.79-1.74-2.4-2.49-3.36-2.63-.36 0-.72.19-.81.55 0 .28.11.55.32.71.08.09.18.16.31.2.41.04 1.07.29 1.62.82.56.54 1.01 1.35 1.01 2.53 0 .09.03.18.07.25.11.23.39.39.66.39.36 0 .63-.37.63-.73-.02-.82-.19-1.51-.45-2.09Zm-1.27 3.72c-.9-.34-1.72-.47-2.45-.45h-.07c-.73.01-1.38.17-1.95.41-.42.18-.8.4-1.13.64-.22.16-.41.33-.58.5-.26.25-.47.5-.62.72-.18.36-.09.72.18.9.09.06.2.09.31.09.26.04.55-.06.69-.27.06-.11.17-.25.3-.39.38-.42 1.01-.9 1.79-1.12 0 .09.02.21.04.35s.04.3.04.44c0 .41 0 .81-.11 1.18-.04.13-.09.25-.16.36-.04.09-.07.18-.07.27-.01.09.01.17.04.25.05.16.17.3.3.39.11.05.22.06.33.06.28.03.53-.12.67-.34.09-.18.17-.36.22-.55.12-.38.17-.76.18-1.12 0-.17-.01-.34-.04-.5 0-.27 0-.54-.09-.81.09 0 .18.01.27.02.37.06.78.2 1.18.33.11.06.22.07.33.06.27.03.53-.13.67-.42l.09-.09c.09-.36 0-.73-.36-.91Zm0 0c-.9-.34-1.72-.47-2.45-.45h-.07c-.73.01-1.38.17-1.95.41-.42.18-.8.4-1.13.64-.22.16-.41.33-.58.5-.26.25-.47.5-.62.72-.18.36-.09.72.18.9.09.06.2.09.31.09.26.04.55-.06.69-.27.06-.11.17-.25.3-.39.38-.42 1.01-.9 1.79-1.12 0 .09.02.21.04.35s.04.3.04.44c0 .41 0 .81-.11 1.18-.04.13-.09.25-.16.36-.04.09-.07.18-.07.27-.01.09.01.17.04.25.05.16.17.3.3.39.11.05.22.06.33.06.28.03.53-.12.67-.34.09-.18.17-.36.22-.55.12-.38.17-.76.18-1.12 0-.17-.01-.34-.04-.5 0-.27 0-.54-.09-.81.09 0 .18.01.27.02.37.06.78.2 1.18.33.11.06.22.07.33.06.27.03.53-.13.67-.42l.09-.09c.09-.36 0-.73-.36-.91Zm1.27-3.72c-.79-1.74-2.4-2.49-3.36-2.63-.36 0-.72.19-.81.55 0 .28.11.55.32.71.08.09.18.16.31.2.41.04 1.07.29 1.62.82.56.54 1.01 1.35 1.01 2.53 0 .09.03.18.07.25.11.23.39.39.66.39.36 0 .63-.37.63-.73-.02-.82-.19-1.51-.45-2.09Zm1.36 10.53v-.19c-.73-.54-1.63-.81-2.18-.9-.09 0-.18.01-.26.03-.09.02-.17.06-.25.1a.64.64 0 0 0-.29.39c-.01-.02-.01-.04-.01-.07v.27c0-.01.01-.02.02-.03.03.22.12.42.28.55.07.06.15.1.24.12.35 0 .96.25 1.49.6l-.13.12c-.27.19-.54.37-.81.46-.3 0-.53.31-.55.62a.66.66 0 0 0 0 .28c0 .37.45.64.82.55.63-.09 1.09-.45 1.45-.73l.18-.18c.18.27.27.55.27.82 0 .09.03.17.06.25.12.23.4.38.67.38.36 0 .63-.36.63-.72v-.09c-.09-1.27-.81-2.09-1.63-2.63ZM17 11.68c-.25-1.02-.66-1.81-1.13-2.39-.1-.12-.2-.23-.3-.34-.2-.2-.41-.38-.62-.53-.11-.07-.21-.14-.32-.2-.22-.13-.43-.23-.64-.31-.48-.17-.94-.24-1.31-.23-.11 0-.21 0-.3.01l.06.03c-.3.07-.52.37-.52.69 0 .01.01.03.01.04 0 .02-.01.03-.01.05 0 .36.37.64.73.64.35 0 1.23.09 2.04.95-.18.24-.43.41-.77.5-.36.18-.82.18-1.09.18s-.54.15-.66.38c-.04.08-.07.16-.07.25 0 .02.01.04.01.06 0 .01-.01.02-.01.04 0 .36.28.72.64.72.45 0 1 0 1.63-.27.36-.09.73-.36 1-.64 0 .19.18.46.18.73.09.36.45.54.82.45.29-.07.46-.33.46-.62 0-.01.01-.01.01-.02.01-.08 0-.17-.02-.26l.18.09Zm0 0c-.25-1.02-.66-1.81-1.13-2.39-.1-.12-.2-.23-.3-.34-.2-.2-.41-.38-.62-.53-.11-.07-.21-.14-.32-.2-.22-.13-.43-.23-.64-.31-.48-.17-.94-.24-1.31-.23-.11 0-.21 0-.3.01l.06.03c-.3.07-.52.37-.52.69 0 .01.01.03.01.04 0 .02-.01.03-.01.05 0 .36.37.64.73.64.35 0 1.23.09 2.04.95-.18.24-.43.41-.77.5-.36.18-.82.18-1.09.18s-.54.15-.66.38c-.04.08-.07.16-.07.25 0 .02.01.04.01.06 0 .01-.01.02-.01.04 0 .36.28.72.64.72.45 0 1 0 1.63-.27.36-.09.73-.36 1-.64 0 .19.18.46.18.73.09.36.45.54.82.45.29-.07.46-.33.46-.62 0-.01.01-.01.01-.02.01-.08 0-.17-.02-.26l.18.09Zm-2.81 12.79v-.19c-.73-.54-1.63-.81-2.18-.9-.09 0-.18.01-.26.03-.09.02-.17.06-.25.1a.64.64 0 0 0-.29.39c-.01-.02-.01-.04-.01-.07v.27c0-.01.01-.02.02-.03.03.22.12.42.28.55.07.06.15.1.24.12.35 0 .96.25 1.49.6l-.13.12c-.27.19-.54.37-.81.46-.3 0-.53.31-.55.62a.66.66 0 0 0 0 .28c0 .37.45.64.82.55.63-.09 1.09-.45 1.45-.73l.18-.18c.18.27.27.55.27.82 0 .09.03.17.06.25.12.23.4.38.67.38.36 0 .63-.36.63-.72v-.09c-.09-1.27-.81-2.09-1.63-2.63Zm-1.36-10.53c-.79-1.74-2.4-2.49-3.36-2.63-.36 0-.72.19-.81.55 0 .28.11.55.32.71.08.09.18.16.31.2.41.04 1.07.29 1.62.82.56.54 1.01 1.35 1.01 2.53 0 .09.03.18.07.25.11.23.39.39.66.39.36 0 .63-.37.63-.73-.02-.82-.19-1.51-.45-2.09Zm-1.27 3.72c-.9-.34-1.72-.47-2.45-.45h-.07c-.73.01-1.38.17-1.95.41-.42.18-.8.4-1.13.64-.22.16-.41.33-.58.5-.26.25-.47.5-.62.72-.18.36-.09.72.18.9.09.06.2.09.31.09.26.04.55-.06.69-.27.06-.11.17-.25.3-.39.38-.42 1.01-.9 1.79-1.12 0 .09.02.21.04.35s.04.3.04.44c0 .41 0 .81-.11 1.18-.04.13-.09.25-.16.36-.04.09-.07.18-.07.27-.01.09.01.17.04.25.05.16.17.3.3.39.11.05.22.06.33.06.28.03.53-.12.67-.34.09-.18.17-.36.22-.55.12-.38.17-.76.18-1.12 0-.17-.01-.34-.04-.5 0-.27 0-.54-.09-.81.09 0 .18.01.27.02.37.06.78.2 1.18.33.11.06.22.07.33.06.27.03.53-.13.67-.42l.09-.09c.09-.36 0-.73-.36-.91Zm0 0c-.9-.34-1.72-.47-2.45-.45h-.07c-.73.01-1.38.17-1.95.41-.42.18-.8.4-1.13.64-.22.16-.41.33-.58.5-.26.25-.47.5-.62.72-.18.36-.09.72.18.9.09.06.2.09.31.09.26.04.55-.06.69-.27.06-.11.17-.25.3-.39.38-.42 1.01-.9 1.79-1.12 0 .09.02.21.04.35s.04.3.04.44c0 .41 0 .81-.11 1.18-.04.13-.09.25-.16.36-.04.09-.07.18-.07.27-.01.09.01.17.04.25.05.16.17.3.3.39.11.05.22.06.33.06.28.03.53-.12.67-.34.09-.18.17-.36.22-.55.12-.38.17-.76.18-1.12 0-.17-.01-.34-.04-.5 0-.27 0-.54-.09-.81.09 0 .18.01.27.02.37.06.78.2 1.18.33.11.06.22.07.33.06.27.03.53-.13.67-.42l.09-.09c.09-.36 0-.73-.36-.91Zm1.27-3.72c-.79-1.74-2.4-2.49-3.36-2.63-.36 0-.72.19-.81.55 0 .28.11.55.32.71.08.09.18.16.31.2.41.04 1.07.29 1.62.82.56.54 1.01 1.35 1.01 2.53 0 .09.03.18.07.25.11.23.39.39.66.39.36 0 .63-.37.63-.73-.02-.82-.19-1.51-.45-2.09Zm1.36 10.53v-.19c-.73-.54-1.63-.81-2.18-.9-.09 0-.18.01-.26.03-.09.02-.17.06-.25.1a.64.64 0 0 0-.29.39c-.01-.02-.01-.04-.01-.07v.27c0-.01.01-.02.02-.03.03.22.12.42.28.55.07.06.15.1.24.12.35 0 .96.25 1.49.6l-.13.12c-.27.19-.54.37-.81.46-.3 0-.53.31-.55.62a.66.66 0 0 0 0 .28c0 .37.45.64.82.55.63-.09 1.09-.45 1.45-.73l.18-.18c.18.27.27.55.27.82 0 .09.03.17.06.25.12.23.4.38.67.38.36 0 .63-.36.63-.72v-.09c-.09-1.27-.81-2.09-1.63-2.63ZM17 11.68c-.25-1.02-.66-1.81-1.13-2.39-.1-.12-.2-.23-.3-.34-.2-.2-.41-.38-.62-.53-.11-.07-.21-.14-.32-.2-.22-.13-.43-.23-.64-.31-.48-.17-.94-.24-1.31-.23-.11 0-.21 0-.3.01l.06.03c-.3.07-.52.37-.52.69 0 .01.01.03.01.04 0 .02-.01.03-.01.05 0 .36.37.64.73.64.35 0 1.23.09 2.04.95-.18.24-.43.41-.77.5-.36.18-.82.18-1.09.18s-.54.15-.66.38c-.04.08-.07.16-.07.25 0 .02.01.04.01.06 0 .01-.01.02-.01.04 0 .36.28.72.64.72.45 0 1 0 1.63-.27.36-.09.73-.36 1-.64 0 .19.18.46.18.73.09.36.45.54.82.45.29-.07.46-.33.46-.62 0-.01.01-.01.01-.02.01-.08 0-.17-.02-.26l.18.09Zm0 0c-.25-1.02-.66-1.81-1.13-2.39-.1-.12-.2-.23-.3-.34-.2-.2-.41-.38-.62-.53-.11-.07-.21-.14-.32-.2-.22-.13-.43-.23-.64-.31-.48-.17-.94-.24-1.31-.23-.11 0-.21 0-.3.01l.06.03c-.3.07-.52.37-.52.69 0 .01.01.03.01.04 0 .02-.01.03-.01.05 0 .36.37.64.73.64.35 0 1.23.09 2.04.95-.18.24-.43.41-.77.5-.36.18-.82.18-1.09.18s-.54.15-.66.38c-.04.08-.07.16-.07.25 0 .02.01.04.01.06 0 .01-.01.02-.01.04 0 .36.28.72.64.72.45 0 1 0 1.63-.27.36-.09.73-.36 1-.64 0 .19.18.46.18.73.09.36.45.54.82.45.29-.07.46-.33.46-.62 0-.01.01-.01.01-.02.01-.08 0-.17-.02-.26l.18.09Zm-2.81 12.79v-.19c-.73-.54-1.63-.81-2.18-.9-.09 0-.18.01-.26.03-.09.02-.17.06-.25.1a.64.64 0 0 0-.29.39c-.01-.02-.01-.04-.01-.07v.27c0-.01.01-.02.02-.03.03.22.12.42.28.55.07.06.15.1.24.12.35 0 .96.25 1.49.6l-.13.12c-.27.19-.54.37-.81.46-.3 0-.53.31-.55.62a.66.66 0 0 0 0 .28c0 .37.45.64.82.55.63-.09 1.09-.45 1.45-.73l.18-.18c.18.27.27.55.27.82 0 .09.03.17.06.25.12.23.4.38.67.38.36 0 .63-.36.63-.72v-.09c-.09-1.27-.81-2.09-1.63-2.63Zm-1.36-10.53c-.79-1.74-2.4-2.49-3.36-2.63-.36 0-.72.19-.81.55 0 .28.11.55.32.71.08.09.18.16.31.2.41.04 1.07.29 1.62.82.56.54 1.01 1.35 1.01 2.53 0 .09.03.18.07.25.11.23.39.39.66.39.36 0 .63-.37.63-.73-.02-.82-.19-1.51-.45-2.09Zm-1.27 3.72c-.9-.34-1.72-.47-2.45-.45h-.07c-.73.01-1.38.17-1.95.41-.42.18-.8.4-1.13.64-.22.16-.41.33-.58.5-.26.25-.47.5-.62.72-.18.36-.09.72.18.9.09.06.2.09.31.09.26.04.55-.06.69-.27.06-.11.17-.25.3-.39.38-.42 1.01-.9 1.79-1.12 0 .09.02.21.04.35s.04.3.04.44c0 .41 0 .81-.11 1.18-.04.13-.09.25-.16.36-.04.09-.07.18-.07.27-.01.09.01.17.04.25.05.16.17.3.3.39.11.05.22.06.33.06.28.03.53-.12.67-.34.09-.18.17-.36.22-.55.12-.38.17-.76.18-1.12 0-.17-.01-.34-.04-.5 0-.27 0-.54-.09-.81.09 0 .18.01.27.02.37.06.78.2 1.18.33.11.06.22.07.33.06.27.03.53-.13.67-.42l.09-.09c.09-.36 0-.73-.36-.91Zm0 0c-.9-.34-1.72-.47-2.45-.45h-.07c-.73.01-1.38.17-1.95.41-.42.18-.8.4-1.13.64-.22.16-.41.33-.58.5-.26.25-.47.5-.62.72-.18.36-.09.72.18.9.09.06.2.09.31.09.26.04.55-.06.69-.27.06-.11.17-.25.3-.39.38-.42 1.01-.9 1.79-1.12 0 .09.02.21.04.35s.04.3.04.44c0 .41 0 .81-.11 1.18-.04.13-.09.25-.16.36-.04.09-.07.18-.07.27-.01.09.01.17.04.25.05.16.17.3.3.39.11.05.22.06.33.06.28.03.53-.12.67-.34.09-.18.17-.36.22-.55.12-.38.17-.76.18-1.12 0-.17-.01-.34-.04-.5 0-.27 0-.54-.09-.81.09 0 .18.01.27.02.37.06.78.2 1.18.33.11.06.22.07.33.06.27.03.53-.13.67-.42l.09-.09c.09-.36 0-.73-.36-.91Zm1.27-3.72c-.79-1.74-2.4-2.49-3.36-2.63-.36 0-.72.19-.81.55 0 .28.11.55.32.71.08.09.18.16.31.2.41.04 1.07.29 1.62.82.56.54 1.01 1.35 1.01 2.53 0 .09.03.18.07.25.11.23.39.39.66.39.36 0 .63-.37.63-.73-.02-.82-.19-1.51-.45-2.09Zm1.36 10.53v-.19c-.73-.54-1.63-.81-2.18-.9-.09 0-.18.01-.26.03-.09.02-.17.06-.25.1a.64.64 0 0 0-.29.39c-.01-.02-.01-.04-.01-.07v.27c0-.01.01-.02.02-.03.03.22.12.42.28.55.07.06.15.1.24.12.35 0 .96.25 1.49.6l-.13.12c-.27.19-.54.37-.81.46-.3 0-.53.31-.55.62a.66.66 0 0 0 0 .28c0 .37.45.64.82.55.63-.09 1.09-.45 1.45-.73l.18-.18c.18.27.27.55.27.82 0 .09.03.17.06.25.12.23.4.38.67.38.36 0 .63-.36.63-.72v-.09c-.09-1.27-.81-2.09-1.63-2.63ZM17 11.68c-.25-1.02-.66-1.81-1.13-2.39-.1-.12-.2-.23-.3-.34-.2-.2-.41-.38-.62-.53-.11-.07-.21-.14-.32-.2-.22-.13-.43-.23-.64-.31-.48-.17-.94-.24-1.31-.23-.11 0-.21 0-.3.01l.06.03c-.3.07-.52.37-.52.69 0 .01.01.03.01.04 0 .02-.01.03-.01.05 0 .36.37.64.73.64.35 0 1.23.09 2.04.95-.18.24-.43.41-.77.5-.36.18-.82.18-1.09.18s-.54.15-.66.38c-.04.08-.07.16-.07.25 0 .02.01.04.01.06 0 .01-.01.02-.01.04 0 .36.28.72.64.72.45 0 1 0 1.63-.27.36-.09.73-.36 1-.64 0 .19.18.46.18.73.09.36.45.54.82.45.29-.07.46-.33.46-.62 0-.01.01-.01.01-.02.01-.08 0-.17-.02-.26l.18.09Zm0 0c-.25-1.02-.66-1.81-1.13-2.39-.1-.12-.2-.23-.3-.34-.2-.2-.41-.38-.62-.53-.11-.07-.21-.14-.32-.2-.22-.13-.43-.23-.64-.31-.48-.17-.94-.24-1.31-.23-.11 0-.21 0-.3.01l.06.03c-.3.07-.52.37-.52.69 0 .01.01.03.01.04 0 .02-.01.03-.01.05 0 .36.37.64.73.64.35 0 1.23.09 2.04.95-.18.24-.43.41-.77.5-.36.18-.82.18-1.09.18s-.54.15-.66.38c-.04.08-.07.16-.07.25 0 .02.01.04.01.06 0 .01-.01.02-.01.04 0 .36.28.72.64.72.45 0 1 0 1.63-.27.36-.09.73-.36 1-.64 0 .19.18.46.18.73.09.36.45.54.82.45.29-.07.46-.33.46-.62 0-.01.01-.01.01-.02.01-.08 0-.17-.02-.26l.18.09Zm-2.81 12.79v-.19c-.73-.54-1.63-.81-2.18-.9-.09 0-.18.01-.26.03-.09.02-.17.06-.25.1a.64.64 0 0 0-.29.39c-.01-.02-.01-.04-.01-.07v.27c0-.01.01-.02.02-.03.03.22.12.42.28.55.07.06.15.1.24.12.35 0 .96.25 1.49.6l-.13.12c-.27.19-.54.37-.81.46-.3 0-.53.31-.55.62a.66.66 0 0 0 0 .28c0 .37.45.64.82.55.63-.09 1.09-.45 1.45-.73l.18-.18c.18.27.27.55.27.82 0 .09.03.17.06.25.12.23.4.38.67.38.36 0 .63-.36.63-.72v-.09c-.09-1.27-.81-2.09-1.63-2.63Zm-1.36-10.53c-.79-1.74-2.4-2.49-3.36-2.63-.36 0-.72.19-.81.55 0 .28.11.55.32.71.08.09.18.16.31.2.41.04 1.07.29 1.62.82.56.54 1.01 1.35 1.01 2.53 0 .09.03.18.07.25.11.23.39.39.66.39.36 0 .63-.37.63-.73-.02-.82-.19-1.51-.45-2.09Zm-1.27 3.72c-.9-.34-1.72-.47-2.45-.45h-.07c-.73.01-1.38.17-1.95.41-.42.18-.8.4-1.13.64-.22.16-.41.33-.58.5-.26.25-.47.5-.62.72-.18.36-.09.72.18.9.09.06.2.09.31.09.26.04.55-.06.69-.27.06-.11.17-.25.3-.39.38-.42 1.01-.9 1.79-1.12 0 .09.02.21.04.35s.04.3.04.44c0 .41 0 .81-.11 1.18-.04.13-.09.25-.16.36-.04.09-.07.18-.07.27-.01.09.01.17.04.25.05.16.17.3.3.39.11.05.22.06.33.06.28.03.53-.12.67-.34.09-.18.17-.36.22-.55.12-.38.17-.76.18-1.12 0-.17-.01-.34-.04-.5 0-.27 0-.54-.09-.81.09 0 .18.01.27.02.37.06.78.2 1.18.33.11.06.22.07.33.06.27.03.53-.13.67-.42l.09-.09c.09-.36 0-.73-.36-.91Zm0 0c-.9-.34-1.72-.47-2.45-.45h-.07c-.73.01-1.38.17-1.95.41-.42.18-.8.4-1.13.64-.22.16-.41.33-.58.5-.26.25-.47.5-.62.72-.18.36-.09.72.18.9.09.06.2.09.31.09.26.04.55-.06.69-.27.06-.11.17-.25.3-.39.38-.42 1.01-.9 1.79-1.12 0 .09.02.21.04.35s.04.3.04.44c0 .41 0 .81-.11 1.18-.04.13-.09.25-.16.36-.04.09-.07.18-.07.27-.01.09.01.17.04.25.05.16.17.3.3.39.11.05.22.06.33.06.28.03.53-.12.67-.34.09-.18.17-.36.22-.55.12-.38.17-.76.18-1.12 0-.17-.01-.34-.04-.5 0-.27 0-.54-.09-.81.09 0 .18.01.27.02.37.06.78.2 1.18.33.11.06.22.07.33.06.27.03.53-.13.67-.42l.09-.09c.09-.36 0-.73-.36-.91Zm1.27-3.72c-.79-1.74-2.4-2.49-3.36-2.63-.36 0-.72.19-.81.55 0 .28.11.55.32.71.08.09.18.16.31.2.41.04 1.07.29 1.62.82.56.54 1.01 1.35 1.01 2.53 0 .09.03.18.07.25.11.23.39.39.66.39.36 0 .63-.37.63-.73-.02-.82-.19-1.51-.45-2.09Zm1.36 10.53v-.19c-.73-.54-1.63-.81-2.18-.9-.09 0-.18.01-.26.03-.09.02-.17.06-.25.1a.64.64 0 0 0-.29.39c-.01-.02-.01-.04-.01-.07v.27c0-.01.01-.02.02-.03.03.22.12.42.28.55.07.06.15.1.24.12.35 0 .96.25 1.49.6l-.13.12c-.27.19-.54.37-.81.46-.3 0-.53.31-.55.62a.66.66 0 0 0 0 .28c0 .37.45.64.82.55.63-.09 1.09-.45 1.45-.73l.18-.18c.18.27.27.55.27.82 0 .09.03.17.06.25.12.23.4.38.67.38.36 0 .63-.36.63-.72v-.09c-.09-1.27-.81-2.09-1.63-2.63ZM17 11.68c-.25-1.02-.66-1.81-1.13-2.39-.1-.12-.2-.23-.3-.34-.2-.2-.41-.38-.62-.53-.11-.07-.21-.14-.32-.2-.22-.13-.43-.23-.64-.31-.48-.17-.94-.24-1.31-.23-.11 0-.21 0-.3.01l.06.03c-.3.07-.52.37-.52.69 0 .01.01.03.01.04 0 .02-.01.03-.01.05 0 .36.37.64.73.64.35 0 1.23.09 2.04.95-.18.24-.43.41-.77.5-.36.18-.82.18-1.09.18s-.54.15-.66.38c-.04.08-.07.16-.07.25 0 .02.01.04.01.06 0 .01-.01.02-.01.04 0 .36.28.72.64.72.45 0 1 0 1.63-.27.36-.09.73-.36 1-.64 0 .19.18.46.18.73.09.36.45.54.82.45.29-.07.46-.33.46-.62 0-.01.01-.01.01-.02.01-.08 0-.17-.02-.26l.18.09Z" style="fill:currentColor"/>
</svg>
