<svg xmlns="http://www.w3.org/2000/svg" viewBox="0 0 36 36">
    <path d="M10.82 23.99V.65l-4.53 6.1h2.53v17.24a5.89 5.89 0 0 0-4.9 5.8c0 3.25 2.64 5.89 5.9 5.89a5.887 5.887 0 0 0 1-11.69Zm-1 9.69c-2.15 0-3.9-1.75-3.9-3.89s1.75-3.89 3.9-3.89 3.89 1.74 3.89 3.89-1.75 3.89-3.89 3.89Zm17.6-9.82V13.33c0-2.95-2.41-5.35-5.36-5.35h-4.28V5.33l-6.1 4.65h10.38c1.85 0 3.36 1.5 3.36 3.35v10.55c-2.75.51-4.83 2.9-4.83 5.79 0 3.26 2.64 5.89 5.9 5.89s5.89-2.63 5.89-5.89c0-2.93-2.15-5.36-4.96-5.81Zm-.93 9.7c-2.15 0-3.9-1.74-3.9-3.89s1.75-3.89 3.9-3.89 3.89 1.75 3.89 3.89-1.75 3.89-3.89 3.89Z" style="fill:currentColor"/>
</svg>
