<svg xmlns="http://www.w3.org/2000/svg" viewBox="0 0 36 36" fill="currentColor">
    <path data-name="MonitorMetrics" d="M6.89 18.21c-.52 0-.83.41-.83.82v3.21c0 .51.31.82.83.82s.83-.41.83-.82v-3.21c0-.51-.31-.82-.83-.82Zm14.88 0a.81.81 0 0 0-.82.82v3.21c0 .41.31.82.82.82.52 0 .83-.31.83-.82v-3.21c0-.41-.31-.82-.83-.82Zm7.34-6.31a.82.82 0 0 0-.83.83v9.51c0 .41.31.82.83.82s.83-.31.83-.82v-9.51a.82.82 0 0 0-.83-.83Zm-14.78 3.21c-.41 0-.83.31-.83.82v6.31c0 .41.31.82.83.82s.83-.31.83-.82v-6.31c0-.41-.31-.82-.83-.82Zm-7.44 3.1c-.52 0-.83.41-.83.82v3.21c0 .51.31.82.83.82s.83-.41.83-.82v-3.21c0-.51-.31-.82-.83-.82Zm7.44-3.1c-.41 0-.83.31-.83.82v6.31c0 .41.31.82.83.82s.83-.31.83-.82v-6.31c0-.41-.31-.82-.83-.82Zm7.44 3.1a.81.81 0 0 0-.82.82v3.21c0 .41.31.82.82.82.52 0 .83-.31.83-.82v-3.21c0-.41-.31-.82-.83-.82Zm7.34-6.31a.82.82 0 0 0-.83.83v9.51c0 .41.31.82.83.82s.83-.31.83-.82v-9.51a.82.82 0 0 0-.83-.83Zm-.07-7.84c-1.49 0-2.7 1.21-2.7 2.7 0 .43.11.83.29 1.19l-3.18 2.77c-.46-.38-1.05-.61-1.69-.61-.81 0-1.52.36-2.02.93l-2.83-1.33c.01-.1.03-.19.03-.29 0-1.5-1.21-2.7-2.7-2.7s-2.7 1.2-2.7 2.7c0 .07.02.15.02.22-.77.42-1.98 1.07-2.77 1.53-.48-.43-1.1-.69-1.79-.69-1.49 0-2.7 1.21-2.7 2.7s1.21 2.7 2.7 2.7 2.7-1.21 2.7-2.7c0-.24-.04-.47-.1-.69.6-.34 1.56-.87 2.54-1.4a2.66 2.66 0 0 0 2.1 1.02c.83 0 1.56-.38 2.06-.97l2.8 1.31c-.02.12-.04.24-.04.36 0 1.49 1.21 2.7 2.7 2.7s2.7-1.21 2.7-2.7c0-.28-.05-.55-.13-.8l3.36-2.93c.4.23.86.38 1.35.38 1.49 0 2.7-1.21 2.7-2.7s-1.21-2.7-2.7-2.7ZM7 14.33c-.63 0-1.15-.52-1.15-1.15a1.15 1.15 0 0 1 2.3 0c0 .63-.52 1.15-1.15 1.15Zm7.24-3.77c-.64 0-1.15-.51-1.15-1.14a1.15 1.15 0 0 1 2.3 0c0 .63-.52 1.14-1.15 1.14Zm7.52 3.4c-.63 0-1.15-.52-1.15-1.15s.52-1.15 1.15-1.15a1.15 1.15 0 0 1 0 2.3Zm7.28-6.05c-.63 0-1.15-.52-1.15-1.15a1.15 1.15 0 0 1 2.3 0c0 .63-.52 1.15-1.15 1.15Zm0-3.85c-1.49 0-2.7 1.21-2.7 2.7 0 .43.11.83.29 1.19l-3.18 2.77c-.46-.38-1.05-.61-1.69-.61-.81 0-1.52.36-2.02.93l-2.83-1.33c.01-.1.03-.19.03-.29 0-1.5-1.21-2.7-2.7-2.7s-2.7 1.2-2.7 2.7c0 .07.02.15.02.22-.77.42-1.98 1.07-2.77 1.53-.48-.43-1.1-.69-1.79-.69-1.49 0-2.7 1.21-2.7 2.7s1.21 2.7 2.7 2.7 2.7-1.21 2.7-2.7c0-.24-.04-.47-.1-.69.6-.34 1.56-.87 2.54-1.4a2.66 2.66 0 0 0 2.1 1.02c.83 0 1.56-.38 2.06-.97l2.8 1.31c-.02.12-.04.24-.04.36 0 1.49 1.21 2.7 2.7 2.7s2.7-1.21 2.7-2.7c0-.28-.05-.55-.13-.8l3.36-2.93c.4.23.86.38 1.35.38 1.49 0 2.7-1.21 2.7-2.7s-1.21-2.7-2.7-2.7ZM7 14.33c-.63 0-1.15-.52-1.15-1.15a1.15 1.15 0 0 1 2.3 0c0 .63-.52 1.15-1.15 1.15Zm7.24-3.77c-.64 0-1.15-.51-1.15-1.14a1.15 1.15 0 0 1 2.3 0c0 .63-.52 1.14-1.15 1.14Zm7.52 3.4c-.63 0-1.15-.52-1.15-1.15s.52-1.15 1.15-1.15a1.15 1.15 0 0 1 0 2.3Zm7.28-6.05c-.63 0-1.15-.52-1.15-1.15a1.15 1.15 0 0 1 2.3 0c0 .63-.52 1.15-1.15 1.15Zm.07 3.99a.82.82 0 0 0-.83.83v9.51c0 .41.31.82.83.82s.83-.31.83-.82v-9.51a.82.82 0 0 0-.83-.83Zm-7.34 6.31a.81.81 0 0 0-.82.82v3.21c0 .41.31.82.82.82.52 0 .83-.31.83-.82v-3.21c0-.41-.31-.82-.83-.82Zm-7.44-3.1c-.41 0-.83.31-.83.82v6.31c0 .41.31.82.83.82s.83-.31.83-.82v-6.31c0-.41-.31-.82-.83-.82Zm-7.44 3.1c-.52 0-.83.41-.83.82v3.21c0 .51.31.82.83.82s.83-.41.83-.82v-3.21c0-.51-.31-.82-.83-.82Zm0 0c-.52 0-.83.41-.83.82v3.21c0 .51.31.82.83.82s.83-.41.83-.82v-3.21c0-.51-.31-.82-.83-.82Zm7.44-3.1c-.41 0-.83.31-.83.82v6.31c0 .41.31.82.83.82s.83-.31.83-.82v-6.31c0-.41-.31-.82-.83-.82Zm7.44 3.1a.81.81 0 0 0-.82.82v3.21c0 .41.31.82.82.82.52 0 .83-.31.83-.82v-3.21c0-.41-.31-.82-.83-.82Zm7.34-6.31a.82.82 0 0 0-.83.83v9.51c0 .41.31.82.83.82s.83-.31.83-.82v-9.51a.82.82 0 0 0-.83-.83Zm-.07-7.84c-1.49 0-2.7 1.21-2.7 2.7 0 .43.11.83.29 1.19l-3.18 2.77c-.46-.38-1.05-.61-1.69-.61-.81 0-1.52.36-2.02.93l-2.83-1.33c.01-.1.03-.19.03-.29 0-1.5-1.21-2.7-2.7-2.7s-2.7 1.2-2.7 2.7c0 .07.02.15.02.22-.77.42-1.98 1.07-2.77 1.53-.48-.43-1.1-.69-1.79-.69-1.49 0-2.7 1.21-2.7 2.7s1.21 2.7 2.7 2.7 2.7-1.21 2.7-2.7c0-.24-.04-.47-.1-.69.6-.34 1.56-.87 2.54-1.4a2.66 2.66 0 0 0 2.1 1.02c.83 0 1.56-.38 2.06-.97l2.8 1.31c-.02.12-.04.24-.04.36 0 1.49 1.21 2.7 2.7 2.7s2.7-1.21 2.7-2.7c0-.28-.05-.55-.13-.8l3.36-2.93c.4.23.86.38 1.35.38 1.49 0 2.7-1.21 2.7-2.7s-1.21-2.7-2.7-2.7ZM7 14.33c-.63 0-1.15-.52-1.15-1.15a1.15 1.15 0 0 1 2.3 0c0 .63-.52 1.15-1.15 1.15Zm7.24-3.77c-.64 0-1.15-.51-1.15-1.14a1.15 1.15 0 0 1 2.3 0c0 .63-.52 1.14-1.15 1.14Zm7.52 3.4c-.63 0-1.15-.52-1.15-1.15s.52-1.15 1.15-1.15a1.15 1.15 0 0 1 0 2.3Zm7.28-6.05c-.63 0-1.15-.52-1.15-1.15a1.15 1.15 0 0 1 2.3 0c0 .63-.52 1.15-1.15 1.15Zm0-3.85c-1.49 0-2.7 1.21-2.7 2.7 0 .43.11.83.29 1.19l-3.18 2.77c-.46-.38-1.05-.61-1.69-.61-.81 0-1.52.36-2.02.93l-2.83-1.33c.01-.1.03-.19.03-.29 0-1.5-1.21-2.7-2.7-2.7s-2.7 1.2-2.7 2.7c0 .07.02.15.02.22-.77.42-1.98 1.07-2.77 1.53-.48-.43-1.1-.69-1.79-.69-1.49 0-2.7 1.21-2.7 2.7s1.21 2.7 2.7 2.7 2.7-1.21 2.7-2.7c0-.24-.04-.47-.1-.69.6-.34 1.56-.87 2.54-1.4a2.66 2.66 0 0 0 2.1 1.02c.83 0 1.56-.38 2.06-.97l2.8 1.31c-.02.12-.04.24-.04.36 0 1.49 1.21 2.7 2.7 2.7s2.7-1.21 2.7-2.7c0-.28-.05-.55-.13-.8l3.36-2.93c.4.23.86.38 1.35.38 1.49 0 2.7-1.21 2.7-2.7s-1.21-2.7-2.7-2.7ZM7 14.33c-.63 0-1.15-.52-1.15-1.15a1.15 1.15 0 0 1 2.3 0c0 .63-.52 1.15-1.15 1.15Zm7.24-3.77c-.64 0-1.15-.51-1.15-1.14a1.15 1.15 0 0 1 2.3 0c0 .63-.52 1.14-1.15 1.14Zm7.52 3.4c-.63 0-1.15-.52-1.15-1.15s.52-1.15 1.15-1.15a1.15 1.15 0 0 1 0 2.3Zm7.28-6.05c-.63 0-1.15-.52-1.15-1.15a1.15 1.15 0 0 1 2.3 0c0 .63-.52 1.15-1.15 1.15Zm.07 3.99a.82.82 0 0 0-.83.83v9.51c0 .41.31.82.83.82s.83-.31.83-.82v-9.51a.82.82 0 0 0-.83-.83Zm-7.34 6.31a.81.81 0 0 0-.82.82v3.21c0 .41.31.82.82.82.52 0 .83-.31.83-.82v-3.21c0-.41-.31-.82-.83-.82Zm-7.44-3.1c-.41 0-.83.31-.83.82v6.31c0 .41.31.82.83.82s.83-.31.83-.82v-6.31c0-.41-.31-.82-.83-.82Zm-7.44 3.1c-.52 0-.83.41-.83.82v3.21c0 .51.31.82.83.82s.83-.41.83-.82v-3.21c0-.51-.31-.82-.83-.82Zm0 0c-.52 0-.83.41-.83.82v3.21c0 .51.31.82.83.82s.83-.41.83-.82v-3.21c0-.51-.31-.82-.83-.82Zm7.44-3.1c-.41 0-.83.31-.83.82v6.31c0 .41.31.82.83.82s.83-.31.83-.82v-6.31c0-.41-.31-.82-.83-.82Zm7.44 3.1a.81.81 0 0 0-.82.82v3.21c0 .41.31.82.82.82.52 0 .83-.31.83-.82v-3.21c0-.41-.31-.82-.83-.82Zm7.34-6.31a.82.82 0 0 0-.83.83v9.51c0 .41.31.82.83.82s.83-.31.83-.82v-9.51a.82.82 0 0 0-.83-.83Zm-.07-7.84c-1.49 0-2.7 1.21-2.7 2.7 0 .43.11.83.29 1.19l-3.18 2.77c-.46-.38-1.05-.61-1.69-.61-.81 0-1.52.36-2.02.93l-2.83-1.33c.01-.1.03-.19.03-.29 0-1.5-1.21-2.7-2.7-2.7s-2.7 1.2-2.7 2.7c0 .07.02.15.02.22-.77.42-1.98 1.07-2.77 1.53-.48-.43-1.1-.69-1.79-.69-1.49 0-2.7 1.21-2.7 2.7s1.21 2.7 2.7 2.7 2.7-1.21 2.7-2.7c0-.24-.04-.47-.1-.69.6-.34 1.56-.87 2.54-1.4a2.66 2.66 0 0 0 2.1 1.02c.83 0 1.56-.38 2.06-.97l2.8 1.31c-.02.12-.04.24-.04.36 0 1.49 1.21 2.7 2.7 2.7s2.7-1.21 2.7-2.7c0-.28-.05-.55-.13-.8l3.36-2.93c.4.23.86.38 1.35.38 1.49 0 2.7-1.21 2.7-2.7s-1.21-2.7-2.7-2.7ZM7 14.33c-.63 0-1.15-.52-1.15-1.15a1.15 1.15 0 0 1 2.3 0c0 .63-.52 1.15-1.15 1.15Zm7.24-3.77c-.64 0-1.15-.51-1.15-1.14a1.15 1.15 0 0 1 2.3 0c0 .63-.52 1.14-1.15 1.14Zm7.52 3.4c-.63 0-1.15-.52-1.15-1.15s.52-1.15 1.15-1.15a1.15 1.15 0 0 1 0 2.3Zm7.28-6.05c-.63 0-1.15-.52-1.15-1.15a1.15 1.15 0 0 1 2.3 0c0 .63-.52 1.15-1.15 1.15Zm0-3.85c-1.49 0-2.7 1.21-2.7 2.7 0 .43.11.83.29 1.19l-3.18 2.77c-.46-.38-1.05-.61-1.69-.61-.81 0-1.52.36-2.02.93l-2.83-1.33c.01-.1.03-.19.03-.29 0-1.5-1.21-2.7-2.7-2.7s-2.7 1.2-2.7 2.7c0 .07.02.15.02.22-.77.42-1.98 1.07-2.77 1.53-.48-.43-1.1-.69-1.79-.69-1.49 0-2.7 1.21-2.7 2.7s1.21 2.7 2.7 2.7 2.7-1.21 2.7-2.7c0-.24-.04-.47-.1-.69.6-.34 1.56-.87 2.54-1.4a2.66 2.66 0 0 0 2.1 1.02c.83 0 1.56-.38 2.06-.97l2.8 1.31c-.02.12-.04.24-.04.36 0 1.49 1.21 2.7 2.7 2.7s2.7-1.21 2.7-2.7c0-.28-.05-.55-.13-.8l3.36-2.93c.4.23.86.38 1.35.38 1.49 0 2.7-1.21 2.7-2.7s-1.21-2.7-2.7-2.7ZM7 14.33c-.63 0-1.15-.52-1.15-1.15a1.15 1.15 0 0 1 2.3 0c0 .63-.52 1.15-1.15 1.15Zm7.24-3.77c-.64 0-1.15-.51-1.15-1.14a1.15 1.15 0 0 1 2.3 0c0 .63-.52 1.14-1.15 1.14Zm7.52 3.4c-.63 0-1.15-.52-1.15-1.15s.52-1.15 1.15-1.15a1.15 1.15 0 0 1 0 2.3Zm7.28-6.05c-.63 0-1.15-.52-1.15-1.15a1.15 1.15 0 0 1 2.3 0c0 .63-.52 1.15-1.15 1.15Zm.07 3.99a.82.82 0 0 0-.83.83v9.51c0 .41.31.82.83.82s.83-.31.83-.82v-9.51a.82.82 0 0 0-.83-.83Zm-7.34 6.31a.81.81 0 0 0-.82.82v3.21c0 .41.31.82.82.82.52 0 .83-.31.83-.82v-3.21c0-.41-.31-.82-.83-.82Zm-7.44-3.1c-.41 0-.83.31-.83.82v6.31c0 .41.31.82.83.82s.83-.31.83-.82v-6.31c0-.41-.31-.82-.83-.82Zm-7.44 3.1c-.52 0-.83.41-.83.82v3.21c0 .51.31.82.83.82s.83-.41.83-.82v-3.21c0-.51-.31-.82-.83-.82Zm0 0c-.52 0-.83.41-.83.82v3.21c0 .51.31.82.83.82s.83-.41.83-.82v-3.21c0-.51-.31-.82-.83-.82Zm7.44-3.1c-.41 0-.83.31-.83.82v6.31c0 .41.31.82.83.82s.83-.31.83-.82v-6.31c0-.41-.31-.82-.83-.82Zm7.44 3.1a.81.81 0 0 0-.82.82v3.21c0 .41.31.82.82.82.52 0 .83-.31.83-.82v-3.21c0-.41-.31-.82-.83-.82Zm7.34-6.31a.82.82 0 0 0-.83.83v9.51c0 .41.31.82.83.82s.83-.31.83-.82v-9.51a.82.82 0 0 0-.83-.83Zm-.07-7.84c-1.49 0-2.7 1.21-2.7 2.7 0 .43.11.83.29 1.19l-3.18 2.77c-.46-.38-1.05-.61-1.69-.61-.81 0-1.52.36-2.02.93l-2.83-1.33c.01-.1.03-.19.03-.29 0-1.5-1.21-2.7-2.7-2.7s-2.7 1.2-2.7 2.7c0 .07.02.15.02.22-.77.42-1.98 1.07-2.77 1.53-.48-.43-1.1-.69-1.79-.69-1.49 0-2.7 1.21-2.7 2.7s1.21 2.7 2.7 2.7 2.7-1.21 2.7-2.7c0-.24-.04-.47-.1-.69.6-.34 1.56-.87 2.54-1.4a2.66 2.66 0 0 0 2.1 1.02c.83 0 1.56-.38 2.06-.97l2.8 1.31c-.02.12-.04.24-.04.36 0 1.49 1.21 2.7 2.7 2.7s2.7-1.21 2.7-2.7c0-.28-.05-.55-.13-.8l3.36-2.93c.4.23.86.38 1.35.38 1.49 0 2.7-1.21 2.7-2.7s-1.21-2.7-2.7-2.7ZM7 14.33c-.63 0-1.15-.52-1.15-1.15a1.15 1.15 0 0 1 2.3 0c0 .63-.52 1.15-1.15 1.15Zm7.24-3.77c-.64 0-1.15-.51-1.15-1.14a1.15 1.15 0 0 1 2.3 0c0 .63-.52 1.14-1.15 1.14Zm7.52 3.4c-.63 0-1.15-.52-1.15-1.15s.52-1.15 1.15-1.15a1.15 1.15 0 0 1 0 2.3Zm7.28-6.05c-.63 0-1.15-.52-1.15-1.15a1.15 1.15 0 0 1 2.3 0c0 .63-.52 1.15-1.15 1.15Zm0-3.85c-1.49 0-2.7 1.21-2.7 2.7 0 .43.11.83.29 1.19l-3.18 2.77c-.46-.38-1.05-.61-1.69-.61-.81 0-1.52.36-2.02.93l-2.83-1.33c.01-.1.03-.19.03-.29 0-1.5-1.21-2.7-2.7-2.7s-2.7 1.2-2.7 2.7c0 .07.02.15.02.22-.77.42-1.98 1.07-2.77 1.53-.48-.43-1.1-.69-1.79-.69-1.49 0-2.7 1.21-2.7 2.7s1.21 2.7 2.7 2.7 2.7-1.21 2.7-2.7c0-.24-.04-.47-.1-.69.6-.34 1.56-.87 2.54-1.4a2.66 2.66 0 0 0 2.1 1.02c.83 0 1.56-.38 2.06-.97l2.8 1.31c-.02.12-.04.24-.04.36 0 1.49 1.21 2.7 2.7 2.7s2.7-1.21 2.7-2.7c0-.28-.05-.55-.13-.8l3.36-2.93c.4.23.86.38 1.35.38 1.49 0 2.7-1.21 2.7-2.7s-1.21-2.7-2.7-2.7ZM7 14.33c-.63 0-1.15-.52-1.15-1.15a1.15 1.15 0 0 1 2.3 0c0 .63-.52 1.15-1.15 1.15Zm7.24-3.77c-.64 0-1.15-.51-1.15-1.14a1.15 1.15 0 0 1 2.3 0c0 .63-.52 1.14-1.15 1.14Zm7.52 3.4c-.63 0-1.15-.52-1.15-1.15s.52-1.15 1.15-1.15a1.15 1.15 0 0 1 0 2.3Zm7.28-6.05c-.63 0-1.15-.52-1.15-1.15a1.15 1.15 0 0 1 2.3 0c0 .63-.52 1.15-1.15 1.15Zm.07 3.99a.82.82 0 0 0-.83.83v9.51c0 .41.31.82.83.82s.83-.31.83-.82v-9.51a.82.82 0 0 0-.83-.83Zm-7.34 6.31a.81.81 0 0 0-.82.82v3.21c0 .41.31.82.82.82.52 0 .83-.31.83-.82v-3.21c0-.41-.31-.82-.83-.82Zm-7.44-3.1c-.41 0-.83.31-.83.82v6.31c0 .41.31.82.83.82s.83-.31.83-.82v-6.31c0-.41-.31-.82-.83-.82Zm-7.44 3.1c-.52 0-.83.41-.83.82v3.21c0 .51.31.82.83.82s.83-.41.83-.82v-3.21c0-.51-.31-.82-.83-.82Zm0 0c-.52 0-.83.41-.83.82v3.21c0 .51.31.82.83.82s.83-.41.83-.82v-3.21c0-.51-.31-.82-.83-.82Zm7.44-3.1c-.41 0-.83.31-.83.82v6.31c0 .41.31.82.83.82s.83-.31.83-.82v-6.31c0-.41-.31-.82-.83-.82Zm7.44 3.1a.81.81 0 0 0-.82.82v3.21c0 .41.31.82.82.82.52 0 .83-.31.83-.82v-3.21c0-.41-.31-.82-.83-.82Zm7.34-6.31a.82.82 0 0 0-.83.83v9.51c0 .41.31.82.83.82s.83-.31.83-.82v-9.51a.82.82 0 0 0-.83-.83Zm-.07-7.84c-1.49 0-2.7 1.21-2.7 2.7 0 .43.11.83.29 1.19l-3.18 2.77c-.46-.38-1.05-.61-1.69-.61-.81 0-1.52.36-2.02.93l-2.83-1.33c.01-.1.03-.19.03-.29 0-1.5-1.21-2.7-2.7-2.7s-2.7 1.2-2.7 2.7c0 .07.02.15.02.22-.77.42-1.98 1.07-2.77 1.53-.48-.43-1.1-.69-1.79-.69-1.49 0-2.7 1.21-2.7 2.7s1.21 2.7 2.7 2.7 2.7-1.21 2.7-2.7c0-.24-.04-.47-.1-.69.6-.34 1.56-.87 2.54-1.4a2.66 2.66 0 0 0 2.1 1.02c.83 0 1.56-.38 2.06-.97l2.8 1.31c-.02.12-.04.24-.04.36 0 1.49 1.21 2.7 2.7 2.7s2.7-1.21 2.7-2.7c0-.28-.05-.55-.13-.8l3.36-2.93c.4.23.86.38 1.35.38 1.49 0 2.7-1.21 2.7-2.7s-1.21-2.7-2.7-2.7ZM7 14.33c-.63 0-1.15-.52-1.15-1.15a1.15 1.15 0 0 1 2.3 0c0 .63-.52 1.15-1.15 1.15Zm7.24-3.77c-.64 0-1.15-.51-1.15-1.14a1.15 1.15 0 0 1 2.3 0c0 .63-.52 1.14-1.15 1.14Zm7.52 3.4c-.63 0-1.15-.52-1.15-1.15s.52-1.15 1.15-1.15a1.15 1.15 0 0 1 0 2.3Zm7.28-6.05c-.63 0-1.15-.52-1.15-1.15a1.15 1.15 0 0 1 2.3 0c0 .63-.52 1.15-1.15 1.15Zm0-3.85c-1.49 0-2.7 1.21-2.7 2.7 0 .43.11.83.29 1.19l-3.18 2.77c-.46-.38-1.05-.61-1.69-.61-.81 0-1.52.36-2.02.93l-2.83-1.33c.01-.1.03-.19.03-.29 0-1.5-1.21-2.7-2.7-2.7s-2.7 1.2-2.7 2.7c0 .07.02.15.02.22-.77.42-1.98 1.07-2.77 1.53-.48-.43-1.1-.69-1.79-.69-1.49 0-2.7 1.21-2.7 2.7s1.21 2.7 2.7 2.7 2.7-1.21 2.7-2.7c0-.24-.04-.47-.1-.69.6-.34 1.56-.87 2.54-1.4a2.66 2.66 0 0 0 2.1 1.02c.83 0 1.56-.38 2.06-.97l2.8 1.31c-.02.12-.04.24-.04.36 0 1.49 1.21 2.7 2.7 2.7s2.7-1.21 2.7-2.7c0-.28-.05-.55-.13-.8l3.36-2.93c.4.23.86.38 1.35.38 1.49 0 2.7-1.21 2.7-2.7s-1.21-2.7-2.7-2.7ZM7 14.33c-.63 0-1.15-.52-1.15-1.15a1.15 1.15 0 0 1 2.3 0c0 .63-.52 1.15-1.15 1.15Zm7.24-3.77c-.64 0-1.15-.51-1.15-1.14a1.15 1.15 0 0 1 2.3 0c0 .63-.52 1.14-1.15 1.14Zm7.52 3.4c-.63 0-1.15-.52-1.15-1.15s.52-1.15 1.15-1.15a1.15 1.15 0 0 1 0 2.3Zm7.28-6.05c-.63 0-1.15-.52-1.15-1.15a1.15 1.15 0 0 1 2.3 0c0 .63-.52 1.15-1.15 1.15Zm.07 3.99a.82.82 0 0 0-.83.83v9.51c0 .41.31.82.83.82s.83-.31.83-.82v-9.51a.82.82 0 0 0-.83-.83Zm-7.34 6.31a.81.81 0 0 0-.82.82v3.21c0 .41.31.82.82.82.52 0 .83-.31.83-.82v-3.21c0-.41-.31-.82-.83-.82Zm-7.44-3.1c-.41 0-.83.31-.83.82v6.31c0 .41.31.82.83.82s.83-.31.83-.82v-6.31c0-.41-.31-.82-.83-.82Zm-7.44 3.1c-.52 0-.83.41-.83.82v3.21c0 .51.31.82.83.82s.83-.41.83-.82v-3.21c0-.51-.31-.82-.83-.82Zm0 0c-.52 0-.83.41-.83.82v3.21c0 .51.31.82.83.82s.83-.41.83-.82v-3.21c0-.51-.31-.82-.83-.82Zm7.44-3.1c-.41 0-.83.31-.83.82v6.31c0 .41.31.82.83.82s.83-.31.83-.82v-6.31c0-.41-.31-.82-.83-.82Zm7.44 3.1a.81.81 0 0 0-.82.82v3.21c0 .41.31.82.82.82.52 0 .83-.31.83-.82v-3.21c0-.41-.31-.82-.83-.82Zm7.34-6.31a.82.82 0 0 0-.83.83v9.51c0 .41.31.82.83.82s.83-.31.83-.82v-9.51a.82.82 0 0 0-.83-.83Zm-.07-7.84c-1.49 0-2.7 1.21-2.7 2.7 0 .43.11.83.29 1.19l-3.18 2.77c-.46-.38-1.05-.61-1.69-.61-.81 0-1.52.36-2.02.93l-2.83-1.33c.01-.1.03-.19.03-.29 0-1.5-1.21-2.7-2.7-2.7s-2.7 1.2-2.7 2.7c0 .07.02.15.02.22-.77.42-1.98 1.07-2.77 1.53-.48-.43-1.1-.69-1.79-.69-1.49 0-2.7 1.21-2.7 2.7s1.21 2.7 2.7 2.7 2.7-1.21 2.7-2.7c0-.24-.04-.47-.1-.69.6-.34 1.56-.87 2.54-1.4a2.66 2.66 0 0 0 2.1 1.02c.83 0 1.56-.38 2.06-.97l2.8 1.31c-.02.12-.04.24-.04.36 0 1.49 1.21 2.7 2.7 2.7s2.7-1.21 2.7-2.7c0-.28-.05-.55-.13-.8l3.36-2.93c.4.23.86.38 1.35.38 1.49 0 2.7-1.21 2.7-2.7s-1.21-2.7-2.7-2.7ZM7 14.33c-.63 0-1.15-.52-1.15-1.15a1.15 1.15 0 0 1 2.3 0c0 .63-.52 1.15-1.15 1.15Zm7.24-3.77c-.64 0-1.15-.51-1.15-1.14a1.15 1.15 0 0 1 2.3 0c0 .63-.52 1.14-1.15 1.14Zm7.52 3.4c-.63 0-1.15-.52-1.15-1.15s.52-1.15 1.15-1.15a1.15 1.15 0 0 1 0 2.3Zm7.28-6.05c-.63 0-1.15-.52-1.15-1.15a1.15 1.15 0 0 1 2.3 0c0 .63-.52 1.15-1.15 1.15Zm0-3.85c-1.49 0-2.7 1.21-2.7 2.7 0 .43.11.83.29 1.19l-3.18 2.77c-.46-.38-1.05-.61-1.69-.61-.81 0-1.52.36-2.02.93l-2.83-1.33c.01-.1.03-.19.03-.29 0-1.5-1.21-2.7-2.7-2.7s-2.7 1.2-2.7 2.7c0 .07.02.15.02.22-.77.42-1.98 1.07-2.77 1.53-.48-.43-1.1-.69-1.79-.69-1.49 0-2.7 1.21-2.7 2.7s1.21 2.7 2.7 2.7 2.7-1.21 2.7-2.7c0-.24-.04-.47-.1-.69.6-.34 1.56-.87 2.54-1.4a2.66 2.66 0 0 0 2.1 1.02c.83 0 1.56-.38 2.06-.97l2.8 1.31c-.02.12-.04.24-.04.36 0 1.49 1.21 2.7 2.7 2.7s2.7-1.21 2.7-2.7c0-.28-.05-.55-.13-.8l3.36-2.93c.4.23.86.38 1.35.38 1.49 0 2.7-1.21 2.7-2.7s-1.21-2.7-2.7-2.7ZM7 14.33c-.63 0-1.15-.52-1.15-1.15a1.15 1.15 0 0 1 2.3 0c0 .63-.52 1.15-1.15 1.15Zm7.24-3.77c-.64 0-1.15-.51-1.15-1.14a1.15 1.15 0 0 1 2.3 0c0 .63-.52 1.14-1.15 1.14Zm7.52 3.4c-.63 0-1.15-.52-1.15-1.15s.52-1.15 1.15-1.15a1.15 1.15 0 0 1 0 2.3Zm7.28-6.05c-.63 0-1.15-.52-1.15-1.15a1.15 1.15 0 0 1 2.3 0c0 .63-.52 1.15-1.15 1.15Zm.07 3.99a.82.82 0 0 0-.83.83v9.51c0 .41.31.82.83.82s.83-.31.83-.82v-9.51a.82.82 0 0 0-.83-.83Zm-7.34 6.31a.81.81 0 0 0-.82.82v3.21c0 .41.31.82.82.82.52 0 .83-.31.83-.82v-3.21c0-.41-.31-.82-.83-.82Zm-7.44-3.1c-.41 0-.83.31-.83.82v6.31c0 .41.31.82.83.82s.83-.31.83-.82v-6.31c0-.41-.31-.82-.83-.82Zm-7.44 3.1c-.52 0-.83.41-.83.82v3.21c0 .51.31.82.83.82s.83-.41.83-.82v-3.21c0-.51-.31-.82-.83-.82Zm0 0c-.52 0-.83.41-.83.82v3.21c0 .51.31.82.83.82s.83-.41.83-.82v-3.21c0-.51-.31-.82-.83-.82Zm7.44-3.1c-.41 0-.83.31-.83.82v6.31c0 .41.31.82.83.82s.83-.31.83-.82v-6.31c0-.41-.31-.82-.83-.82Zm7.44 3.1a.81.81 0 0 0-.82.82v3.21c0 .41.31.82.82.82.52 0 .83-.31.83-.82v-3.21c0-.41-.31-.82-.83-.82Zm7.34-6.31a.82.82 0 0 0-.83.83v9.51c0 .41.31.82.83.82s.83-.31.83-.82v-9.51a.82.82 0 0 0-.83-.83Zm-.07-7.84c-1.49 0-2.7 1.21-2.7 2.7 0 .43.11.83.29 1.19l-3.18 2.77c-.46-.38-1.05-.61-1.69-.61-.81 0-1.52.36-2.02.93l-2.83-1.33c.01-.1.03-.19.03-.29 0-1.5-1.21-2.7-2.7-2.7s-2.7 1.2-2.7 2.7c0 .07.02.15.02.22-.77.42-1.98 1.07-2.77 1.53-.48-.43-1.1-.69-1.79-.69-1.49 0-2.7 1.21-2.7 2.7s1.21 2.7 2.7 2.7 2.7-1.21 2.7-2.7c0-.24-.04-.47-.1-.69.6-.34 1.56-.87 2.54-1.4a2.66 2.66 0 0 0 2.1 1.02c.83 0 1.56-.38 2.06-.97l2.8 1.31c-.02.12-.04.24-.04.36 0 1.49 1.21 2.7 2.7 2.7s2.7-1.21 2.7-2.7c0-.28-.05-.55-.13-.8l3.36-2.93c.4.23.86.38 1.35.38 1.49 0 2.7-1.21 2.7-2.7s-1.21-2.7-2.7-2.7ZM7 14.33c-.63 0-1.15-.52-1.15-1.15a1.15 1.15 0 0 1 2.3 0c0 .63-.52 1.15-1.15 1.15Zm7.24-3.77c-.64 0-1.15-.51-1.15-1.14a1.15 1.15 0 0 1 2.3 0c0 .63-.52 1.14-1.15 1.14Zm7.52 3.4c-.63 0-1.15-.52-1.15-1.15s.52-1.15 1.15-1.15a1.15 1.15 0 0 1 0 2.3Zm7.28-6.05c-.63 0-1.15-.52-1.15-1.15a1.15 1.15 0 0 1 2.3 0c0 .63-.52 1.15-1.15 1.15Zm0-3.85c-1.49 0-2.7 1.21-2.7 2.7 0 .43.11.83.29 1.19l-3.18 2.77c-.46-.38-1.05-.61-1.69-.61-.81 0-1.52.36-2.02.93l-2.83-1.33c.01-.1.03-.19.03-.29 0-1.5-1.21-2.7-2.7-2.7s-2.7 1.2-2.7 2.7c0 .07.02.15.02.22-.77.42-1.98 1.07-2.77 1.53-.48-.43-1.1-.69-1.79-.69-1.49 0-2.7 1.21-2.7 2.7s1.21 2.7 2.7 2.7 2.7-1.21 2.7-2.7c0-.24-.04-.47-.1-.69.6-.34 1.56-.87 2.54-1.4a2.66 2.66 0 0 0 2.1 1.02c.83 0 1.56-.38 2.06-.97l2.8 1.31c-.02.12-.04.24-.04.36 0 1.49 1.21 2.7 2.7 2.7s2.7-1.21 2.7-2.7c0-.28-.05-.55-.13-.8l3.36-2.93c.4.23.86.38 1.35.38 1.49 0 2.7-1.21 2.7-2.7s-1.21-2.7-2.7-2.7ZM7 14.33c-.63 0-1.15-.52-1.15-1.15a1.15 1.15 0 0 1 2.3 0c0 .63-.52 1.15-1.15 1.15Zm7.24-3.77c-.64 0-1.15-.51-1.15-1.14a1.15 1.15 0 0 1 2.3 0c0 .63-.52 1.14-1.15 1.14Zm7.52 3.4c-.63 0-1.15-.52-1.15-1.15s.52-1.15 1.15-1.15a1.15 1.15 0 0 1 0 2.3Zm7.28-6.05c-.63 0-1.15-.52-1.15-1.15a1.15 1.15 0 0 1 2.3 0c0 .63-.52 1.15-1.15 1.15Zm.07 3.99a.82.82 0 0 0-.83.83v9.51c0 .41.31.82.83.82s.83-.31.83-.82v-9.51a.82.82 0 0 0-.83-.83Zm-7.34 6.31a.81.81 0 0 0-.82.82v3.21c0 .41.31.82.82.82.52 0 .83-.31.83-.82v-3.21c0-.41-.31-.82-.83-.82Zm-7.44-3.1c-.41 0-.83.31-.83.82v6.31c0 .41.31.82.83.82s.83-.31.83-.82v-6.31c0-.41-.31-.82-.83-.82Zm-7.44 3.1c-.52 0-.83.41-.83.82v3.21c0 .51.31.82.83.82s.83-.41.83-.82v-3.21c0-.51-.31-.82-.83-.82ZM33.86 1.57H2.14C1 1.57.07 2.5.07 3.63v21.6c0 1.14.93 2.07 2.07 2.07h15.08v5.48h-6.3c-.52 0-.83.31-.83.83 0 .51.42.82.83.82h14.16c.52 0 .83-.31.83-.82a.82.82 0 0 0-.83-.83h-6.3V27.3h15.08c1.14 0 2.07-.93 2.07-2.07V3.63c0-1.13-.93-2.06-2.07-2.06Zm.52 23.66c0 .31-.21.52-.52.52H2.14c-.31 0-.52-.21-.52-.52V3.63c0-.31.21-.51.52-.51h31.72c.31 0 .52.2.52.51v21.6ZM29.04 4.06c-1.49 0-2.7 1.21-2.7 2.7 0 .43.11.83.29 1.19l-3.18 2.77c-.46-.38-1.05-.61-1.69-.61-.81 0-1.52.36-2.02.93l-2.83-1.33c.01-.1.03-.19.03-.29 0-1.5-1.21-2.7-2.7-2.7s-2.7 1.2-2.7 2.7c0 .07.02.15.02.22-.77.42-1.98 1.07-2.77 1.53-.48-.43-1.1-.69-1.79-.69-1.49 0-2.7 1.21-2.7 2.7s1.21 2.7 2.7 2.7 2.7-1.21 2.7-2.7c0-.24-.04-.47-.1-.69.6-.34 1.56-.87 2.54-1.4a2.66 2.66 0 0 0 2.1 1.02c.83 0 1.56-.38 2.06-.97l2.8 1.31c-.02.12-.04.24-.04.36 0 1.49 1.21 2.7 2.7 2.7s2.7-1.21 2.7-2.7c0-.28-.05-.55-.13-.8l3.36-2.93c.4.23.86.38 1.35.38 1.49 0 2.7-1.21 2.7-2.7s-1.21-2.7-2.7-2.7ZM7 14.33c-.63 0-1.15-.52-1.15-1.15a1.15 1.15 0 0 1 2.3 0c0 .63-.52 1.15-1.15 1.15Zm7.24-3.77c-.64 0-1.15-.51-1.15-1.14a1.15 1.15 0 0 1 2.3 0c0 .63-.52 1.14-1.15 1.14Zm7.52 3.4c-.63 0-1.15-.52-1.15-1.15s.52-1.15 1.15-1.15a1.15 1.15 0 0 1 0 2.3Zm7.28-6.05c-.63 0-1.15-.52-1.15-1.15a1.15 1.15 0 0 1 2.3 0c0 .63-.52 1.15-1.15 1.15Zm.07 3.99a.82.82 0 0 0-.83.83v9.51c0 .41.31.82.83.82s.83-.31.83-.82v-9.51a.82.82 0 0 0-.83-.83Zm-7.34 6.31a.81.81 0 0 0-.82.82v3.21c0 .41.31.82.82.82.52 0 .83-.31.83-.82v-3.21c0-.41-.31-.82-.83-.82Zm-7.44-3.1c-.41 0-.83.31-.83.82v6.31c0 .41.31.82.83.82s.83-.31.83-.82v-6.31c0-.41-.31-.82-.83-.82Zm-7.44 3.1c-.52 0-.83.41-.83.82v3.21c0 .51.31.82.83.82s.83-.41.83-.82v-3.21c0-.51-.31-.82-.83-.82Zm0 0c-.52 0-.83.41-.83.82v3.21c0 .51.31.82.83.82s.83-.41.83-.82v-3.21c0-.51-.31-.82-.83-.82Zm7.44-3.1c-.41 0-.83.31-.83.82v6.31c0 .41.31.82.83.82s.83-.31.83-.82v-6.31c0-.41-.31-.82-.83-.82Zm7.44 3.1a.81.81 0 0 0-.82.82v3.21c0 .41.31.82.82.82.52 0 .83-.31.83-.82v-3.21c0-.41-.31-.82-.83-.82Zm7.34-6.31a.82.82 0 0 0-.83.83v9.51c0 .41.31.82.83.82s.83-.31.83-.82v-9.51a.82.82 0 0 0-.83-.83Zm-.07-7.84c-1.49 0-2.7 1.21-2.7 2.7 0 .43.11.83.29 1.19l-3.18 2.77c-.46-.38-1.05-.61-1.69-.61-.81 0-1.52.36-2.02.93l-2.83-1.33c.01-.1.03-.19.03-.29 0-1.5-1.21-2.7-2.7-2.7s-2.7 1.2-2.7 2.7c0 .07.02.15.02.22-.77.42-1.98 1.07-2.77 1.53-.48-.43-1.1-.69-1.79-.69-1.49 0-2.7 1.21-2.7 2.7s1.21 2.7 2.7 2.7 2.7-1.21 2.7-2.7c0-.24-.04-.47-.1-.69.6-.34 1.56-.87 2.54-1.4a2.66 2.66 0 0 0 2.1 1.02c.83 0 1.56-.38 2.06-.97l2.8 1.31c-.02.12-.04.24-.04.36 0 1.49 1.21 2.7 2.7 2.7s2.7-1.21 2.7-2.7c0-.28-.05-.55-.13-.8l3.36-2.93c.4.23.86.38 1.35.38 1.49 0 2.7-1.21 2.7-2.7s-1.21-2.7-2.7-2.7ZM7 14.33c-.63 0-1.15-.52-1.15-1.15a1.15 1.15 0 0 1 2.3 0c0 .63-.52 1.15-1.15 1.15Zm7.24-3.77c-.64 0-1.15-.51-1.15-1.14a1.15 1.15 0 0 1 2.3 0c0 .63-.52 1.14-1.15 1.14Zm7.52 3.4c-.63 0-1.15-.52-1.15-1.15s.52-1.15 1.15-1.15a1.15 1.15 0 0 1 0 2.3Zm7.28-6.05c-.63 0-1.15-.52-1.15-1.15a1.15 1.15 0 0 1 2.3 0c0 .63-.52 1.15-1.15 1.15Zm0-3.85c-1.49 0-2.7 1.21-2.7 2.7 0 .43.11.83.29 1.19l-3.18 2.77c-.46-.38-1.05-.61-1.69-.61-.81 0-1.52.36-2.02.93l-2.83-1.33c.01-.1.03-.19.03-.29 0-1.5-1.21-2.7-2.7-2.7s-2.7 1.2-2.7 2.7c0 .07.02.15.02.22-.77.42-1.98 1.07-2.77 1.53-.48-.43-1.1-.69-1.79-.69-1.49 0-2.7 1.21-2.7 2.7s1.21 2.7 2.7 2.7 2.7-1.21 2.7-2.7c0-.24-.04-.47-.1-.69.6-.34 1.56-.87 2.54-1.4a2.66 2.66 0 0 0 2.1 1.02c.83 0 1.56-.38 2.06-.97l2.8 1.31c-.02.12-.04.24-.04.36 0 1.49 1.21 2.7 2.7 2.7s2.7-1.21 2.7-2.7c0-.28-.05-.55-.13-.8l3.36-2.93c.4.23.86.38 1.35.38 1.49 0 2.7-1.21 2.7-2.7s-1.21-2.7-2.7-2.7ZM7 14.33c-.63 0-1.15-.52-1.15-1.15a1.15 1.15 0 0 1 2.3 0c0 .63-.52 1.15-1.15 1.15Zm7.24-3.77c-.64 0-1.15-.51-1.15-1.14a1.15 1.15 0 0 1 2.3 0c0 .63-.52 1.14-1.15 1.14Zm7.52 3.4c-.63 0-1.15-.52-1.15-1.15s.52-1.15 1.15-1.15a1.15 1.15 0 0 1 0 2.3Zm7.28-6.05c-.63 0-1.15-.52-1.15-1.15a1.15 1.15 0 0 1 2.3 0c0 .63-.52 1.15-1.15 1.15Zm.07 3.99a.82.82 0 0 0-.83.83v9.51c0 .41.31.82.83.82s.83-.31.83-.82v-9.51a.82.82 0 0 0-.83-.83Zm-7.34 6.31a.81.81 0 0 0-.82.82v3.21c0 .41.31.82.82.82.52 0 .83-.31.83-.82v-3.21c0-.41-.31-.82-.83-.82Zm-7.44-3.1c-.41 0-.83.31-.83.82v6.31c0 .41.31.82.83.82s.83-.31.83-.82v-6.31c0-.41-.31-.82-.83-.82Zm-7.44 3.1c-.52 0-.83.41-.83.82v3.21c0 .51.31.82.83.82s.83-.41.83-.82v-3.21c0-.51-.31-.82-.83-.82Zm0 0c-.52 0-.83.41-.83.82v3.21c0 .51.31.82.83.82s.83-.41.83-.82v-3.21c0-.51-.31-.82-.83-.82Zm7.44-3.1c-.41 0-.83.31-.83.82v6.31c0 .41.31.82.83.82s.83-.31.83-.82v-6.31c0-.41-.31-.82-.83-.82Zm7.44 3.1a.81.81 0 0 0-.82.82v3.21c0 .41.31.82.82.82.52 0 .83-.31.83-.82v-3.21c0-.41-.31-.82-.83-.82Zm7.34-6.31a.82.82 0 0 0-.83.83v9.51c0 .41.31.82.83.82s.83-.31.83-.82v-9.51a.82.82 0 0 0-.83-.83Zm-.07-7.84c-1.49 0-2.7 1.21-2.7 2.7 0 .43.11.83.29 1.19l-3.18 2.77c-.46-.38-1.05-.61-1.69-.61-.81 0-1.52.36-2.02.93l-2.83-1.33c.01-.1.03-.19.03-.29 0-1.5-1.21-2.7-2.7-2.7s-2.7 1.2-2.7 2.7c0 .07.02.15.02.22-.77.42-1.98 1.07-2.77 1.53-.48-.43-1.1-.69-1.79-.69-1.49 0-2.7 1.21-2.7 2.7s1.21 2.7 2.7 2.7 2.7-1.21 2.7-2.7c0-.24-.04-.47-.1-.69.6-.34 1.56-.87 2.54-1.4a2.66 2.66 0 0 0 2.1 1.02c.83 0 1.56-.38 2.06-.97l2.8 1.31c-.02.12-.04.24-.04.36 0 1.49 1.21 2.7 2.7 2.7s2.7-1.21 2.7-2.7c0-.28-.05-.55-.13-.8l3.36-2.93c.4.23.86.38 1.35.38 1.49 0 2.7-1.21 2.7-2.7s-1.21-2.7-2.7-2.7ZM7 14.33c-.63 0-1.15-.52-1.15-1.15a1.15 1.15 0 0 1 2.3 0c0 .63-.52 1.15-1.15 1.15Zm7.24-3.77c-.64 0-1.15-.51-1.15-1.14a1.15 1.15 0 0 1 2.3 0c0 .63-.52 1.14-1.15 1.14Zm7.52 3.4c-.63 0-1.15-.52-1.15-1.15s.52-1.15 1.15-1.15a1.15 1.15 0 0 1 0 2.3Zm7.28-6.05c-.63 0-1.15-.52-1.15-1.15a1.15 1.15 0 0 1 2.3 0c0 .63-.52 1.15-1.15 1.15Zm0-3.85c-1.49 0-2.7 1.21-2.7 2.7 0 .43.11.83.29 1.19l-3.18 2.77c-.46-.38-1.05-.61-1.69-.61-.81 0-1.52.36-2.02.93l-2.83-1.33c.01-.1.03-.19.03-.29 0-1.5-1.21-2.7-2.7-2.7s-2.7 1.2-2.7 2.7c0 .07.02.15.02.22-.77.42-1.98 1.07-2.77 1.53-.48-.43-1.1-.69-1.79-.69-1.49 0-2.7 1.21-2.7 2.7s1.21 2.7 2.7 2.7 2.7-1.21 2.7-2.7c0-.24-.04-.47-.1-.69.6-.34 1.56-.87 2.54-1.4a2.66 2.66 0 0 0 2.1 1.02c.83 0 1.56-.38 2.06-.97l2.8 1.31c-.02.12-.04.24-.04.36 0 1.49 1.21 2.7 2.7 2.7s2.7-1.21 2.7-2.7c0-.28-.05-.55-.13-.8l3.36-2.93c.4.23.86.38 1.35.38 1.49 0 2.7-1.21 2.7-2.7s-1.21-2.7-2.7-2.7ZM7 14.33c-.63 0-1.15-.52-1.15-1.15a1.15 1.15 0 0 1 2.3 0c0 .63-.52 1.15-1.15 1.15Zm7.24-3.77c-.64 0-1.15-.51-1.15-1.14a1.15 1.15 0 0 1 2.3 0c0 .63-.52 1.14-1.15 1.14Zm7.52 3.4c-.63 0-1.15-.52-1.15-1.15s.52-1.15 1.15-1.15a1.15 1.15 0 0 1 0 2.3Zm7.28-6.05c-.63 0-1.15-.52-1.15-1.15a1.15 1.15 0 0 1 2.3 0c0 .63-.52 1.15-1.15 1.15Zm.07 3.99a.82.82 0 0 0-.83.83v9.51c0 .41.31.82.83.82s.83-.31.83-.82v-9.51a.82.82 0 0 0-.83-.83Zm-7.34 6.31a.81.81 0 0 0-.82.82v3.21c0 .41.31.82.82.82.52 0 .83-.31.83-.82v-3.21c0-.41-.31-.82-.83-.82Zm-7.44-3.1c-.41 0-.83.31-.83.82v6.31c0 .41.31.82.83.82s.83-.31.83-.82v-6.31c0-.41-.31-.82-.83-.82Zm-7.44 3.1c-.52 0-.83.41-.83.82v3.21c0 .51.31.82.83.82s.83-.41.83-.82v-3.21c0-.51-.31-.82-.83-.82Zm0 0c-.52 0-.83.41-.83.82v3.21c0 .51.31.82.83.82s.83-.41.83-.82v-3.21c0-.51-.31-.82-.83-.82Zm7.44-3.1c-.41 0-.83.31-.83.82v6.31c0 .41.31.82.83.82s.83-.31.83-.82v-6.31c0-.41-.31-.82-.83-.82Zm7.44 3.1a.81.81 0 0 0-.82.82v3.21c0 .41.31.82.82.82.52 0 .83-.31.83-.82v-3.21c0-.41-.31-.82-.83-.82Zm7.34-6.31a.82.82 0 0 0-.83.83v9.51c0 .41.31.82.83.82s.83-.31.83-.82v-9.51a.82.82 0 0 0-.83-.83Zm-.07-7.84c-1.49 0-2.7 1.21-2.7 2.7 0 .43.11.83.29 1.19l-3.18 2.77c-.46-.38-1.05-.61-1.69-.61-.81 0-1.52.36-2.02.93l-2.83-1.33c.01-.1.03-.19.03-.29 0-1.5-1.21-2.7-2.7-2.7s-2.7 1.2-2.7 2.7c0 .07.02.15.02.22-.77.42-1.98 1.07-2.77 1.53-.48-.43-1.1-.69-1.79-.69-1.49 0-2.7 1.21-2.7 2.7s1.21 2.7 2.7 2.7 2.7-1.21 2.7-2.7c0-.24-.04-.47-.1-.69.6-.34 1.56-.87 2.54-1.4a2.66 2.66 0 0 0 2.1 1.02c.83 0 1.56-.38 2.06-.97l2.8 1.31c-.02.12-.04.24-.04.36 0 1.49 1.21 2.7 2.7 2.7s2.7-1.21 2.7-2.7c0-.28-.05-.55-.13-.8l3.36-2.93c.4.23.86.38 1.35.38 1.49 0 2.7-1.21 2.7-2.7s-1.21-2.7-2.7-2.7ZM7 14.33c-.63 0-1.15-.52-1.15-1.15a1.15 1.15 0 0 1 2.3 0c0 .63-.52 1.15-1.15 1.15Zm7.24-3.77c-.64 0-1.15-.51-1.15-1.14a1.15 1.15 0 0 1 2.3 0c0 .63-.52 1.14-1.15 1.14Zm7.52 3.4c-.63 0-1.15-.52-1.15-1.15s.52-1.15 1.15-1.15a1.15 1.15 0 0 1 0 2.3Zm7.28-6.05c-.63 0-1.15-.52-1.15-1.15a1.15 1.15 0 0 1 2.3 0c0 .63-.52 1.15-1.15 1.15Zm0-3.85c-1.49 0-2.7 1.21-2.7 2.7 0 .43.11.83.29 1.19l-3.18 2.77c-.46-.38-1.05-.61-1.69-.61-.81 0-1.52.36-2.02.93l-2.83-1.33c.01-.1.03-.19.03-.29 0-1.5-1.21-2.7-2.7-2.7s-2.7 1.2-2.7 2.7c0 .07.02.15.02.22-.77.42-1.98 1.07-2.77 1.53-.48-.43-1.1-.69-1.79-.69-1.49 0-2.7 1.21-2.7 2.7s1.21 2.7 2.7 2.7 2.7-1.21 2.7-2.7c0-.24-.04-.47-.1-.69.6-.34 1.56-.87 2.54-1.4a2.66 2.66 0 0 0 2.1 1.02c.83 0 1.56-.38 2.06-.97l2.8 1.31c-.02.12-.04.24-.04.36 0 1.49 1.21 2.7 2.7 2.7s2.7-1.21 2.7-2.7c0-.28-.05-.55-.13-.8l3.36-2.93c.4.23.86.38 1.35.38 1.49 0 2.7-1.21 2.7-2.7s-1.21-2.7-2.7-2.7ZM7 14.33c-.63 0-1.15-.52-1.15-1.15a1.15 1.15 0 0 1 2.3 0c0 .63-.52 1.15-1.15 1.15Zm7.24-3.77c-.64 0-1.15-.51-1.15-1.14a1.15 1.15 0 0 1 2.3 0c0 .63-.52 1.14-1.15 1.14Zm7.52 3.4c-.63 0-1.15-.52-1.15-1.15s.52-1.15 1.15-1.15a1.15 1.15 0 0 1 0 2.3Zm7.28-6.05c-.63 0-1.15-.52-1.15-1.15a1.15 1.15 0 0 1 2.3 0c0 .63-.52 1.15-1.15 1.15Zm.07 3.99a.82.82 0 0 0-.83.83v9.51c0 .41.31.82.83.82s.83-.31.83-.82v-9.51a.82.82 0 0 0-.83-.83Zm-7.34 6.31a.81.81 0 0 0-.82.82v3.21c0 .41.31.82.82.82.52 0 .83-.31.83-.82v-3.21c0-.41-.31-.82-.83-.82Zm-7.44-3.1c-.41 0-.83.31-.83.82v6.31c0 .41.31.82.83.82s.83-.31.83-.82v-6.31c0-.41-.31-.82-.83-.82Zm-7.44 3.1c-.52 0-.83.41-.83.82v3.21c0 .51.31.82.83.82s.83-.41.83-.82v-3.21c0-.51-.31-.82-.83-.82Zm0 0c-.52 0-.83.41-.83.82v3.21c0 .51.31.82.83.82s.83-.41.83-.82v-3.21c0-.51-.31-.82-.83-.82Zm7.44-3.1c-.41 0-.83.31-.83.82v6.31c0 .41.31.82.83.82s.83-.31.83-.82v-6.31c0-.41-.31-.82-.83-.82Zm7.44 3.1a.81.81 0 0 0-.82.82v3.21c0 .41.31.82.82.82.52 0 .83-.31.83-.82v-3.21c0-.41-.31-.82-.83-.82Zm7.34-6.31a.82.82 0 0 0-.83.83v9.51c0 .41.31.82.83.82s.83-.31.83-.82v-9.51a.82.82 0 0 0-.83-.83Zm-.07-7.84c-1.49 0-2.7 1.21-2.7 2.7 0 .43.11.83.29 1.19l-3.18 2.77c-.46-.38-1.05-.61-1.69-.61-.81 0-1.52.36-2.02.93l-2.83-1.33c.01-.1.03-.19.03-.29 0-1.5-1.21-2.7-2.7-2.7s-2.7 1.2-2.7 2.7c0 .07.02.15.02.22-.77.42-1.98 1.07-2.77 1.53-.48-.43-1.1-.69-1.79-.69-1.49 0-2.7 1.21-2.7 2.7s1.21 2.7 2.7 2.7 2.7-1.21 2.7-2.7c0-.24-.04-.47-.1-.69.6-.34 1.56-.87 2.54-1.4a2.66 2.66 0 0 0 2.1 1.02c.83 0 1.56-.38 2.06-.97l2.8 1.31c-.02.12-.04.24-.04.36 0 1.49 1.21 2.7 2.7 2.7s2.7-1.21 2.7-2.7c0-.28-.05-.55-.13-.8l3.36-2.93c.4.23.86.38 1.35.38 1.49 0 2.7-1.21 2.7-2.7s-1.21-2.7-2.7-2.7ZM7 14.33c-.63 0-1.15-.52-1.15-1.15a1.15 1.15 0 0 1 2.3 0c0 .63-.52 1.15-1.15 1.15Zm7.24-3.77c-.64 0-1.15-.51-1.15-1.14a1.15 1.15 0 0 1 2.3 0c0 .63-.52 1.14-1.15 1.14Zm7.52 3.4c-.63 0-1.15-.52-1.15-1.15s.52-1.15 1.15-1.15a1.15 1.15 0 0 1 0 2.3Zm7.28-6.05c-.63 0-1.15-.52-1.15-1.15a1.15 1.15 0 0 1 2.3 0c0 .63-.52 1.15-1.15 1.15Zm0-3.85c-1.49 0-2.7 1.21-2.7 2.7 0 .43.11.83.29 1.19l-3.18 2.77c-.46-.38-1.05-.61-1.69-.61-.81 0-1.52.36-2.02.93l-2.83-1.33c.01-.1.03-.19.03-.29 0-1.5-1.21-2.7-2.7-2.7s-2.7 1.2-2.7 2.7c0 .07.02.15.02.22-.77.42-1.98 1.07-2.77 1.53-.48-.43-1.1-.69-1.79-.69-1.49 0-2.7 1.21-2.7 2.7s1.21 2.7 2.7 2.7 2.7-1.21 2.7-2.7c0-.24-.04-.47-.1-.69.6-.34 1.56-.87 2.54-1.4a2.66 2.66 0 0 0 2.1 1.02c.83 0 1.56-.38 2.06-.97l2.8 1.31c-.02.12-.04.24-.04.36 0 1.49 1.21 2.7 2.7 2.7s2.7-1.21 2.7-2.7c0-.28-.05-.55-.13-.8l3.36-2.93c.4.23.86.38 1.35.38 1.49 0 2.7-1.21 2.7-2.7s-1.21-2.7-2.7-2.7ZM7 14.33c-.63 0-1.15-.52-1.15-1.15a1.15 1.15 0 0 1 2.3 0c0 .63-.52 1.15-1.15 1.15Zm7.24-3.77c-.64 0-1.15-.51-1.15-1.14a1.15 1.15 0 0 1 2.3 0c0 .63-.52 1.14-1.15 1.14Zm7.52 3.4c-.63 0-1.15-.52-1.15-1.15s.52-1.15 1.15-1.15a1.15 1.15 0 0 1 0 2.3Zm7.28-6.05c-.63 0-1.15-.52-1.15-1.15a1.15 1.15 0 0 1 2.3 0c0 .63-.52 1.15-1.15 1.15Zm.07 3.99a.82.82 0 0 0-.83.83v9.51c0 .41.31.82.83.82s.83-.31.83-.82v-9.51a.82.82 0 0 0-.83-.83Zm-7.34 6.31a.81.81 0 0 0-.82.82v3.21c0 .41.31.82.82.82.52 0 .83-.31.83-.82v-3.21c0-.41-.31-.82-.83-.82Zm-7.44-3.1c-.41 0-.83.31-.83.82v6.31c0 .41.31.82.83.82s.83-.31.83-.82v-6.31c0-.41-.31-.82-.83-.82Zm-7.44 3.1c-.52 0-.83.41-.83.82v3.21c0 .51.31.82.83.82s.83-.41.83-.82v-3.21c0-.51-.31-.82-.83-.82Zm0 0c-.52 0-.83.41-.83.82v3.21c0 .51.31.82.83.82s.83-.41.83-.82v-3.21c0-.51-.31-.82-.83-.82Zm7.44-3.1c-.41 0-.83.31-.83.82v6.31c0 .41.31.82.83.82s.83-.31.83-.82v-6.31c0-.41-.31-.82-.83-.82Zm7.44 3.1a.81.81 0 0 0-.82.82v3.21c0 .41.31.82.82.82.52 0 .83-.31.83-.82v-3.21c0-.41-.31-.82-.83-.82Zm7.34-6.31a.82.82 0 0 0-.83.83v9.51c0 .41.31.82.83.82s.83-.31.83-.82v-9.51a.82.82 0 0 0-.83-.83Zm-.07-7.84c-1.49 0-2.7 1.21-2.7 2.7 0 .43.11.83.29 1.19l-3.18 2.77c-.46-.38-1.05-.61-1.69-.61-.81 0-1.52.36-2.02.93l-2.83-1.33c.01-.1.03-.19.03-.29 0-1.5-1.21-2.7-2.7-2.7s-2.7 1.2-2.7 2.7c0 .07.02.15.02.22-.77.42-1.98 1.07-2.77 1.53-.48-.43-1.1-.69-1.79-.69-1.49 0-2.7 1.21-2.7 2.7s1.21 2.7 2.7 2.7 2.7-1.21 2.7-2.7c0-.24-.04-.47-.1-.69.6-.34 1.56-.87 2.54-1.4a2.66 2.66 0 0 0 2.1 1.02c.83 0 1.56-.38 2.06-.97l2.8 1.31c-.02.12-.04.24-.04.36 0 1.49 1.21 2.7 2.7 2.7s2.7-1.21 2.7-2.7c0-.28-.05-.55-.13-.8l3.36-2.93c.4.23.86.38 1.35.38 1.49 0 2.7-1.21 2.7-2.7s-1.21-2.7-2.7-2.7ZM7 14.33c-.63 0-1.15-.52-1.15-1.15a1.15 1.15 0 0 1 2.3 0c0 .63-.52 1.15-1.15 1.15Zm7.24-3.77c-.64 0-1.15-.51-1.15-1.14a1.15 1.15 0 0 1 2.3 0c0 .63-.52 1.14-1.15 1.14Zm7.52 3.4c-.63 0-1.15-.52-1.15-1.15s.52-1.15 1.15-1.15a1.15 1.15 0 0 1 0 2.3Zm7.28-6.05c-.63 0-1.15-.52-1.15-1.15a1.15 1.15 0 0 1 2.3 0c0 .63-.52 1.15-1.15 1.15Zm0-3.85c-1.49 0-2.7 1.21-2.7 2.7 0 .43.11.83.29 1.19l-3.18 2.77c-.46-.38-1.05-.61-1.69-.61-.81 0-1.52.36-2.02.93l-2.83-1.33c.01-.1.03-.19.03-.29 0-1.5-1.21-2.7-2.7-2.7s-2.7 1.2-2.7 2.7c0 .07.02.15.02.22-.77.42-1.98 1.07-2.77 1.53-.48-.43-1.1-.69-1.79-.69-1.49 0-2.7 1.21-2.7 2.7s1.21 2.7 2.7 2.7 2.7-1.21 2.7-2.7c0-.24-.04-.47-.1-.69.6-.34 1.56-.87 2.54-1.4a2.66 2.66 0 0 0 2.1 1.02c.83 0 1.56-.38 2.06-.97l2.8 1.31c-.02.12-.04.24-.04.36 0 1.49 1.21 2.7 2.7 2.7s2.7-1.21 2.7-2.7c0-.28-.05-.55-.13-.8l3.36-2.93c.4.23.86.38 1.35.38 1.49 0 2.7-1.21 2.7-2.7s-1.21-2.7-2.7-2.7ZM7 14.33c-.63 0-1.15-.52-1.15-1.15a1.15 1.15 0 0 1 2.3 0c0 .63-.52 1.15-1.15 1.15Zm7.24-3.77c-.64 0-1.15-.51-1.15-1.14a1.15 1.15 0 0 1 2.3 0c0 .63-.52 1.14-1.15 1.14Zm7.52 3.4c-.63 0-1.15-.52-1.15-1.15s.52-1.15 1.15-1.15a1.15 1.15 0 0 1 0 2.3Zm7.28-6.05c-.63 0-1.15-.52-1.15-1.15a1.15 1.15 0 0 1 2.3 0c0 .63-.52 1.15-1.15 1.15Zm.07 3.99a.82.82 0 0 0-.83.83v9.51c0 .41.31.82.83.82s.83-.31.83-.82v-9.51a.82.82 0 0 0-.83-.83Zm-7.34 6.31a.81.81 0 0 0-.82.82v3.21c0 .41.31.82.82.82.52 0 .83-.31.83-.82v-3.21c0-.41-.31-.82-.83-.82Zm-7.44-3.1c-.41 0-.83.31-.83.82v6.31c0 .41.31.82.83.82s.83-.31.83-.82v-6.31c0-.41-.31-.82-.83-.82Zm-7.44 3.1c-.52 0-.83.41-.83.82v3.21c0 .51.31.82.83.82s.83-.41.83-.82v-3.21c0-.51-.31-.82-.83-.82Zm0 0c-.52 0-.83.41-.83.82v3.21c0 .51.31.82.83.82s.83-.41.83-.82v-3.21c0-.51-.31-.82-.83-.82Zm7.44-3.1c-.41 0-.83.31-.83.82v6.31c0 .41.31.82.83.82s.83-.31.83-.82v-6.31c0-.41-.31-.82-.83-.82Zm7.44 3.1a.81.81 0 0 0-.82.82v3.21c0 .41.31.82.82.82.52 0 .83-.31.83-.82v-3.21c0-.41-.31-.82-.83-.82Zm7.34-6.31a.82.82 0 0 0-.83.83v9.51c0 .41.31.82.83.82s.83-.31.83-.82v-9.51a.82.82 0 0 0-.83-.83Zm-.07-7.84c-1.49 0-2.7 1.21-2.7 2.7 0 .43.11.83.29 1.19l-3.18 2.77c-.46-.38-1.05-.61-1.69-.61-.81 0-1.52.36-2.02.93l-2.83-1.33c.01-.1.03-.19.03-.29 0-1.5-1.21-2.7-2.7-2.7s-2.7 1.2-2.7 2.7c0 .07.02.15.02.22-.77.42-1.98 1.07-2.77 1.53-.48-.43-1.1-.69-1.79-.69-1.49 0-2.7 1.21-2.7 2.7s1.21 2.7 2.7 2.7 2.7-1.21 2.7-2.7c0-.24-.04-.47-.1-.69.6-.34 1.56-.87 2.54-1.4a2.66 2.66 0 0 0 2.1 1.02c.83 0 1.56-.38 2.06-.97l2.8 1.31c-.02.12-.04.24-.04.36 0 1.49 1.21 2.7 2.7 2.7s2.7-1.21 2.7-2.7c0-.28-.05-.55-.13-.8l3.36-2.93c.4.23.86.38 1.35.38 1.49 0 2.7-1.21 2.7-2.7s-1.21-2.7-2.7-2.7ZM7 14.33c-.63 0-1.15-.52-1.15-1.15a1.15 1.15 0 0 1 2.3 0c0 .63-.52 1.15-1.15 1.15Zm7.24-3.77c-.64 0-1.15-.51-1.15-1.14a1.15 1.15 0 0 1 2.3 0c0 .63-.52 1.14-1.15 1.14Zm7.52 3.4c-.63 0-1.15-.52-1.15-1.15s.52-1.15 1.15-1.15a1.15 1.15 0 0 1 0 2.3Zm7.28-6.05c-.63 0-1.15-.52-1.15-1.15a1.15 1.15 0 0 1 2.3 0c0 .63-.52 1.15-1.15 1.15Zm0-3.85c-1.49 0-2.7 1.21-2.7 2.7 0 .43.11.83.29 1.19l-3.18 2.77c-.46-.38-1.05-.61-1.69-.61-.81 0-1.52.36-2.02.93l-2.83-1.33c.01-.1.03-.19.03-.29 0-1.5-1.21-2.7-2.7-2.7s-2.7 1.2-2.7 2.7c0 .07.02.15.02.22-.77.42-1.98 1.07-2.77 1.53-.48-.43-1.1-.69-1.79-.69-1.49 0-2.7 1.21-2.7 2.7s1.21 2.7 2.7 2.7 2.7-1.21 2.7-2.7c0-.24-.04-.47-.1-.69.6-.34 1.56-.87 2.54-1.4a2.66 2.66 0 0 0 2.1 1.02c.83 0 1.56-.38 2.06-.97l2.8 1.31c-.02.12-.04.24-.04.36 0 1.49 1.21 2.7 2.7 2.7s2.7-1.21 2.7-2.7c0-.28-.05-.55-.13-.8l3.36-2.93c.4.23.86.38 1.35.38 1.49 0 2.7-1.21 2.7-2.7s-1.21-2.7-2.7-2.7ZM7 14.33c-.63 0-1.15-.52-1.15-1.15a1.15 1.15 0 0 1 2.3 0c0 .63-.52 1.15-1.15 1.15Zm7.24-3.77c-.64 0-1.15-.51-1.15-1.14a1.15 1.15 0 0 1 2.3 0c0 .63-.52 1.14-1.15 1.14Zm7.52 3.4c-.63 0-1.15-.52-1.15-1.15s.52-1.15 1.15-1.15a1.15 1.15 0 0 1 0 2.3Zm7.28-6.05c-.63 0-1.15-.52-1.15-1.15a1.15 1.15 0 0 1 2.3 0c0 .63-.52 1.15-1.15 1.15Zm.07 3.99a.82.82 0 0 0-.83.83v9.51c0 .41.31.82.83.82s.83-.31.83-.82v-9.51a.82.82 0 0 0-.83-.83Zm-7.34 6.31a.81.81 0 0 0-.82.82v3.21c0 .41.31.82.82.82.52 0 .83-.31.83-.82v-3.21c0-.41-.31-.82-.83-.82Zm-7.44-3.1c-.41 0-.83.31-.83.82v6.31c0 .41.31.82.83.82s.83-.31.83-.82v-6.31c0-.41-.31-.82-.83-.82Zm-7.44 3.1c-.52 0-.83.41-.83.82v3.21c0 .51.31.82.83.82s.83-.41.83-.82v-3.21c0-.51-.31-.82-.83-.82Zm0 0c-.52 0-.83.41-.83.82v3.21c0 .51.31.82.83.82s.83-.41.83-.82v-3.21c0-.51-.31-.82-.83-.82Zm7.44-3.1c-.41 0-.83.31-.83.82v6.31c0 .41.31.82.83.82s.83-.31.83-.82v-6.31c0-.41-.31-.82-.83-.82Zm7.44 3.1a.81.81 0 0 0-.82.82v3.21c0 .41.31.82.82.82.52 0 .83-.31.83-.82v-3.21c0-.41-.31-.82-.83-.82Zm7.34-6.31a.82.82 0 0 0-.83.83v9.51c0 .41.31.82.83.82s.83-.31.83-.82v-9.51a.82.82 0 0 0-.83-.83Zm-.07-7.84c-1.49 0-2.7 1.21-2.7 2.7 0 .43.11.83.29 1.19l-3.18 2.77c-.46-.38-1.05-.61-1.69-.61-.81 0-1.52.36-2.02.93l-2.83-1.33c.01-.1.03-.19.03-.29 0-1.5-1.21-2.7-2.7-2.7s-2.7 1.2-2.7 2.7c0 .07.02.15.02.22-.77.42-1.98 1.07-2.77 1.53-.48-.43-1.1-.69-1.79-.69-1.49 0-2.7 1.21-2.7 2.7s1.21 2.7 2.7 2.7 2.7-1.21 2.7-2.7c0-.24-.04-.47-.1-.69.6-.34 1.56-.87 2.54-1.4a2.66 2.66 0 0 0 2.1 1.02c.83 0 1.56-.38 2.06-.97l2.8 1.31c-.02.12-.04.24-.04.36 0 1.49 1.21 2.7 2.7 2.7s2.7-1.21 2.7-2.7c0-.28-.05-.55-.13-.8l3.36-2.93c.4.23.86.38 1.35.38 1.49 0 2.7-1.21 2.7-2.7s-1.21-2.7-2.7-2.7ZM7 14.33c-.63 0-1.15-.52-1.15-1.15a1.15 1.15 0 0 1 2.3 0c0 .63-.52 1.15-1.15 1.15Zm7.24-3.77c-.64 0-1.15-.51-1.15-1.14a1.15 1.15 0 0 1 2.3 0c0 .63-.52 1.14-1.15 1.14Zm7.52 3.4c-.63 0-1.15-.52-1.15-1.15s.52-1.15 1.15-1.15a1.15 1.15 0 0 1 0 2.3Zm7.28-6.05c-.63 0-1.15-.52-1.15-1.15a1.15 1.15 0 0 1 2.3 0c0 .63-.52 1.15-1.15 1.15Zm0-3.85c-1.49 0-2.7 1.21-2.7 2.7 0 .43.11.83.29 1.19l-3.18 2.77c-.46-.38-1.05-.61-1.69-.61-.81 0-1.52.36-2.02.93l-2.83-1.33c.01-.1.03-.19.03-.29 0-1.5-1.21-2.7-2.7-2.7s-2.7 1.2-2.7 2.7c0 .07.02.15.02.22-.77.42-1.98 1.07-2.77 1.53-.48-.43-1.1-.69-1.79-.69-1.49 0-2.7 1.21-2.7 2.7s1.21 2.7 2.7 2.7 2.7-1.21 2.7-2.7c0-.24-.04-.47-.1-.69.6-.34 1.56-.87 2.54-1.4a2.66 2.66 0 0 0 2.1 1.02c.83 0 1.56-.38 2.06-.97l2.8 1.31c-.02.12-.04.24-.04.36 0 1.49 1.21 2.7 2.7 2.7s2.7-1.21 2.7-2.7c0-.28-.05-.55-.13-.8l3.36-2.93c.4.23.86.38 1.35.38 1.49 0 2.7-1.21 2.7-2.7s-1.21-2.7-2.7-2.7ZM7 14.33c-.63 0-1.15-.52-1.15-1.15a1.15 1.15 0 0 1 2.3 0c0 .63-.52 1.15-1.15 1.15Zm7.24-3.77c-.64 0-1.15-.51-1.15-1.14a1.15 1.15 0 0 1 2.3 0c0 .63-.52 1.14-1.15 1.14Zm7.52 3.4c-.63 0-1.15-.52-1.15-1.15s.52-1.15 1.15-1.15a1.15 1.15 0 0 1 0 2.3Zm7.28-6.05c-.63 0-1.15-.52-1.15-1.15a1.15 1.15 0 0 1 2.3 0c0 .63-.52 1.15-1.15 1.15Z" style="currentColor"/>
</svg>
