<svg xmlns="http://www.w3.org/2000/svg" viewBox="0 0 36 36">
    <path data-name="Quick start" d="M25.84 8.84c-2.2-1.3-5.1-.5-6.4 1.7s-.5 5.1 1.7 6.4 5.1.5 6.4-1.7c1.3-2.2.5-5.1-1.7-6.4Zm.3 5.7c-.9 1.5-2.8 2-4.3 1.2-1.5-.9-2-2.8-1.2-4.3.9-1.5 2.8-2 4.3-1.2 1.5.9 2 2.8 1.2 4.3Zm-.3-5.7c-2.2-1.3-5.1-.5-6.4 1.7s-.5 5.1 1.7 6.4 5.1.5 6.4-1.7c1.3-2.2.5-5.1-1.7-6.4Zm.3 5.7c-.9 1.5-2.8 2-4.3 1.2-1.5-.9-2-2.8-1.2-4.3.9-1.5 2.8-2 4.3-1.2 1.5.9 2 2.8 1.2 4.3Zm-.3-5.7c-2.2-1.3-5.1-.5-6.4 1.7s-.5 5.1 1.7 6.4 5.1.5 6.4-1.7c1.3-2.2.5-5.1-1.7-6.4Zm.3 5.7c-.9 1.5-2.8 2-4.3 1.2-1.5-.9-2-2.8-1.2-4.3.9-1.5 2.8-2 4.3-1.2 1.5.9 2 2.8 1.2 4.3Zm-.3-5.7c-2.2-1.3-5.1-.5-6.4 1.7s-.5 5.1 1.7 6.4 5.1.5 6.4-1.7c1.3-2.2.5-5.1-1.7-6.4Zm.3 5.7c-.9 1.5-2.8 2-4.3 1.2-1.5-.9-2-2.8-1.2-4.3.9-1.5 2.8-2 4.3-1.2 1.5.9 2 2.8 1.2 4.3Zm-.3-5.7c-2.2-1.3-5.1-.5-6.4 1.7s-.5 5.1 1.7 6.4 5.1.5 6.4-1.7c1.3-2.2.5-5.1-1.7-6.4Zm.3 5.7c-.9 1.5-2.8 2-4.3 1.2-1.5-.9-2-2.8-1.2-4.3.9-1.5 2.8-2 4.3-1.2 1.5.9 2 2.8 1.2 4.3Zm-.3-5.7c-2.2-1.3-5.1-.5-6.4 1.7s-.5 5.1 1.7 6.4 5.1.5 6.4-1.7c1.3-2.2.5-5.1-1.7-6.4Zm.3 5.7c-.9 1.5-2.8 2-4.3 1.2-1.5-.9-2-2.8-1.2-4.3.9-1.5 2.8-2 4.3-1.2 1.5.9 2 2.8 1.2 4.3Zm-.3-5.7c-2.2-1.3-5.1-.5-6.4 1.7s-.5 5.1 1.7 6.4 5.1.5 6.4-1.7c1.3-2.2.5-5.1-1.7-6.4Zm.3 5.7c-.9 1.5-2.8 2-4.3 1.2-1.5-.9-2-2.8-1.2-4.3.9-1.5 2.8-2 4.3-1.2 1.5.9 2 2.8 1.2 4.3Zm-.3-5.7c-2.2-1.3-5.1-.5-6.4 1.7s-.5 5.1 1.7 6.4 5.1.5 6.4-1.7c1.3-2.2.5-5.1-1.7-6.4Zm.3 5.7c-.9 1.5-2.8 2-4.3 1.2-1.5-.9-2-2.8-1.2-4.3.9-1.5 2.8-2 4.3-1.2 1.5.9 2 2.8 1.2 4.3Zm-.3-5.7c-2.2-1.3-5.1-.5-6.4 1.7s-.5 5.1 1.7 6.4 5.1.5 6.4-1.7c1.3-2.2.5-5.1-1.7-6.4Zm.3 5.7c-.9 1.5-2.8 2-4.3 1.2-1.5-.9-2-2.8-1.2-4.3.9-1.5 2.8-2 4.3-1.2 1.5.9 2 2.8 1.2 4.3Zm-.3-5.7c-2.2-1.3-5.1-.5-6.4 1.7s-.5 5.1 1.7 6.4 5.1.5 6.4-1.7c1.3-2.2.5-5.1-1.7-6.4Zm.3 5.7c-.9 1.5-2.8 2-4.3 1.2-1.5-.9-2-2.8-1.2-4.3.9-1.5 2.8-2 4.3-1.2 1.5.9 2 2.8 1.2 4.3Zm-.3-5.7c-2.2-1.3-5.1-.5-6.4 1.7s-.5 5.1 1.7 6.4 5.1.5 6.4-1.7c1.3-2.2.5-5.1-1.7-6.4Zm.3 5.7c-.9 1.5-2.8 2-4.3 1.2-1.5-.9-2-2.8-1.2-4.3.9-1.5 2.8-2 4.3-1.2 1.5.9 2 2.8 1.2 4.3Zm-.3-5.7c-2.2-1.3-5.1-.5-6.4 1.7s-.5 5.1 1.7 6.4 5.1.5 6.4-1.7c1.3-2.2.5-5.1-1.7-6.4Zm.3 5.7c-.9 1.5-2.8 2-4.3 1.2-1.5-.9-2-2.8-1.2-4.3.9-1.5 2.8-2 4.3-1.2 1.5.9 2 2.8 1.2 4.3Zm-.3-5.7c-2.2-1.3-5.1-.5-6.4 1.7s-.5 5.1 1.7 6.4 5.1.5 6.4-1.7c1.3-2.2.5-5.1-1.7-6.4Zm.3 5.7c-.9 1.5-2.8 2-4.3 1.2-1.5-.9-2-2.8-1.2-4.3.9-1.5 2.8-2 4.3-1.2 1.5.9 2 2.8 1.2 4.3Zm-.3-5.7c-2.2-1.3-5.1-.5-6.4 1.7s-.5 5.1 1.7 6.4 5.1.5 6.4-1.7c1.3-2.2.5-5.1-1.7-6.4Zm.3 5.7c-.9 1.5-2.8 2-4.3 1.2-1.5-.9-2-2.8-1.2-4.3.9-1.5 2.8-2 4.3-1.2 1.5.9 2 2.8 1.2 4.3Zm-.3-5.7c-2.2-1.3-5.1-.5-6.4 1.7s-.5 5.1 1.7 6.4 5.1.5 6.4-1.7c1.3-2.2.5-5.1-1.7-6.4Zm.3 5.7c-.9 1.5-2.8 2-4.3 1.2-1.5-.9-2-2.8-1.2-4.3.9-1.5 2.8-2 4.3-1.2 1.5.9 2 2.8 1.2 4.3Zm3.2 7.9v-.1c4.4-7.6 3.1-17 2.3-20.9-.2-1-1.2-1.6-2.3-1.3-3.8 1.2-12.5 4.8-16.9 12.4l-.6 1.2-5.5 2c-.2 0-.4.3-.5.5l-2.3 7.5c0 .2 0 .5.1.7.2.2.4.3.7.3l5-.6v.3c0 .7.4 1.4 1 1.7l8.3 4.8c.6.4 1.4.4 2 0 0 0 .2 0 .2-.1l2 4.7c0 .2.3.4.6.4s.5 0 .7-.2l5.4-5.8c.2-.2.2-.4.2-.6l-1-5.9c.2-.3.4-.7.6-1Zm-15.6-9.2v.1c4.1-7.1 12.4-10.5 16.1-11.8h.2l.1.2c.8 3.8 2 12.7-2.1 19.8-1.3 2.2-3 4.1-4.8 5.6l-12-6.9c.4-2.4 1.2-4.7 2.5-7Zm-4 7.1v.3c-.1.6-.2 1.3-.2 1.9l-4.2.5 1.9-6.1 3.8-1.4c-.6 1.6-1 3.2-1.3 4.8Zm10.2 9.3h-.5l-8.3-4.8c-.2 0-.2-.3-.2-.4 0-.8 0-1.7.2-2.5l10.9 6.3c-.7.5-1.4 1-2.1 1.4Zm3.9 4.2h-.1l-1.6-3.9 1.5-1.2s.1 0 .2-.1c1.3-1 2.5-2.2 3.6-3.6l.7 4.1-4.3 4.7Zm3.7-18.6c1.3-2.2.5-5.1-1.7-6.4-2.2-1.3-5.1-.5-6.4 1.7s-.5 5.1 1.7 6.4 5.1.5 6.4-1.7Zm-5.7.5c-1.5-.9-2-2.8-1.2-4.3.9-1.5 2.8-2 4.3-1.2 1.5.9 2 2.8 1.2 4.3-.9 1.5-2.8 2-4.3 1.2Zm4-6.9c-2.2-1.3-5.1-.5-6.4 1.7s-.5 5.1 1.7 6.4 5.1.5 6.4-1.7c1.3-2.2.5-5.1-1.7-6.4Zm.3 5.7c-.9 1.5-2.8 2-4.3 1.2-1.5-.9-2-2.8-1.2-4.3.9-1.5 2.8-2 4.3-1.2 1.5.9 2 2.8 1.2 4.3Zm-.3-5.7c-2.2-1.3-5.1-.5-6.4 1.7s-.5 5.1 1.7 6.4 5.1.5 6.4-1.7c1.3-2.2.5-5.1-1.7-6.4Zm.3 5.7c-.9 1.5-2.8 2-4.3 1.2-1.5-.9-2-2.8-1.2-4.3.9-1.5 2.8-2 4.3-1.2 1.5.9 2 2.8 1.2 4.3Zm-.3-5.7c-2.2-1.3-5.1-.5-6.4 1.7s-.5 5.1 1.7 6.4 5.1.5 6.4-1.7c1.3-2.2.5-5.1-1.7-6.4Zm.3 5.7c-.9 1.5-2.8 2-4.3 1.2-1.5-.9-2-2.8-1.2-4.3.9-1.5 2.8-2 4.3-1.2 1.5.9 2 2.8 1.2 4.3Zm-.3-5.7c-2.2-1.3-5.1-.5-6.4 1.7s-.5 5.1 1.7 6.4 5.1.5 6.4-1.7c1.3-2.2.5-5.1-1.7-6.4Zm.3 5.7c-.9 1.5-2.8 2-4.3 1.2-1.5-.9-2-2.8-1.2-4.3.9-1.5 2.8-2 4.3-1.2 1.5.9 2 2.8 1.2 4.3Zm-.3-5.7c-2.2-1.3-5.1-.5-6.4 1.7s-.5 5.1 1.7 6.4 5.1.5 6.4-1.7c1.3-2.2.5-5.1-1.7-6.4Zm.3 5.7c-.9 1.5-2.8 2-4.3 1.2-1.5-.9-2-2.8-1.2-4.3.9-1.5 2.8-2 4.3-1.2 1.5.9 2 2.8 1.2 4.3Zm-.3-5.7c-2.2-1.3-5.1-.5-6.4 1.7s-.5 5.1 1.7 6.4 5.1.5 6.4-1.7c1.3-2.2.5-5.1-1.7-6.4Zm.3 5.7c-.9 1.5-2.8 2-4.3 1.2-1.5-.9-2-2.8-1.2-4.3.9-1.5 2.8-2 4.3-1.2 1.5.9 2 2.8 1.2 4.3Zm-.3-5.7c-2.2-1.3-5.1-.5-6.4 1.7s-.5 5.1 1.7 6.4 5.1.5 6.4-1.7c1.3-2.2.5-5.1-1.7-6.4Zm.3 5.7c-.9 1.5-2.8 2-4.3 1.2-1.5-.9-2-2.8-1.2-4.3.9-1.5 2.8-2 4.3-1.2 1.5.9 2 2.8 1.2 4.3Zm-.3-5.7c-2.2-1.3-5.1-.5-6.4 1.7s-.5 5.1 1.7 6.4 5.1.5 6.4-1.7c1.3-2.2.5-5.1-1.7-6.4Zm.3 5.7c-.9 1.5-2.8 2-4.3 1.2-1.5-.9-2-2.8-1.2-4.3.9-1.5 2.8-2 4.3-1.2 1.5.9 2 2.8 1.2 4.3Zm-.3-5.7c-2.2-1.3-5.1-.5-6.4 1.7s-.5 5.1 1.7 6.4 5.1.5 6.4-1.7c1.3-2.2.5-5.1-1.7-6.4Zm.3 5.7c-.9 1.5-2.8 2-4.3 1.2-1.5-.9-2-2.8-1.2-4.3.9-1.5 2.8-2 4.3-1.2 1.5.9 2 2.8 1.2 4.3Zm-.3-5.7c-2.2-1.3-5.1-.5-6.4 1.7s-.5 5.1 1.7 6.4 5.1.5 6.4-1.7c1.3-2.2.5-5.1-1.7-6.4Zm.3 5.7c-.9 1.5-2.8 2-4.3 1.2-1.5-.9-2-2.8-1.2-4.3.9-1.5 2.8-2 4.3-1.2 1.5.9 2 2.8 1.2 4.3Zm-.3-5.7c-2.2-1.3-5.1-.5-6.4 1.7s-.5 5.1 1.7 6.4 5.1.5 6.4-1.7c1.3-2.2.5-5.1-1.7-6.4Zm.3 5.7c-.9 1.5-2.8 2-4.3 1.2-1.5-.9-2-2.8-1.2-4.3.9-1.5 2.8-2 4.3-1.2 1.5.9 2 2.8 1.2 4.3Zm-.3-5.7c-2.2-1.3-5.1-.5-6.4 1.7s-.5 5.1 1.7 6.4 5.1.5 6.4-1.7c1.3-2.2.5-5.1-1.7-6.4Zm.3 5.7c-.9 1.5-2.8 2-4.3 1.2-1.5-.9-2-2.8-1.2-4.3.9-1.5 2.8-2 4.3-1.2 1.5.9 2 2.8 1.2 4.3Zm-.3-5.7c-2.2-1.3-5.1-.5-6.4 1.7s-.5 5.1 1.7 6.4 5.1.5 6.4-1.7c1.3-2.2.5-5.1-1.7-6.4Zm.3 5.7c-.9 1.5-2.8 2-4.3 1.2-1.5-.9-2-2.8-1.2-4.3.9-1.5 2.8-2 4.3-1.2 1.5.9 2 2.8 1.2 4.3Zm-15.9 13.2c-.3-.2-.8-.1-1 .3l-.8 1.4c-.2.3-.1.8.3 1 .3.2.8.1 1-.3l.8-1.4c.2-.3.1-.8-.3-1Zm3.5 2c-.3-.2-.8-.1-1 .3l-2 3.4c-.2.3-.1.8.3 1 .3.2.8.1 1-.3l2-3.4c.2-.3.1-.8-.3-1Zm3.6 2.1c-.3-.2-.8-.1-1 .3l-.8 1.4c-.2.3-.1.8.3 1 .3.2.8.1 1-.3l.8-1.4c.2-.3.1-.8-.3-1Z" style="fill:currentColor"/>
</svg>
