<svg xmlns="http://www.w3.org/2000/svg" viewBox="0 0 36 36">
    <path data-name="RecallFast" d="m35.45 33.35-4.91-4.9c2.54-3 4.08-6.88 4.08-11.11C34.62 7.81 26.89.09 17.37.09S.12 7.81.12 17.34s7.72 17.24 17.25 17.24c4.2 0 8.05-1.5 11.05-4.01l4.9 4.9c.3.29.68.44 1.06.44.39 0 .77-.15 1.07-.44.58-.59.58-1.54 0-2.12Zm-18.08-.77c-8.41 0-15.25-6.84-15.25-15.24S8.96 2.09 17.37 2.09s15.25 6.84 15.25 15.25-6.84 15.24-15.25 15.24Zm-5.632-5.364-1.516 2.578c-.152.303-.531.379-.758.227-.303-.152-.379-.531-.227-.758l1.516-2.578c.152-.303.531-.379.758-.227.303.152.379.531.227.758Zm2.729 1.592-.606 1.061c-.152.303-.531.379-.758.227-.303-.152-.379-.531-.227-.758l.607-1.061c.152-.303.531-.379.758-.227.303.152.379.531.227.758Zm-5.383-3.109-.607 1.061c-.152.303-.531.379-.758.227-.303-.152-.379-.531-.227-.758l.607-1.061c.152-.303.531-.379.758-.227.303.152.379.531.227.758Zm11.599-15.086c-1.668-.986-3.867-.379-4.852 1.289-.986 1.668-.379 3.866 1.289 4.852 1.668.986 3.866.379 4.852-1.289.986-1.668.379-3.866-1.289-4.852Zm.228 4.321a2.458 2.458 0 0 1-3.26.91 2.458 2.458 0 0 1-.91-3.26 2.458 2.458 0 0 1 3.26-.91 2.458 2.458 0 0 1 .91 3.26Zm2.426 5.913c3.336-5.762 2.35-12.888 1.744-15.845-.152-.758-.91-1.213-1.744-.986-2.881.91-9.477 3.639-12.812 9.401l-.455.91-4.17 1.516c-.152 0-.303.227-.379.379l-1.744 5.686c0 .152 0 .379.076.531a.687.687 0 0 0 .531.227l3.791-.455v.227c0 .531.303 1.061.758 1.289l6.292 3.639a1.378 1.378 0 0 0 1.516 0s.152 0 .152-.076l1.516 3.563c0 .152.227.303.455.303s.379 0 .531-.152l4.094-4.397c.152-.152.152-.303.152-.455l-.758-4.473c.152-.227.303-.531.455-.758v-.076ZM8.478 19.331v.227c-.076.455-.152.986-.152 1.44l-3.184.379 1.44-4.625 2.881-1.061c-.455 1.213-.758 2.426-.986 3.639Zm7.733 7.051h-.379L9.54 22.743c-.152 0-.152-.227-.152-.303 0-.606 0-1.289.152-1.895l8.264 4.776c-.531.379-1.061.758-1.592 1.061Zm2.956 3.184h-.076l-1.213-2.957 1.137-.91s.076 0 .152-.076a15.486 15.486 0 0 0 2.729-2.729l.531 3.108-3.26 3.563Zm3.184-9.325a16.565 16.565 0 0 1-3.639 4.245l-9.097-5.231c.303-1.82.91-3.563 1.895-5.307v.076c3.108-5.383 9.401-7.96 12.206-8.946h.152l.076.152c.607 2.881 1.516 9.628-1.592 15.011Z" style="fill:currentColor"/>
</svg>
