<svg xmlns="http://www.w3.org/2000/svg" viewBox="0 0 36 36">
    <path data-name="RecallAvg" d="M26.211 28.307h-1.69c.03-.03.07-.06.1-.09.56-.68.79-1.55.63-2.41-.82-4.41-3.58-6.64-6.44-8.62 2.86-1.97 5.61-4.19 6.44-8.56.14-.74-.03-1.48-.43-2.11h1.39c.4 0 .72-.32.72-.72 0-.14-.04-.28-.11-.39l-.01-.01a.774.774 0 0 0-.6-.32H8.861c-.39 0-.71.33-.71.72 0 .4.32.72.71.72h1.39c-.39.63-.56 1.37-.42 2.11.82 4.37 3.58 6.59 6.44 8.56-2.86 1.98-5.62 4.21-6.44 8.62-.16.86.07 1.73.63 2.41l.09.09h-1.69c-.39 0-.71.32-.71.72s.32.72.71.72h17.35c.37 0 .67-.27.71-.63.01-.03.01-.06.01-.09 0-.4-.32-.72-.72-.72Zm-14.18-18.99c.75 2.61 2.18 4.33 3.86 5.84-2.2-1.65-4.03-3.55-4.65-6.8a1.511 1.511 0 0 1 1.49-1.78h9.62c.45 0 .87.2 1.16.55.29.34.41.79.33 1.23-.63 3.3-2.51 5.21-4.75 6.87.7-.7 1.38-1.45 1.52-1.62.71-.82 2.35-2.47 2.09-3.81-.47 0-1.04.32-1.55.56-.15.08-.29.14-.43.19-.71.26-1.43.48-2.16.61-1.44.25-2.96.12-4.24-.69-.54-.33-.98-.84-1.51-1.17-.12-.08-.94-.57-.78.02Zm11.48 17.98a1.5 1.5 0 0 1-1.16.55h-.24c-.31-1.48-2.52-2.96-4.31-3.78l-.26-5.89-.26 5.89c-1.73.75-3.27 1.53-3.73 3.07l-.65.71h-.17a1.511 1.511 0 0 1-1.49-1.78c.76-4.08 3.41-6.04 6.3-8.01 2.89 1.97 5.54 3.93 6.3 8.01.08.44-.04.89-.33 1.23ZM35.57 33.44l-4.91-4.9c2.54-3 4.07-6.88 4.07-11.12C34.73 7.9 27.01.17 17.48.17S.24 7.9.24 17.42s7.72 17.25 17.24 17.25c4.21 0 8.06-1.51 11.06-4.01l4.9 4.9c.3.29.68.44 1.06.44.39 0 .77-.15 1.07-.44.58-.59.58-1.54 0-2.12Zm-8.46-4.21a15.154 15.154 0 0 1-9.63 3.44c-8.4 0-15.24-6.84-15.24-15.25S9.08 2.17 17.48 2.17c3.44 0 6.62 1.14 9.17 3.07.12.09.24.18.35.27l.01.01c3.48 2.8 5.72 7.09 5.72 11.9 0 4.76-2.19 9.02-5.62 11.81Z" style="fill:currentColor"/>
</svg>
