<svg xmlns="http://www.w3.org/2000/svg" viewBox="0 0 36 36">
    <path data-name="RecallSlow" d="m35.448 33.35-4.91-4.9c2.54-3 4.08-6.88 4.08-11.11C34.617 7.81 26.888.09 17.367.09S.117 7.81.117 17.34s7.72 17.24 17.25 17.24c4.2 0 8.05-1.5 11.05-4.01l4.9 4.9c.3.29.68.44 1.06.44.39 0 .77-.15 1.07-.44.58-.59.58-1.54 0-2.12Zm-18.081-.77c-8.41 0-15.25-6.84-15.25-15.24S8.958 2.09 17.367 2.09s15.25 6.84 15.25 15.25-6.84 15.24-15.25 15.24Zm12.234-21.799c-3.668-1.492-3.799 3.418-5.192 5.993-4.197 7.755-14.262 4.796-18.305 1.623 0 0-1.395 1.131-2.693 1.637s-1.708.651-1.106.843c.602.192 2.069-.29 3.681.166s-.095 1.876-.552 2.55c.89 0 3.32.07 4.426.069 0-.746-.073-1.539.985-1.396 1.059.144 8.539-.27 9.959-.559 1.419-.29.627 1.924.627 1.924l4.57-.003c-.362-1.924-1.927-3.559-1.398-4.233 1.779-2.383 4.544-3.779 6.395-5.585 2.429-1.373-.098-2.502-1.397-3.03Zm-.48 1.612a.53.53 0 0 1-.001-1.059.53.53 0 0 1 .001 1.059Zm-18.688 5.544c-.935 1.394-1.394 1.685-1.899 1.42-4.317-2.258.154-5.656 2.233-6.159 1.011.865 1.925 1.37-.334 4.739Zm1.032-5.245c1.226-1.636 3.487-1.758 4.329-1.398.41 1.804-.215 2.478-1.586 2.888s-1.924.29-2.743-1.49Zm5.459-1.206c1.804-.843 4.186.503 4.957 2.234-.721 1.155-2.549 1.445-3.728 1.205s-2.599-1.057-1.229-3.439Zm6.643 5.433c-1.151 1.182-2.154 3.01-2.453.627-.169-1.347-.554-1.804.287-2.454.863-.667 1.202-.891 1.948-.194s1.155 1.058.218 2.02Zm-5.125-1.561c1.858.276 1.708.552 2.07 2.212.476 2.185.163 2.16-1.995 2.864-4.137 1.35-2.838-.672-2.455-2.308.552-2.358.118-3.103 2.38-2.768Zm-3.488-.743c1.516.432 1.06 1.807.604 3.56-.84 3.224-1.396 3.042-3.005 2.576-2.815-.816-2.049-1.445-1.277-3.15 1.057-2.334 2.371-3.358 3.679-2.985Z" style="fill:currentColor"/>
</svg>
