<svg xmlns="http://www.w3.org/2000/svg" viewBox="0 0 36 36">
    <path data-name="Server" d="M25.78 29.38c-.74 0-1.33.6-1.33 1.33s.59 1.32 1.33 1.32c.73 0 1.32-.59 1.32-1.32s-.59-1.33-1.32-1.33Zm0-7.6c-.74 0-1.33.6-1.33 1.33s.59 1.32 1.33 1.32c.73 0 1.32-.59 1.32-1.32s-.59-1.33-1.32-1.33Zm0-8.96c-.74 0-1.33.59-1.33 1.32s.59 1.33 1.33 1.33c.73 0 1.32-.6 1.32-1.33s-.59-1.32-1.32-1.32Zm0-8.35c-.74 0-1.33.59-1.33 1.33 0 .73.59 1.32 1.33 1.32.73 0 1.32-.59 1.32-1.32 0-.74-.59-1.33-1.32-1.33Zm4.45 24.91c-.73 0-1.32.6-1.32 1.33s.59 1.32 1.32 1.32 1.33-.59 1.33-1.32-.6-1.33-1.33-1.33Zm0-7.6c-.73 0-1.32.6-1.32 1.33s.59 1.32 1.32 1.32 1.33-.59 1.33-1.32-.6-1.33-1.33-1.33Zm0-8.96c-.73 0-1.32.59-1.32 1.32s.59 1.33 1.32 1.33 1.33-.6 1.33-1.33-.6-1.32-1.33-1.32Zm0-8.35c-.73 0-1.32.59-1.32 1.33 0 .73.59 1.32 1.32 1.32s1.33-.59 1.33-1.32c0-.74-.6-1.33-1.33-1.33Zm0 0c-.73 0-1.32.59-1.32 1.33 0 .73.59 1.32 1.32 1.32s1.33-.59 1.33-1.32c0-.74-.6-1.33-1.33-1.33Zm-4.45 0c-.74 0-1.33.59-1.33 1.33 0 .73.59 1.32 1.33 1.32.73 0 1.32-.59 1.32-1.32 0-.74-.59-1.33-1.32-1.33Zm4.45 8.35c-.73 0-1.32.59-1.32 1.32s.59 1.33 1.32 1.33 1.33-.6 1.33-1.33-.6-1.32-1.33-1.32Zm-4.45 0c-.74 0-1.33.59-1.33 1.32s.59 1.33 1.33 1.33c.73 0 1.32-.6 1.32-1.33s-.59-1.32-1.32-1.32Zm4.45 8.96c-.73 0-1.32.6-1.32 1.33s.59 1.32 1.32 1.32 1.33-.59 1.33-1.32-.6-1.33-1.33-1.33Zm-4.45 0c-.74 0-1.33.6-1.33 1.33s.59 1.32 1.33 1.32c.73 0 1.32-.59 1.32-1.32s-.59-1.33-1.32-1.33Zm4.45 7.6c-.73 0-1.32.6-1.32 1.33s.59 1.32 1.32 1.32 1.33-.59 1.33-1.32-.6-1.33-1.33-1.33Zm-4.45 0c-.74 0-1.33.6-1.33 1.33s.59 1.32 1.33 1.32c.73 0 1.32-.59 1.32-1.32s-.59-1.33-1.32-1.33Zm0 0c-.74 0-1.33.6-1.33 1.33s.59 1.32 1.33 1.32c.73 0 1.32-.59 1.32-1.32s-.59-1.33-1.32-1.33Zm0-7.6c-.74 0-1.33.6-1.33 1.33s.59 1.32 1.33 1.32c.73 0 1.32-.59 1.32-1.32s-.59-1.33-1.32-1.33Zm0-8.96c-.74 0-1.33.59-1.33 1.32s.59 1.33 1.33 1.33c.73 0 1.32-.6 1.32-1.33s-.59-1.32-1.32-1.32Zm0-8.35c-.74 0-1.33.59-1.33 1.33 0 .73.59 1.32 1.33 1.32.73 0 1.32-.59 1.32-1.32 0-.74-.59-1.33-1.32-1.33Zm4.45 24.91c-.73 0-1.32.6-1.32 1.33s.59 1.32 1.32 1.32 1.33-.59 1.33-1.32-.6-1.33-1.33-1.33Zm0-7.6c-.73 0-1.32.6-1.32 1.33s.59 1.32 1.32 1.32 1.33-.59 1.33-1.32-.6-1.33-1.33-1.33Zm0-8.96c-.73 0-1.32.59-1.32 1.32s.59 1.33 1.32 1.33 1.33-.6 1.33-1.33-.6-1.32-1.33-1.32Zm0-8.35c-.73 0-1.32.59-1.32 1.33 0 .73.59 1.32 1.32 1.32s1.33-.59 1.33-1.32c0-.74-.6-1.33-1.33-1.33Zm0 0c-.73 0-1.32.59-1.32 1.33 0 .73.59 1.32 1.32 1.32s1.33-.59 1.33-1.32c0-.74-.6-1.33-1.33-1.33Zm-4.45 0c-.74 0-1.33.59-1.33 1.33 0 .73.59 1.32 1.33 1.32.73 0 1.32-.59 1.32-1.32 0-.74-.59-1.33-1.32-1.33Zm4.45 8.35c-.73 0-1.32.59-1.32 1.32s.59 1.33 1.32 1.33 1.33-.6 1.33-1.33-.6-1.32-1.33-1.32Zm-4.45 0c-.74 0-1.33.59-1.33 1.32s.59 1.33 1.33 1.33c.73 0 1.32-.6 1.32-1.33s-.59-1.32-1.32-1.32Zm4.45 8.96c-.73 0-1.32.6-1.32 1.33s.59 1.32 1.32 1.32 1.33-.59 1.33-1.32-.6-1.33-1.33-1.33Zm-4.45 0c-.74 0-1.33.6-1.33 1.33s.59 1.32 1.33 1.32c.73 0 1.32-.59 1.32-1.32s-.59-1.33-1.32-1.33Zm4.45 7.6c-.73 0-1.32.6-1.32 1.33s.59 1.32 1.32 1.32 1.33-.59 1.33-1.32-.6-1.33-1.33-1.33Zm-4.45 0c-.74 0-1.33.6-1.33 1.33s.59 1.32 1.33 1.32c.73 0 1.32-.59 1.32-1.32s-.59-1.33-1.32-1.33ZM33.63.92H2.37C1.2.92.25 1.87.25 3.04v29.92c0 1.17.95 2.12 2.12 2.12h31.26c1.17 0 2.12-.95 2.12-2.12V3.04c0-1.17-.95-2.12-2.12-2.12Zm.12 32.04c0 .07-.05.12-.12.12H2.37c-.06 0-.12-.05-.12-.12v-4.88h31.5v4.88Zm0-6.88H2.25V19.5h31.5v6.58Zm0-8.58H2.25v-6.58h31.5v6.58Zm0-8.58H2.25V3.04c0-.07.06-.12.12-.12h31.26c.07 0 .12.05.12.12v5.88Zm-3.52-4.45c-.73 0-1.32.59-1.32 1.33 0 .73.59 1.32 1.32 1.32s1.33-.59 1.33-1.32c0-.74-.6-1.33-1.33-1.33Zm0 11c.73 0 1.33-.6 1.33-1.33s-.6-1.32-1.33-1.32-1.32.59-1.32 1.32.59 1.33 1.32 1.33Zm0 8.96c.73 0 1.33-.59 1.33-1.32s-.6-1.33-1.33-1.33-1.32.6-1.32 1.33.59 1.32 1.32 1.32Zm0 7.6c.73 0 1.33-.59 1.33-1.32s-.6-1.33-1.33-1.33-1.32.6-1.32 1.33.59 1.32 1.32 1.32ZM25.78 4.47c-.74 0-1.33.59-1.33 1.33 0 .73.59 1.32 1.33 1.32.73 0 1.32-.59 1.32-1.32 0-.74-.59-1.33-1.32-1.33Zm0 11c.73 0 1.32-.6 1.32-1.33s-.59-1.32-1.32-1.32c-.74 0-1.33.59-1.33 1.32s.59 1.33 1.33 1.33Zm0 8.96c.73 0 1.32-.59 1.32-1.32s-.59-1.33-1.32-1.33c-.74 0-1.33.6-1.33 1.33s.59 1.32 1.33 1.32Zm0 7.6c.73 0 1.32-.59 1.32-1.32s-.59-1.33-1.32-1.33c-.74 0-1.33.6-1.33 1.33s.59 1.32 1.33 1.32Zm0-2.65c-.74 0-1.33.6-1.33 1.33s.59 1.32 1.33 1.32c.73 0 1.32-.59 1.32-1.32s-.59-1.33-1.32-1.33Zm4.45 0c-.73 0-1.32.6-1.32 1.33s.59 1.32 1.32 1.32 1.33-.59 1.33-1.32-.6-1.33-1.33-1.33Zm-4.45-7.6c-.74 0-1.33.6-1.33 1.33s.59 1.32 1.33 1.32c.73 0 1.32-.59 1.32-1.32s-.59-1.33-1.32-1.33Zm4.45 0c-.73 0-1.32.6-1.32 1.33s.59 1.32 1.32 1.32 1.33-.59 1.33-1.32-.6-1.33-1.33-1.33Zm-4.45-8.96c-.74 0-1.33.59-1.33 1.32s.59 1.33 1.33 1.33c.73 0 1.32-.6 1.32-1.33s-.59-1.32-1.32-1.32Zm4.45 0c-.73 0-1.32.59-1.32 1.32s.59 1.33 1.32 1.33 1.33-.6 1.33-1.33-.6-1.32-1.33-1.32Zm-4.45-8.35c-.74 0-1.33.59-1.33 1.33 0 .73.59 1.32 1.33 1.32.73 0 1.32-.59 1.32-1.32 0-.74-.59-1.33-1.32-1.33Zm4.45 0c-.73 0-1.32.59-1.32 1.33 0 .73.59 1.32 1.32 1.32s1.33-.59 1.33-1.32c0-.74-.6-1.33-1.33-1.33Zm0 0c-.73 0-1.32.59-1.32 1.33 0 .73.59 1.32 1.32 1.32s1.33-.59 1.33-1.32c0-.74-.6-1.33-1.33-1.33Zm0 8.35c-.73 0-1.32.59-1.32 1.32s.59 1.33 1.32 1.33 1.33-.6 1.33-1.33-.6-1.32-1.33-1.32Zm0 8.96c-.73 0-1.32.6-1.32 1.33s.59 1.32 1.32 1.32 1.33-.59 1.33-1.32-.6-1.33-1.33-1.33Zm0 7.6c-.73 0-1.32.6-1.32 1.33s.59 1.32 1.32 1.32 1.33-.59 1.33-1.32-.6-1.33-1.33-1.33ZM25.78 4.47c-.74 0-1.33.59-1.33 1.33 0 .73.59 1.32 1.33 1.32.73 0 1.32-.59 1.32-1.32 0-.74-.59-1.33-1.32-1.33Zm0 8.35c-.74 0-1.33.59-1.33 1.32s.59 1.33 1.33 1.33c.73 0 1.32-.6 1.32-1.33s-.59-1.32-1.32-1.32Zm0 8.96c-.74 0-1.33.6-1.33 1.33s.59 1.32 1.33 1.32c.73 0 1.32-.59 1.32-1.32s-.59-1.33-1.32-1.33Zm0 7.6c-.74 0-1.33.6-1.33 1.33s.59 1.32 1.33 1.32c.73 0 1.32-.59 1.32-1.32s-.59-1.33-1.32-1.33Zm0-24.91c-.74 0-1.33.59-1.33 1.33 0 .73.59 1.32 1.33 1.32.73 0 1.32-.59 1.32-1.32 0-.74-.59-1.33-1.32-1.33Zm4.45 0c-.73 0-1.32.59-1.32 1.33 0 .73.59 1.32 1.32 1.32s1.33-.59 1.33-1.32c0-.74-.6-1.33-1.33-1.33Zm-4.45 24.91c-.74 0-1.33.6-1.33 1.33s.59 1.32 1.33 1.32c.73 0 1.32-.59 1.32-1.32s-.59-1.33-1.32-1.33Zm4.45 0c-.73 0-1.32.6-1.32 1.33s.59 1.32 1.32 1.32 1.33-.59 1.33-1.32-.6-1.33-1.33-1.33Zm-4.45-7.6c-.74 0-1.33.6-1.33 1.33s.59 1.32 1.33 1.32c.73 0 1.32-.59 1.32-1.32s-.59-1.33-1.32-1.33Zm4.45 0c-.73 0-1.32.6-1.32 1.33s.59 1.32 1.32 1.32 1.33-.59 1.33-1.32-.6-1.33-1.33-1.33Zm-4.45-8.96c-.74 0-1.33.59-1.33 1.32s.59 1.33 1.33 1.33c.73 0 1.32-.6 1.32-1.33s-.59-1.32-1.32-1.32Zm4.45 0c-.73 0-1.32.59-1.32 1.32s.59 1.33 1.32 1.33 1.33-.6 1.33-1.33-.6-1.32-1.33-1.32Zm-4.45-8.35c-.74 0-1.33.59-1.33 1.33 0 .73.59 1.32 1.33 1.32.73 0 1.32-.59 1.32-1.32 0-.74-.59-1.33-1.32-1.33Zm4.45 0c-.73 0-1.32.59-1.32 1.33 0 .73.59 1.32 1.32 1.32s1.33-.59 1.33-1.32c0-.74-.6-1.33-1.33-1.33Zm-4.45 8.35c-.74 0-1.33.59-1.33 1.32s.59 1.33 1.33 1.33c.73 0 1.32-.6 1.32-1.33s-.59-1.32-1.32-1.32Zm4.45 0c-.73 0-1.32.59-1.32 1.32s.59 1.33 1.32 1.33 1.33-.6 1.33-1.33-.6-1.32-1.33-1.32Zm-4.45 8.96c-.74 0-1.33.6-1.33 1.33s.59 1.32 1.33 1.32c.73 0 1.32-.59 1.32-1.32s-.59-1.33-1.32-1.33Zm4.45 0c-.73 0-1.32.6-1.32 1.33s.59 1.32 1.32 1.32 1.33-.59 1.33-1.32-.6-1.33-1.33-1.33Zm-4.45 7.6c-.74 0-1.33.6-1.33 1.33s.59 1.32 1.33 1.32c.73 0 1.32-.59 1.32-1.32s-.59-1.33-1.32-1.33Zm4.45 0c-.73 0-1.32.6-1.32 1.33s.59 1.32 1.32 1.32 1.33-.59 1.33-1.32-.6-1.33-1.33-1.33Z" style="fill:currentColor"/>
</svg>
