<svg xmlns="http://www.w3.org/2000/svg" id="Settings" viewBox="0 0 36 36">
  <defs>
    <style>
      .cls-1{fill:currentColor}
    </style>
  </defs>
  <g id="Settings-2" data-name="Settings">
    <path d="M35.689 20.993v-5.986l-3.406-.952-1.394-3.365 1.735-3.082-4.233-4.233-3.082 1.735-3.365-1.394L20.992.31h-5.986l-.952 3.406-3.365 1.394-3.082-1.735-4.233 4.233 1.735 3.082-1.394 3.365-3.406.952v5.986l3.406.952 1.394 3.365-1.735 3.082 4.233 4.233 3.082-1.735 3.365 1.394.952 3.406h5.986l.952-3.406 3.365-1.394 3.082 1.735 4.233-4.233-1.735-3.082 1.394-3.365zM18 29.547c-6.367 0-11.547-5.18-11.547-11.547S11.633 6.453 18 6.453 29.547 11.633 29.547 18 24.367 29.547 18 29.547M28.033 5.994l1.973 1.973-1.065 1.891a13.7 13.7 0 0 0-2.799-2.799zM16.605 2.416h2.79l.584 2.091c-.648-.094-1.305-.16-1.979-.16s-1.331.065-1.979.16zM7.967 5.994l1.891 1.065a13.7 13.7 0 0 0-2.799 2.799L5.994 7.967zM2.416 19.395v-2.79l2.091-.584c-.094.648-.16 1.305-.16 1.979s.065 1.331.16 1.979zm5.551 10.611-1.973-1.973 1.065-1.891a13.7 13.7 0 0 0 2.799 2.799zm11.428 3.578h-2.79l-.584-2.091c.648.094 1.305.16 1.979.16s1.331-.065 1.979-.16zm8.638-3.578-1.891-1.065a13.7 13.7 0 0 0 2.799-2.799l1.065 1.891zm3.46-10.027c.094-.648.16-1.305.16-1.979s-.065-1.331-.16-1.979l2.091.584v2.79z" class="cls-1"/>
    <path d="M18 11.721a6.279 6.279 0 1 0 0 12.557 6.279 6.279 0 0 0 0-12.557m0 10.452c-2.301 0-4.173-1.872-4.173-4.173s1.872-4.173 4.173-4.173 4.173 1.872 4.173 4.173-1.872 4.173-4.173 4.173" class="cls-1"/>
  </g>
</svg>
