<svg xmlns="http://www.w3.org/2000/svg" viewBox="0 0 36 36">
    <path data-name="StatusOnline" d="M33.86 16.79H29.2L25.13 1.52C24.96.87 24.38.41 23.71.4h-.03c-.66 0-1.25.44-1.43 1.08l-4.86 16.4-3.04 10.71-3.03-10.71a1.5 1.5 0 0 0-1.45-1.09H2.14c-.82 0-1.5.67-1.5 1.5 0 .82.68 1.5 1.5 1.5h6.6l4.17 14.72a1.5 1.5 0 0 0 1.44 1.09c.68 0 1.26-.45 1.45-1.09l4.47-15.8 3.34-11.26 2.98 11.22c.18.66.77 1.12 1.45 1.12h5.82c.82 0 1.5-.68 1.5-1.5 0-.83-.68-1.5-1.5-1.5Zm-.54 5.5H22.35c-.87 0-1.57.7-1.57 1.57v9.86c0 .87.7 1.57 1.57 1.57h10.97c.87 0 1.58-.7 1.58-1.57v-9.86c0-.87-.71-1.57-1.58-1.57ZM22.35 34.37c-.36 0-.65-.29-.65-.65v-3.16l3.49 3.74c.02.03.06.04.09.07h-2.93Zm.85-6.01c-.39-.42-1-.51-1.5-.27v-4.23c0-.36.29-.65.65-.65h9.6l-5.94 8.17-2.81-3.02Zm10.77 5.36c0 .36-.29.65-.65.65h-6.31c.07-.06.13-.12.18-.19l6.78-9.33v8.87Z" style="fill:#6dbe4c"/>
</svg>
