<svg xmlns="http://www.w3.org/2000/svg" viewBox="0 0 36 36">
    <path data-name="StatusOffline" d="M33.76 16.79H29.1L25.04 1.52C24.87.87 24.28.41 23.61.4h-.02c-.66 0-1.25.44-1.44 1.08l-4.85 16.4-3.04 10.71-3.04-10.71c-.18-.65-.77-1.09-1.44-1.09H2.05c-.83 0-1.5.67-1.5 1.5 0 .82.67 1.5 1.5 1.5h6.6l4.17 14.72c.18.64.77 1.09 1.44 1.09s1.26-.45 1.44-1.09l4.48-15.8 3.33-11.26 2.99 11.22c.17.66.77 1.12 1.45 1.12h5.81c.83 0 1.5-.68 1.5-1.5 0-.83-.67-1.5-1.5-1.5Zm.04 4.72H22.28c-.91 0-1.66.75-1.66 1.66v10.35c0 .91.75 1.65 1.66 1.65H33.8c.91 0 1.65-.74 1.65-1.65V23.17c0-.91-.74-1.66-1.65-1.66Zm-1.63.98-4.37 3.87-4.21-3.87h8.58ZM21.6 31.86v-7.51l4.15 3.83-4.15 3.68Zm1.46 2.34c0-.01.01-.01.02-.01l4.69-4.16 4.52 4.17h-9.23Zm11.42-1.57a1.35 1.35 0 0 0-.27-.37l-4.39-4.04 4.37-3.88c.13-.11.21-.24.29-.38v8.67Z" style="fill:#ef4444"/>
</svg>
