<svg xmlns="http://www.w3.org/2000/svg" viewBox="0 0 36 36">
    <path data-name="System" d="M33.329 18.555c-.573 0-1.093.225-1.488.592h-6.142v-2.293h5.993c.403.416.96.673 1.575.673 1.231 0 2.229-1.032 2.229-2.304s-.998-2.304-2.229-2.304-2.229 1.032-2.229 2.304c0 .083.005.164.013.245H25.7v-2.293h3.426l.027.001c1.618 0 2.929-1.356 2.929-3.028S30.771 7.12 29.153 7.12c-.094 0-.186.006-.277.014.009-.091.014-.184.014-.277 0-1.618-1.356-2.929-3.028-2.929s-3.028 1.312-3.028 2.929l.001.027v3.417h-2.293V4.95c.08.008.162.013.245.013 1.272 0 2.304-.998 2.304-2.229S22.059.505 20.787.505s-2.304.998-2.304 2.229c0 .615.257 1.171.673 1.575v5.993h-2.293V4.16c.367-.395.592-.915.592-1.488 0-1.231-1.032-2.229-2.304-2.229s-2.304.998-2.304 2.229 1.032 2.229 2.304 2.229c.111 0 .219-.01.326-.025v5.425h-2.323V6.579c-.141-1.491-1.436-2.66-3.014-2.66-1.672 0-3.028 1.312-3.028 2.929 0 .097.006.192.015.286a2.827 2.827 0 0 0-.278-.014c-1.618 0-2.929 1.356-2.929 3.028s1.312 3.028 2.929 3.028l.027-.001h3.426v2.293H4.951c.008-.08.013-.162.013-.245 0-1.272-.998-2.304-2.229-2.304S.507 13.951.507 15.223s.998 2.304 2.229 2.304c.615 0 1.171-.257 1.575-.673h5.993v2.293H4.162a2.177 2.177 0 0 0-1.488-.592c-1.231 0-2.229 1.032-2.229 2.304s.998 2.304 2.229 2.304 2.229-1.032 2.229-2.304c0-.111-.01-.219-.025-.326h5.425v2.323H6.581c-1.491.141-2.66 1.436-2.66 3.014 0 1.672 1.312 3.028 2.929 3.028.093 0 .186-.006.277-.014a2.97 2.97 0 0 0-.014.269c0 1.618 1.356 2.929 3.028 2.929 1.578 0 2.873-1.169 3.014-2.66V25.7h2.323v5.425a2.338 2.338 0 0 0-.326-.025c-1.272 0-2.304.998-2.304 2.229s1.032 2.229 2.304 2.229 2.304-.998 2.304-2.229c0-.573-.225-1.093-.592-1.488v-6.142h2.293v5.993c-.416.403-.673.96-.673 1.575 0 1.231 1.032 2.229 2.304 2.229s2.304-.998 2.304-2.229-1.032-2.229-2.304-2.229a2.48 2.48 0 0 0-.245.013V25.7h2.293v3.435l-.001.027c0 1.618 1.356 2.929 3.028 2.929s3.028-1.311 3.028-2.929c0-.094-.006-.186-.014-.277.091.009.184.014.277.014 1.618 0 2.929-1.356 2.929-3.028 0-1.578-1.169-2.873-2.66-3.014h-3.722v-2.323h5.425a2.338 2.338 0 0 0-.025.326c0 1.272.998 2.304 2.229 2.304s2.229-1.032 2.229-2.304-.998-2.304-2.229-2.304Zm-.062-4.25c.465 0 .843.412.843.918s-.378.918-.843.918-.843-.412-.843-.918.378-.918.843-.918ZM2.734 16.141c-.465 0-.843-.412-.843-.918s.378-.918.843-.918.843.412.843.918-.378.918-.843.918Zm-.062 5.636c-.465 0-.843-.412-.843-.918s.378-.918.843-.918.843.412.843.918-.378.918-.843.918Zm4.203-9.988h-.052c-.839-.015-1.518-.745-1.518-1.641 0-.905.693-1.642 1.544-1.642s1.544.737 1.544 1.642c0 .896-.678 1.626-1.518 1.641Zm1.623-4.94c0-.851.737-1.544 1.642-1.544s1.642.693 1.642 1.544-.737 1.544-1.642 1.544S8.498 7.7 8.498 6.849ZM6.849 27.512c-.851 0-1.544-.737-1.544-1.642s.693-1.642 1.544-1.642 1.544.737 1.544 1.642-.693 1.642-1.544 1.642Zm3.291 3.183c-.905 0-1.642-.693-1.642-1.544s.737-1.544 1.642-1.544 1.642.693 1.642 1.544-.737 1.544-1.642 1.544Zm1.659-3.993a3.084 3.084 0 0 0-2.046-.453 3.084 3.084 0 0 0-.455-2.038h1.003v.103c0 .765.621 1.386 1.386 1.386h.111v1.003Zm0-16.401h-.111c-.765 0-1.386.621-1.386 1.386v.103h-.993a3.086 3.086 0 0 0 .442-2.038 3.084 3.084 0 0 0 2.048-.453v1.003Zm8.987-8.411c.506 0 .918.378.918.843s-.412.843-.918.843-.918-.378-.918-.843.412-.843.918-.843Zm-5.635 1.625c-.506 0-.918-.378-.918-.843s.412-.843.918-.843.918.378.918.843-.412.843-.918.843Zm0 30.657c-.506 0-.918-.378-.918-.843s.412-.843.918-.843.918.378.918.843-.412.843-.918.843Zm5.635-1.749c.506 0 .918.378.918.843s-.412.843-.918.843-.918-.378-.918-.843.412-.843.918-.843Zm.482-12.541c0 .765-.621 1.386-1.386 1.386h-3.764a1.387 1.387 0 0 1-1.386-1.386v-3.764c0-.765.621-1.386 1.386-1.386h3.764c.765 0 1.386.621 1.386 1.386v3.764Zm7.884-11.376c.851 0 1.544.737 1.544 1.642 0 .896-.678 1.626-1.518 1.641h-.052c-.839-.015-1.518-.745-1.518-1.641 0-.905.693-1.642 1.544-1.642ZM24.22 6.832c.015-.839.745-1.518 1.641-1.518.905 0 1.642.693 1.642 1.544s-.737 1.544-1.642 1.544c-.896 0-1.626-.678-1.641-1.518v-.052Zm4.932 17.395c.851 0 1.544.737 1.544 1.642s-.693 1.642-1.544 1.642-1.544-.737-1.544-1.642.693-1.642 1.544-1.642Zm-1.649 4.933c0 .851-.737 1.544-1.642 1.544-.896 0-1.626-.678-1.641-1.518v-.052c.015-.839.745-1.518 1.641-1.518.905 0 1.642.693 1.642 1.544Zm-.801-4.949a3.084 3.084 0 0 0-.453 2.047 3.086 3.086 0 0 0-2.029.443v-1.002h.094c.765 0 1.386-.621 1.386-1.386v-.103h1.004Zm-2.389-13.91h-.094v-.984a3.086 3.086 0 0 0 2.029.443 3.086 3.086 0 0 0 .443 2.029h-.993v-.103c0-.765-.621-1.386-1.386-1.386Zm9.016 11.476c-.465 0-.843-.412-.843-.918s.378-.918.843-.918.843.412.843.918-.378.918-.843.918Z" style="fill:currentColor"/>
</svg>
