<svg xmlns="http://www.w3.org/2000/svg" viewBox="0 0 36 36">
    <path d="M28.71 14.41c2.24-1.28 3.76-3.76 3.76-6.61 0-4.16-3.25-7.55-7.25-7.55-2.37 0-4.46 1.19-5.79 3.03a5.688 5.688 0 0 0-3.5-1.21c-3.17 0-5.78 2.64-5.95 5.96a4.359 4.359 0 0 0-3.14-1.34c-2.5 0-4.54 2.16-4.54 4.82 0 1.82.96 3.41 2.37 4.23-2.6.88-4.43 3.3-4.43 6.06v6.94c0 .34.27.62.61.62.35 0 .61-.28.61-.62V21.8c0-2.57 1.99-4.78 4.63-5.13q.01-.01.02-.01c.59-.07 1.07-.06 1.61.02.41.06.81.17 1.18.32-1.02 1.39-1.64 3.1-1.64 4.93v9.11c0 .45.36.81.81.81.44 0 .79-.36.79-.81v-9.11c0-1.53.53-2.97 1.46-4.12.25-.32.52-.62.83-.89a7.144 7.144 0 0 1 3.8-1.74s.01-.01.02-.01c.79-.09 1.41-.08 2.12.03.69.1 1.34.3 1.94.59-2.63 1.85-4.33 4.83-4.33 8.13v10.86c0 .53.43.97.97.97.53 0 .97-.44.97-.97V23.92c0-2.92 1.65-5.53 4.16-6.95.49-.3 1.02-.54 1.58-.72.52-.18 1.07-.3 1.64-.38h.05c.94-.11 1.7-.1 2.56.03 4.16.64 7.19 4.01 7.19 8.02v10.86c0 .53.44.97.96.97.54 0 .98-.44.98-.97V23.92c0-4.37-2.88-8.12-7.05-9.51Zm-21.87.85c-1.92 0-3.48-1.68-3.48-3.75s1.56-3.74 3.48-3.74c1.93 0 3.49 1.67 3.49 3.74s-1.56 3.75-3.49 3.75Zm2.9.76c-.23-.11-.46-.21-.71-.29 1.17-.68 2.02-1.89 2.27-3.33.49.63 1.09 1.16 1.77 1.56a8.663 8.663 0 0 0-3.33 2.06Zm6.19-2.7c-2.53 0-4.58-2.2-4.58-4.92s2.05-4.92 4.58-4.92c1.05 0 2.02.38 2.78 1.02-.47 1-.73 2.12-.73 3.3 0 1.51.43 2.92 1.17 4.1-.83.88-1.95 1.42-3.22 1.42Zm4.77 1.53c-.59-.37-1.22-.67-1.88-.9.44-.26.83-.57 1.19-.93.5.56 1.09 1.03 1.75 1.4-.37.12-.73.26-1.06.43Zm4.52-1.18c-1.67 0-3.17-.78-4.18-2.01-.36-.42-.65-.9-.87-1.41a6.07 6.07 0 0 1-.51-2.45c0-.63.1-1.23.27-1.79.16-.55.4-1.05.7-1.51 1-1.55 2.69-2.56 4.59-2.56 3.08 0 5.56 2.62 5.56 5.86s-2.48 5.87-5.56 5.87Z" style="fill:currentColor"/>
</svg>
