<svg xmlns="http://www.w3.org/2000/svg" viewBox="0 0 36 36">
    <path data-name="VectorDB" d="m35.55 13.951-.1.09c-.37-1.5-1.88-2.44-3.48-1.97-.37.09-.75.28-1.03.56l-12.23-7.34c.37-.75.47-1.5.28-2.35-.47-1.79-2.26-2.82-4.05-2.35-1.79.47-2.82 2.26-2.35 4.05 0 .28.19.56.38.84l-8.19 5.74c-.66-.37-1.41-.56-2.26-.37-1.5.37-2.44 1.97-2.07 3.48.38 1.5 1.88 2.44 3.48 1.97.29 0 .57-.19.85-.37l4.33 4.32-2.73 7.34h-.94c-1.22.29-1.98 1.6-1.69 2.92.28 1.22 1.6 1.98 2.82 1.69.75-.18 1.32-.75 1.6-1.41l11.57 2.45c.47 1.69 2.26 2.63 3.95 2.16a3.27 3.27 0 0 0 2.35-4.04c0-.38-.18-.66-.37-.94l6.11-12.99c.57.19 1.13.19 1.7 0 1.5-.37 2.44-1.88 2.07-3.48Zm-31.99.85c-.76.19-1.51-.29-1.7-1.04-.18-.75.29-1.5 1.04-1.69s1.5.28 1.69 1.03c.19.76-.28 1.51-1.03 1.7Zm2.63 15.9c-.47.09-1.03-.19-1.13-.66-.09-.47.19-1.04.66-1.13.47-.09 1.04.19 1.13.66.09.47-.19 1.03-.66 1.13Zm23.99-16.94h-.09c-.09.28-.19.57-.19.85l-6.3.75v-.37c-.66-2.55-3.2-4.05-5.74-3.39-1.88.47-3.11 1.97-3.48 3.76l-1.7-.47 2.92-7.9h1.13c.47-.1.85-.28 1.13-.57l12.32 7.34Zm-10.44 5.55c-1.79.47-3.57-.66-4.05-2.35-.47-1.79.66-3.57 2.36-4.04 1.69-.48 3.57.56 4.04 2.35.47 1.79-.56 3.57-2.35 4.04Zm-4.42-17.4c1.03-.29 2.07.37 2.26 1.31.28 1.04-.38 2.07-1.32 2.26-1.04.28-2.07-.37-2.26-1.31-.28-1.04.38-2.07 1.32-2.26Zm-1.36 4.54a.52.52 0 0 0-.05-.03H14l-.04.03c.06.03.17.1.23.16l-3.01 7.9L6 13.101v-.37c0-.19-.09-.38-.18-.57l8.14-5.71Zm-8.23 8.17c-.01.05-.01.08-.01.08v-.09l.01.01c.01-.06.03-.15.09-.2l4.89 1.32-1.04 2.82-3.94-3.94Zm13.92 17.21-.1-.1-11.29-2.44c-.09-.47-.37-.85-.66-1.13l2.54-6.87 9.69 9.69c-.09.28-.18.57-.18.85Zm.94-2.17-9.88-9.88 1.32-3.57 2.16.56c0 .19 0 .38.09.57.57 2.26 2.73 3.76 4.99 3.48l2.45 8.18c-.47.19-.85.38-1.13.66Zm2.73 4.33c-1.04.28-2.07-.37-2.26-1.32-.28-1.03.37-2.07 1.32-2.25 1.03-.29 2.07.37 2.25 1.31.29 1.04-.37 2.07-1.31 2.26Zm1.31-4.61h-.09c-.38-.28-.85-.38-1.32-.47l-2.54-8.37c1.6-.66 2.64-2.07 2.82-3.77l6.59-.84c.09.28.28.47.47.65l-5.93 12.8Zm8.38-13.27c-.76.19-1.51-.28-1.7-1.03-.18-.75.29-1.51 1.04-1.69.75-.19 1.5.28 1.69 1.03s-.28 1.51-1.03 1.69Z" style="fill:currentColor"/>
</svg>
