<svg xmlns="http://www.w3.org/2000/svg" id="NeuralNexus_x5F_ilogo" version="1.1" viewBox="0 0 320 150">
  <defs>
    <style>
      .st6{isolation:isolate}.st7{fill:#6dbe4c}
    </style>
  </defs>
  <g id="NeuralNexus_x5F_icon">
    <g id="Base">
      <path d="M117.8 46.6v57.5c0 2.1-1.1 4-2.8 5.1l-10.1 6.4-4.7 3-18.6 11.8-10.2 6.4-1.2.8c-1 .6-2.1.9-3.2.9s-2.3-.3-3.2-.9L19 109.3c-1.8-1.1-2.8-3-2.8-5.1V46.7c0-2.1 1.1-4 2.8-5.1l44.7-28.5c1-.6 2.1-.9 3.2-.9s2.3.3 3.2.9l44.8 28.3c1.8 1.1 2.8 3 2.8 5.1Z" class="st7"/>
      <path d="M115.9 46.6v57.5c0 1.4-.7 2.8-1.9 3.5l-4.6 2.9-4.5 2.8-4.7 3-18.6 11.8-10.2 6.4-2.3 1.4c-.7.4-1.4.6-2.2.6s-1.6-.2-2.2-.6l-9.5-6-2.9-1.9-23.7-15-4.1-2.6-4.5-2.8c-1.2-.8-1.9-2.1-1.9-3.5V46.6c0-1.4.7-2.7 1.9-3.5l32.3-20.4 12.5-7.9c.7-.4 1.4-.6 2.2-.6s1.6.2 2.2.6l12.4 7.9 32.3 20.5c1.2.8 1.9 2.1 1.9 3.5Z" class="st6"/>
      <path d="M67 16.6h.2l46.5 28.8h.2v.2s.2.2.2.3v58.9c0 .1 0 .2-.1.3l-46.8 29H67c-.1 0 0 0 0 0h-.2l-3.9-2.4-.9-.6-.6-.4-41.1-25.5h-.2c0-.2-.1-.2-.1-.3v-59c0-.1 0-.2.2-.3l.3-.2.2-.2L67 16.5h.2m-.2-.9c-.2 0-.4 0-.6.2L20.1 44.5l-.3.2-.3.2c-.4.2-.6.7-.6 1.1v59.3c.1.3.3.5.6.7h.2c0 .1 41.1 25.6 41.1 25.6l.6.4.9.6 3.9 2.4c.2.1.4.2.7.2s.5 0 .7-.2l46.8-29q.6-.45.6-1.2V46q0-.75-.6-1.2l-.2-.2-46.5-28.8c-.2-.1-.5-.2-.7-.2" class="st6" style="fill:#94c93d"/>
      <path id="GLOWGLOW" d="M118.1 36.6 73.3 8.3c-1.9-1.2-4.1-1.8-6.3-1.8s-4.4.6-6.3 1.8L15.9 36.6c-3.4 2.2-5.5 5.9-5.5 10v57.5c0 4.1 2.1 7.8 5.5 10l46.6 29.3c1.4.6 3 .9 4.5.9s3.1-.3 4.5-.9c1.1-.6 32.2-20.2 43-27 .1 0 .2-.1.3-.2.2-.1.4-.2.6-.4l2.7-1.7c3.4-2.2 5.5-5.9 5.5-10V46.6c0-4.1-2.1-7.8-5.5-10Zm-.3 67.5c0 2.1-1.1 4-2.8 5.1l-10.1 6.4-23.3 14.7-10.2 6.4-1.2.8c-1 .6-2.1.9-3.2.9s-2.3-.3-3.2-.9L19 109.2c-1.8-1.1-2.8-3-2.8-5.1V46.6c0-2.1 1.1-4 2.8-5.1l44.7-28.3c2-1.3 4.5-1.3 6.5 0L115 41.5c1.8 1.1 2.8 3 2.8 5.1z" style="stroke-miterlimit:10;stroke-width:.7px;fill:#6dbe4c;stroke:#fff200"/>
      <path id="EdgeHilite" d="M115.6 40.7 81.7 19.3l-11.2-7.1c-1.1-.7-2.3-1-3.5-1s-2.5.4-3.5 1l-11.3 7.1-33.9 21.4c-1.9 1.2-3.1 3.3-3.1 5.6v57.9c0 2.3 1.2 4.4 3.1 5.6l5.8 3.7 4.2 2.6 23.9 15.1 10.2 6.5 1 .7c1.1.7 2.3 1 3.5 1 1.3 0 2.5-.4 3.5-1l1-.6 10.2-6.5 18.7-11.8 4.7-3 4.5-2.9 5.9-3.7c1.9-1.2 3.1-3.3 3.1-5.6v-58c0-2.3-1.2-4.4-3.1-5.6Zm2.5 63.6c0 2.1-1.1 4-2.8 5.1l-5.6 3.5-4.5 2.9-4.7 3-18.7 11.9-10.2 6.5-1.3.8c-1 .6-2.1.9-3.2.9s-2.3-.3-3.2-.9l-1.3-.8-10.2-6.5-23.9-15.1-4.2-2.6-5.5-3.5c-1.8-1.1-2.8-3-2.8-5.1v-58c0-2.1 1.1-4 2.8-5.1l33.6-21.2L64 12.8c1-.6 2.1-.9 3.2-.9s2.3.3 3.2.9L82 20.1l33.6 21.3c1.8 1.1 2.8 3 2.8 5.1v58Z"/>
    </g>
    <g id="Memory">
      <path d="M73.8 59.2V88h10.4V59.2zm-24.1 0V88h10.4V59.3H49.7Z" style="stroke:#6dbe4c;stroke-miterlimit:10;stroke-width:.7px"/>
      <path d="M60.5 64.5h1.8V64h.5l5.6 22.8c0 .2.2.4.5.4h1v.3c0 .1 0 .2.2.2h3.1c.1 0 .2 0 .2-.2v-1.7c0-.1 0-.2-.2-.2h-3.1c-.1 0-.2 0-.2.2v.5h-.7l-5.6-22.8c0-.2-.2-.4-.5-.4h-.9v-.6h-1.8v2Z" class="st7"/>
      <path d="M73.3 82.5h-1.8v.5H71l-5.6-22.8c0-.2-.2-.4-.5-.4h-1v-.3c0-.1 0-.2-.2-.2h-3.1c-.1 0-.2 0-.2.2v1.7c0 .1 0 .2.2.2h3.1c.1 0 .2 0 .2-.2v-.5h.7l5.6 22.8c0 .2.2.4.5.4h.9v.6h1.8v-2Z" class="st7"/>
      <path d="M57.6 72.3h-4.9v-4.6h4.9zm-.1 9.6h-4.9v4.6h4.9zm.1-7.1h-4.9v4.6h4.9zm0-14.2h-4.9v4.6h4.9zm23.8 11.8h-4.9v-4.6h4.9zm0 9.5h-4.9v4.6h4.9zm0-7h-4.9v4.6h4.9zm0-14.1h-4.9v4.6h4.9z" style="stroke-miterlimit:10;fill:#fff;stroke:#0ea5e9;stroke-width:.2px"/>
    </g>
    <g id="Brain">
      <path d="M37.9 41.8v5.9c0 .4.3.8.8.8h5.2l3.7 3.7v1.1h-.2c-.3 0-.5.2-.5.5v3.1c0 .3.2.5.5.5h.2v.2c0 .4.3.8.8.8s.8-.3.8-.8v-.2h.1c.3 0 .5-.2.5-.5v-3.1c0-.3-.2-.5-.5-.5h-.1v-1.4c0-.2 0-.4-.2-.5l-4.2-4.2c-.1-.1-.3-.2-.5-.2h-4.8v-5.1c1-.3 1.7-1.3 1.7-2.4 0-1.4-1.1-2.5-2.5-2.5s-2.5 1.1-2.5 2.5c0 1.1.7 2.1 1.8 2.4Zm1.7-2.3c0 .5-.4 1-1 1s-1-.4-1-1 .4-1 1-1 1 .4 1 1M25.7 57.1c.3 0 .6 0 .9-.2l3.5 3.5c.1.1.3.2.5.2H34c.4 0 .8-.3.8-.8V58h4.3l3.2 3.2c.1.1.3.2.5.2h2.1c0 .4.2.6.5.6h3.1c.3 0 .5-.2.5-.5v-1.8c0-.1 0-.2-.1-.3 0 0-.2-.1-.3-.1h-3.1c-.3 0-.5.2-.5.5v.2h-1.7l-3.2-3.2c-.1-.1-.3-.2-.5-.2h-5.3c-.4 0-.8.3-.8.8v1.8h-2.3L28 56c.3-.4.4-.9.4-1.3 0-1.4-1.1-2.5-2.5-2.5s-2.5 1.1-2.5 2.5 1.1 2.5 2.5 2.5Zm0-3.5c.5 0 1 .4 1 1s-.4 1-1 1-1-.4-1-1 .4-1 1-1m81.5 31.9c-.5 0-.9.1-1.3.4l-2-2c-.1-.1-.3-.2-.5-.2H88.9v-.3c0-.3-.2-.5-.5-.5h-3.1c-.3 0-.5.2-.5.5v1.8c0 .3.2.5.5.5h3.1c.3 0 .5-.2.5-.5h14.2l1.9 1.9c-.1.3-.2.6-.2 1 0 1.4 1.1 2.5 2.5 2.5s2.5-1.1 2.5-2.5-1.1-2.5-2.5-2.5Zm0 3.5c-.5 0-1-.4-1-1s.4-1 1-1 1 .4 1 1-.4 1-1 1m-62-14.1h3.1c.3 0 .5-.2.5-.5v-1.8c0-.3-.2-.5-.5-.5h-3.1c-.3 0-.5.2-.5.5v.2h-2.8c-.2 0-.4 0-.5.2l-2.6 2.6H37l-1.5-1.5c-.1-.1-.3-.2-.5-.2h-4.6c-.3-1-1.3-1.7-2.4-1.7-1.4 0-2.5 1.1-2.5 2.5s1.1 2.5 2.5 2.5c1.1 0 2.1-.7 2.4-1.8h4.3l1.5 1.5c.1.1.3.2.5.2h2.4c.2 0 .4 0 .5-.2l2.6-2.6h2.5v.2c0 .3.2.5.5.5Zm-17.1-1.2c.5 0 1 .4 1 1s-.4 1-1 1-1-.4-1-1 .4-1 1-1m80.9-5.5c-1.1 0-2.1.8-2.4 1.9H94.8l-1.9-1.9c-.1-.1-.3-.2-.5-.2h-3.5v-.3c0-.3-.2-.5-.5-.5h-3.1c-.3 0-.5.2-.5.5v1.8c0 .3.2.5.5.5h3.1c.3 0 .5-.2.5-.5h3.2l1.9 1.9c.1.1.3.2.5.2h12.1c.4 1 1.3 1.6 2.3 1.6 1.4 0 2.5-1.1 2.5-2.5s-1.1-2.5-2.5-2.5Zm-1 2.5c0-.5.4-1 1-1s1 .4 1 1-.4 1-1 1-1-.4-1-1M84.6 51.9v1.4h-.1c-.3 0-.5.2-.5.5v3.1c0 .3.2.5.5.5h.1v.2c0 .4.3.8.8.8s.8-.3.8-.8v-.2h.2c.3 0 .5-.2.5-.5v-3.1c0-.1 0-.2-.1-.3 0 0-.2-.1-.3-.1h-.2v-1.1l3.7-3.7h5.2c.4 0 .8-.3.8-.8v-5.9c1-.3 1.8-1.3 1.8-2.4 0-1.4-1.1-2.5-2.5-2.5s-2.5 1.1-2.5 2.5.7 2 1.7 2.4V47h-4.8c-.2 0-.4 0-.5.2L85 51.4c-.1.1-.2.3-.2.5Zm10.5-13.4c.5 0 1 .4 1 1s-.4 1-1 1-1-.4-1-1 .4-1 1-1m-1.3 18.3L90.6 60h-1.7v-.2c0-.1 0-.2-.1-.3 0 0-.2-.1-.3-.1h-3.1c-.3 0-.5.2-.5.5v1.8c0 .3.2.5.5.5h3.1c.3 0 .5-.2.5-.5 0-.1 2.1-.1 2.1-.1.2 0 .4 0 .5-.2l3.2-3.2h4.3V60c0 .4.3.8.8.8h3.4c.2 0 .4 0 .5-.2l3.5-3.5c.3.1.6.2.9.2 1.4 0 2.5-1.1 2.5-2.5s-1.1-2.5-2.5-2.5-2.5 1.1-2.5 2.5.1.9.4 1.3l-3.2 3.2h-2.3v-1.8c0-.4-.3-.8-.8-.8h-5.3c-.2 0-.4 0-.5.2Zm15.2-2.2c0 .5-.4 1-1 1s-1-.4-1-1 .4-1 1-1 1 .4 1 1M48.8 42.7c.4 0 .8 0 1.1-.3l2.8 2.8-1.4 1.4c-.1.1-.2.3-.2.5v6.1H51c-.3 0-.5.2-.5.5v3.1c0 .3.2.5.5.5h.1v.3c0 .4.3.8.8.8s.8-.3.8-.8v-.3h.2c.3 0 .5-.2.5-.5v-3.1c0-.1 0-.2-.1-.3 0 0-.2-.1-.3-.1h-.2v-5.8l1.7-1.7c.1-.1.2-.3.2-.5s0-.4-.2-.5l-3.3-3.3q.3-.6.3-1.2c0-1.4-1.1-2.5-2.5-2.5s-2.5 1.1-2.5 2.5 1.1 2.5 2.5 2.5Zm0-3.4c.5 0 .9.4 1 .9 0 .5-.5.9-1 .9s-.9-.4-.9-.9.4-1 1-1V39v.2Zm39.8 35.8h-3.3c-.3 0-.5.2-.5.5v1.8c0 .3.2.5.5.5h3.1c.3 0 .5-.2.5-.5v-.2H91l2 2c.1.1.3.2.5.2h6.2c.4 1 1.3 1.6 2.3 1.6 1.4 0 2.5-1.1 2.5-2.5S103.4 76 102 76c-1.1 0-2.1.8-2.4 1.8h-5.8l-2-2c-.1-.1-.3-.2-.5-.2h-2.4v-.2c0-.2-.1-.4-.3-.4Zm12.4 3.5c0-.5.4-1 1-1s1 .4 1 1-.4 1-1 1-1-.4-1-1M81.1 53.3h-.2c-.3 0-.5.2-.5.5v3.1c0 .3.2.5.5.5h.2v.3c0 .4.3.8.8.8s.8-.3.8-.8v-.3h.1c.3 0 .5-.2.5-.5v-3.1c0-.3-.2-.5-.5-.5h-.1v-6.1c0-.2 0-.4-.2-.5l-1.4-1.4 2.8-2.8c.4.2.7.3 1.1.3 1.4 0 2.5-1.1 2.5-2.5s-1.1-2.5-2.5-2.5-2.5 1.1-2.5 2.5 0 .8.3 1.2l-3.3 3.3c-.1.1-.2.3-.2.5s0 .4.2.5l1.7 1.7v5.8Zm3.8-14.1c.5 0 1 .4 1 1s-.4 1-1 1-1-.4-1-1 .4-1 1-1m-26.1 79.1v-8c0-.2 0-.4-.2-.5l-5.7-5.7 2.9-2.9c.1-.1.2-.3.2-.5v-6.5h.2c.3 0 .5-.2.5-.5v-3.1c0-.1 0-.2-.1-.3 0 0-.2-.1-.3-.1h-.2v-.5c0-.4-.3-.8-.8-.8s-.8.3-.8.8v.5h-.2c-.3 0-.5.2-.5.5v3.1c0 .3.2.5.5.5h.2v6.2l-3.2 3.2c-.1.1-.2.3-.2.5s0 .4.2.5l6 6v7.6c-1.1.3-1.9 1.3-1.9 2.4 0 1.4 1.1 2.5 2.5 2.5s2.5-1.1 2.5-2.5c0-1-.6-1.9-1.6-2.3Zm-.9 1.3c.5 0 1 .4 1 1s-.4 1-1 1-1-.4-1-1 .4-1 1-1m5.7-5.6v-4.7c0-.2 0-.4-.2-.5l-4.4-4.4V94.2h.2c.3 0 .5-.2.5-.5v-3.1c0-.1 0-.2-.1-.3 0 0-.2-.1-.3-.1h-.2v-.5c0-.4-.3-.8-.8-.8s-.8.3-.8.8v.5h-.2c-.3 0-.5.2-.5.5v3.1c0 .3.2.5.5.5h.2v10.5c0 .2 0 .4.2.5l4.4 4.4v4.4c-1 .3-1.7 1.3-1.7 2.4 0 1.4 1.1 2.5 2.5 2.5s2.5-1.1 2.5-2.5c0-1.1-.7-2-1.7-2.4Zm-.8 1.3c.5 0 1 .4 1 1s-.4 1-1 1-1-.4-1-1 .4-1 1-1m.6-85.6c-1.4 0-2.5 1.1-2.5 2.5s1.1 2.5 2.5 2.5.6 0 1-.2v2.6l-.8.8c-.1.1-.2.3-.2.5v4l-4.8 4.8c-.1.1-.2.3-.2.5v5.6h-.2c-.3 0-.5.2-.5.5v3.1c0 .3.2.5.5.5h.2c0 .6.3.9.8.9s.8-.3.8-.8c0-.1.2-.1.2-.1.3 0 .5-.2.5-.5v-3.1c0-.1 0-.2-.1-.3 0 0-.2-.1-.3-.1h-.2v-5.3l4.8-4.8c.1-.1.2-.3.2-.5v-4l.8-.8c.1-.1.2-.3.2-.5v-3.3c0-.2-.1-.5-.3-.6.2-.4.3-.8.3-1.3 0-1.4-1.1-2.5-2.5-2.5Zm0 1.5c.5 0 1 .4 1 1s-.4 1-1 1-1-.4-1-1 .4-1 1-1m5.4 11.5c0 .2 0 .4.2.5l4.8 4.8v5.3h-.2c-.3 0-.5.2-.5.5v3.1c0 .3.2.5.5.5h.2c0 .6.3.9.8.9s.8-.3.8-.8c0-.1.2-.1.2-.1.3 0 .5-.2.5-.5v-3.1c0-.1 0-.2-.1-.3 0 0-.2-.1-.3-.1h-.2v-5.6c0-.2 0-.4-.2-.5l-4.8-4.8v-4c0-.2 0-.4-.2-.5l-.8-.8v-2.6c.3.1.6.2 1 .2 1.4 0 2.5-1.1 2.5-2.5s-1.1-2.5-2.5-2.5-2.5 1.1-2.5 2.5.1.9.3 1.3q-.3.3-.3.6v3.3c0 .2 0 .4.2.5l.8.8v4Zm1.5-11.5c.5 0 1 .4 1 1s-.4 1-1 1-1-.4-1-1 .4-1 1-1m1.3 82.8v-4.4l4.4-4.4c.1-.1.2-.3.2-.5V94.2h.2c.3 0 .5-.2.5-.5v-3.1c0-.1 0-.2-.1-.3 0 0-.2-.1-.3-.1h-.2v-.5c0-.4-.3-.8-.8-.8s-.8.3-.8.8v.5h-.2c-.3 0-.5.2-.5.5v3.1c0 .3.2.5.5.5h.2v10.2l-4.4 4.4c-.1.1-.2.3-.2.5v4.7c-1 .3-1.7 1.3-1.7 2.4 0 1.4 1.1 2.5 2.5 2.5s2.5-1.1 2.5-2.5-.7-2-1.7-2.4Zm.2 2.3c0 .5-.4 1-1 1s-1-.4-1-1 .4-1 1-1 1 .4 1 1M50.3 96.6v-2.5h.2c.3 0 .5-.2.5-.5v-3.1c0-.1 0-.2-.1-.3 0 0-.2-.1-.3-.1h-.2v-.4c0-.4-.3-.8-.8-.8s-.8.3-.8.8v.4h-.1c-.3 0-.5.2-.5.5v3.1c0 .3.2.5.5.5h.1v2.2l-3.7 3.7h-7.2c-.4 0-.8.3-.8.8v5.7c-1 .3-1.8 1.3-1.8 2.4 0 1.4 1.1 2.5 2.5 2.5s2.5-1.1 2.5-2.5c0-1.1-.7-2-1.7-2.3v-5h6.8c.2 0 .4 0 .5-.2l4.2-4.2c.1-.1.2-.3.2-.5Zm-12.5 13.2c-.5 0-1-.4-1-1s.4-1 1-1 1 .4 1 1-.4 1-1 1M24.6 67.5c1.1 0 2-.7 2.4-1.7h4.1l2 2c.1.1.3.2.5.2h4.1c.2 0 .4 0 .5-.2l2.2-2.2h4.4v.2c0 .3.2.5.5.5h3.1c.3 0 .5-.2.5-.5V64c0-.1 0-.2-.1-.3 0 0-.2-.1-.3-.1h-3.1c-.3 0-.5.2-.5.5v.2h-4.7c-.2 0-.4 0-.5.2l-2.2 2.2H34l-2-2c-.1-.1-.3-.2-.5-.2h-4.4c-.3-1-1.3-1.8-2.4-1.8-1.4 0-2.5 1.1-2.5 2.5s1.1 2.5 2.5 2.5Zm0-3.5c.5 0 1 .4 1 1s-.4 1-1 1-1-.4-1-1 .4-1 1-1m2.9 19.7h9.2c.2 0 .4 0 .5-.2l1.8-1.8h5.7v.2c0 .3.2.5.5.5h3.1c.3 0 .5-.2.5-.5v-1.8c0-.3-.2-.5-.5-.5h-3.1c-.3 0-.5.2-.5.5v.2h-6.1c-.2 0-.4 0-.5.2l-1.8 1.8h-8.6l-1.1-1.1q.3-.6.3-1.2c0-1.4-1.1-2.5-2.5-2.5s-2.5 1.1-2.5 2.4c0 1.4 1.1 2.5 2.5 2.5.4 0 .7 0 1-.2l1.4 1.4c.1.1.3.2.5.2Zm-2.9-2.9c-.5 0-1-.4-1-1s.4-1 1-1 1 .4 1 1-.4 1-1 1m80.7 21.4q-.6 0-1.2.3l-4.8-4.8v-4.2l3.3-3.3c.3-.3.3-.8 0-1.1-.1-.1-.3-.2-.5-.2H96c-.2 0-.4 0-.5.2L93 91.6h-2.4c-.3-1-1.3-1.8-2.4-1.8-1.4 0-2.5 1.1-2.5 2.5s1.1 2.5 2.5 2.5c1.1 0 2-.7 2.3-1.7h2.7c.2 0 .4 0 .5-.2l2.5-2.5h4l-2.3 2.3c-.1.1-.2.3-.2.5V98c0 .2 0 .4.2.5l5 5c-.2.3-.2.7-.3 1.1 0 1.4 1.1 2.5 2.5 2.5s2.5-1.1 2.5-2.5-1.1-2.5-2.5-2.5Zm0 3.4c-.5 0-1-.4-1-1s.4-1 1-1 1 .4 1 1-.4 1-1 1m-17-12.4c-.5 0-1-.4-1-1s.4-1 1-1 1 .4 1 1-.4 1-1 1m-52.7 5.3c.1-.1.2-.3.2-.5v-4.8c0-.2 0-.4-.2-.5l-2.3-2.3h4l2.5 2.5c.1.1.3.2.5.2H43c.3 1 1.3 1.7 2.3 1.7 1.4 0 2.5-1.1 2.5-2.5s-1.1-2.5-2.5-2.5c-1.1 0-2.1.7-2.4 1.8h-2.4L38 89.1c-.1-.1-.3-.2-.5-.2h-6.1c-.4 0-.7.3-.8.7 0 .2 0 .4.2.5l3.3 3.3v4.2l-4.8 4.8q-.6-.3-1.2-.3c-1.4 0-2.5 1.1-2.5 2.5s1.1 2.5 2.5 2.5 2.5-1.1 2.5-2.5 0-.7-.3-1.1l5-5Zm10.8-6.2c0 .5-.4 1-1 1s-1-.4-1-1 .4-1 1-1 1 .4 1 1m-17.1 12.3c0 .5-.4 1-1 1s-1-.4-1-1 .4-1 1-1 1 .4 1 1m15.9-15.3h3.1c.3 0 .5-.2.5-.5V87c0-.3-.2-.5-.5-.5h-3.1c-.3 0-.5.2-.5.5v.2H39l-1.5-1.5c-.1-.1-.3-.2-.5-.2h-5.2c-.2 0-.4 0-.5.2l-1.8 1.8c-.1.1-.2.3-.2.5v5.6c-1 .3-1.7 1.3-1.7 2.3 0 1.4 1.1 2.5 2.5 2.5s2.5-1.1 2.5-2.5c0-1.1-.7-2.1-1.8-2.4v-5.2l1.3-1.3h4.6l1.5 1.5c.1.1.3.2.5.2h6c0 .4.2.6.5.6m-15.1 7.6c-.5 0-1-.4-1-1s.4-1 1-1 1 .4 1 1-.4 1-1 1M82 99v-4.9h.2c.3 0 .5-.2.5-.5v-3.1c0-.1 0-.2-.1-.3 0 0-.2-.1-.3-.1h-.2v-.4c0-.4-.3-.8-.8-.8s-.8.3-.8.8v.4h-.2c-.3 0-.5.2-.5.5v3.1c0 .3.2.5.5.5h.2v5.2c0 .2 0 .4.2.5l4.5 4.5v6.8h-2.4c-.4 0-.8.3-.8.8v2.4c-1 .4-1.6 1.3-1.6 2.3 0 1.4 1.1 2.5 2.5 2.5s2.5-1.1 2.5-2.5-.8-2.1-1.8-2.4v-1.5H86c.4 0 .8-.3.8-.8v-7.9c0-.2 0-.4-.2-.5l-4.5-4.5Zm1 18.6c-.5 0-1-.4-1-1s.4-1 1-1 1 .4 1 1-.4 1-1 1m13.6-11.2v-5.7c0-.4-.3-.8-.8-.8h-7.2l-3.7-3.7V94h.1c.3 0 .5-.2.5-.5v-3.1c0-.1 0-.2-.1-.3 0 0-.2-.1-.3-.1H85v-.4c0-.4-.3-.8-.8-.8s-.8.3-.8.8v.4h-.2c-.3 0-.5.2-.5.5v3.1c0 .3.2.5.5.5h.2v2.5c0 .2 0 .4.2.5l4.2 4.2c.1.1.3.2.5.2h6.8v5c-1 .3-1.7 1.3-1.7 2.3 0 1.4 1.1 2.5 2.5 2.5s2.5-1.1 2.5-2.5c0-1.1-.7-2.1-1.8-2.4m-.7 3.4c-.5 0-1-.4-1-1s.4-1 1-1 1 .4 1 1-.4 1-1 1" style="fill:#0ea5e9"/>
      <path d="M69.4 42.8v.2l4.8 4.8v10.1c0 .1 0 .3.2.3.1 0 .2-.1.2-.2V47.6l-4.8-4.8v-4.5l-1-1v-2.9l.4-.4c.3.2.6.3 1 .3 1.1 0 2-.9 2-2s-.9-2-2-2-2 .9-2 2 .3 1.1.6 1.5l-.5.5v3.5l1 1v4.3Zm-.7-10.7c0-.8.7-1.5 1.5-1.5s1.5.7 1.5 1.5-.7 1.5-1.5 1.5-1.5-.7-1.5-1.5m13 25.8c0 .1.1.2.2.2s.2-.1.2-.2v-11L80.2 45l3.3-3.3c.4.3.8.5 1.3.5 1.1 0 2-.9 2-2s-.9-2-2-2-2 .9-2 2 .1.8.4 1.2l-3.5 3.5v.4l2 2V58Zm3.2-19.2c.8 0 1.5.7 1.5 1.5s-.7 1.5-1.5 1.5-1.5-.7-1.5-1.5.7-1.5 1.5-1.5M85 52v6c0 .1.1.2.2.2s.2-.1.2-.2v-5.8l4.4-4.2h5.1c.1 0 .2-.1.2-.2v-6.1c1-.1 1.8-1 1.8-2s-.9-2-2-2-2 .9-2 2 .8 1.9 1.8 2v5.9h-5.2zv.2Zm8.5-12.5c0-.8.7-1.5 1.5-1.5s1.5.7 1.5 1.5S95.8 41 95 41s-1.5-.7-1.5-1.5m.7 17.6-3.4 3.4h-5.5c-.1 0-.2.1-.2.2s.1.2.2.2h5.8l3.4-3.4h5.1V60c0 .1.1.2.2.2h3l4-4c.3.3.8.4 1.2.4 1.1 0 2-.9 2-2s-.9-2-2-2-2 .9-2 2 .2.9.5 1.3l-3.9 3.9h-2.5v-2.5c0-.1-.1-.2-.2-.2h-5.7m13.8-4c.8 0 1.5.7 1.5 1.5s-.7 1.5-1.5 1.5-1.5-.7-1.5-1.5.7-1.5 1.5-1.5M85.2 76.6H91l2.1 2.1h6.8q0 .45.3.9c.4.6 1 .9 1.7.9s.8-.1 1.1-.4c.9-.6 1.2-1.9.5-2.8-.3-.4-.8-.7-1.3-.8s-1.1 0-1.5.3-.7.8-.8 1.3v.1h-6.5l-2.1-2.1h-6.1c-.1 0-.2.1-.2.2s.1.2.2.2Zm15.9.7q.45-.3.9-.3c.5 0 1 .2 1.3.7.5.7.3 1.6-.4 2.1s-1.6.3-2.1-.4-.3-1.6.4-2.1ZM81.5 99.1v-9.8c0-.1-.1-.2-.2-.2s-.2.1-.2.2v10.1l4.8 4.8v7.4h-3c-.1 0-.2.1-.2.2v2.8q-.45 0-.9.3c-.9.6-1.2 1.9-.5 2.8.3.4.8.7 1.3.8h.4c.4 0 .8-.1 1.1-.4.4-.3.7-.8.8-1.3s0-1.1-.3-1.5-.8-.7-1.3-.8h-.1V112h3c.1 0 .2-.1.2-.2v-7.9l-4.8-4.8Zm2.7 16.6c.5.7.3 1.6-.4 2.1-.3.2-.7.3-1.1.2s-.7-.3-1-.6c-.5-.7-.3-1.6.4-2.1q.45-.3.9-.3h.3c.4 0 .7.3 1 .6Zm-8.8-26.8c-.1 0-.2.1-.2.2v15.6l-4.3 4.3v5.3c-.4 0-.7.1-1 .3-.9.6-1.2 1.9-.5 2.8.4.6 1 .9 1.7.9s.8-.1 1.1-.4c.9-.6 1.2-1.9.5-2.8-.3-.5-.8-.7-1.3-.8v-5.1l4.3-4.3V89c0-.1-.1-.2-.2-.2Zm-3.3 26.6c.5.7.3 1.6-.4 2.1s-1.6.3-2.1-.4-.3-1.6.4-2.1q.45-.3.9-.3c.5 0 1 .2 1.3.7ZM49.5 89c-.1 0-.2.1-.2.2v7.3l-3.9 3.9h-7.5c-.1 0-.2.1-.2.2v6.1c-.3 0-.7.1-1 .3-.9.6-1.2 1.9-.5 2.8.4.6 1 .9 1.7.9s.8-.1 1.1-.4c.9-.6 1.2-1.9.5-2.8-.3-.5-.8-.8-1.4-.9v-5.9h7.5l4.1-4.1V89c0-.1-.1-.2-.2-.2Zm-10.4 19c.5.7.3 1.6-.4 2.1s-1.6.3-2.1-.4-.3-1.6.4-2.1q.45-.3.9-.3c.5 0 1 .2 1.3.7Zm-6.8-18.2h5.2l2.6 2.6h3.4q0 .45.3.9c.4.6 1 .9 1.7.9s.8-.1 1.1-.4c.9-.6 1.2-1.9.5-2.8-.6-.9-1.9-1.2-2.8-.5-.5.3-.8.9-.9 1.4h-3.1l-2.6-2.6h-6.1c-.1 0-.2 0-.2.2v.3l3.5 3.5v4.2l-5.5 5.5c-.2-.2-.5-.3-.8-.3-.5-.1-1.1 0-1.5.3-.9.6-1.2 1.9-.5 2.8.3.4.8.7 1.3.8h.4c.4 0 .8-.1 1.1-.4.9-.6 1.2-1.9.5-2.8l-.2-.2 5.6-5.6v-4.8l-3.2-3.2ZM44.5 91q.45-.3.9-.3c.5 0 1 .2 1.3.7.5.7.3 1.6-.4 2.1s-1.6.3-2.1-.4-.3-1.6.4-2.1Zm-15.3 14.9c-.3.2-.7.3-1.1.2-.4 0-.7-.3-1-.6-.5-.7-.3-1.6.4-2.1q.45-.3.9-.3h.3c.4 0 .7.3 1 .6.5.7.3 1.6-.4 2.1ZM32 86.3h4.9l1.9 1.9h9.9c.1 0 .2-.1.2-.2s-.1-.2-.2-.2h-9.6l-1.9-1.9h-5.5l-2 2V94c-.2 0-.5.2-.7.3-.4.3-.7.8-.8 1.3 0 .5 0 1.1.3 1.5.4.6 1 .9 1.7.9s.8-.1 1.1-.4c.4-.3.7-.8.8-1.3 0-.5 0-1.1-.3-1.5-.4-.6-1-.9-1.6-.9v-5.7l1.8-1.8Zm-.7 8.7c.2.3.3.7.2 1.1s-.3.7-.6 1c-.7.5-1.6.3-2.1-.4-.2-.3-.3-.7-.2-1.1s.3-.7.6-1q.45-.3.9-.3c.5 0 1 .2 1.3.7Zm-4-11.8h9.4l2.1-2.1h9.6c.1 0 .2-.1.2-.2s-.1-.2-.2-.2h-9.9l-2.1 2.1h-8.8L26 81.2c.3-.3.5-.6.5-1 0-.5 0-1.1-.3-1.5-.6-.9-1.9-1.2-2.8-.5-.4.3-.7.8-.8 1.3 0 .5 0 1.1.3 1.5.4.6 1 .9 1.7.9s.7-.1 1.1-.3l1.7 1.7Zm-4-2.5c-.2-.3-.3-.7-.2-1.1s.3-.7.6-1q.45-.3.9-.3c.5 0 1 .2 1.3.7.2.3.3.7.2 1.1s-.3.7-.6 1c-.7.5-1.6.3-2.1-.4Zm25.2-7.5h-6.7l-2.7 2.7h-2.3l-1.5-1.5h-5.1q0-.45-.3-.9c-.6-.9-1.9-1.2-2.8-.5-.4.3-.7.8-.8 1.3 0 .5 0 1.1.3 1.5s.8.7 1.3.8h.4c.4 0 .8-.1 1.1-.4.5-.3.8-.9.9-1.5h4.8l1.5 1.5h2.9l2.7-2.7h6.4c.1 0 .2-.1.2-.2s-.1-.2-.2-.2ZM28.9 76c-.3.2-.7.3-1.1.2-.4 0-.7-.3-1-.6-.5-.7-.3-1.6.4-2.1q.45-.3.9-.3c.5 0 1 .2 1.3.7.5.7.3 1.6-.4 2.1Zm24.4-30.9-1.7 1.7v11.3c0 .1.1.2.2.2s.2-.1.2-.2v-11l1.8-1.8v-.4l-3.5-3.5c.5-.7.6-1.7 0-2.4-.6-.9-1.9-1.2-2.8-.5-.9.6-1.2 1.9-.5 2.8.4.6 1 .9 1.7.9s.8-.1 1.1-.4l3.3 3.3Zm-5.8-4c-.5-.7-.3-1.6.4-2.1q.45-.3.9-.3c.5 0 1 .2 1.3.7.5.7.3 1.6-.4 2.1s-1.6.3-2.1-.4Zm18-8.9c0-1.1-.9-2-2-2s-2 .9-2 2 .9 2 2 2 .7-.1 1-.3l.5.5v2.8l-1 1v4.2l-4.9 4.9V58c0 .1.1.2.2.2s.2-.1.2-.2V47.6l4.9-4.9v-4.2l1-1v-3.4l-.5-.5q.6-.6.6-1.5Zm-3.6 0c0-.8.7-1.5 1.5-1.5s1.5.7 1.5 1.5-.7 1.5-1.5 1.5-1.5-.7-1.5-1.5M109 68.7c-1.1 0-2 .9-2 2H94.6l-2.1-2.1h-7.2c-.1 0-.2.1-.2.2s.1.2.2.2h6.9l2.1 2.1h12.8c.2.9 1 1.5 2 1.5s2-.9 2-2-.9-2-2-2Zm0 3.6c-.8 0-1.5-.7-1.5-1.5s.7-1.5 1.5-1.5 1.5.7 1.5 1.5-.7 1.5-1.5 1.5m-2.9 14-.2.2-2.4-2.4H85.1c-.1 0-.2.1-.2.2s.1.2.2.2h18.1l2.3 2.3c-.2.2-.3.5-.3.8 0 .5 0 1.1.3 1.5.4.6 1 .9 1.7.9s.8-.1 1.1-.4c.4-.3.7-.8.8-1.3 0-.5 0-1.1-.3-1.5-.6-.9-1.9-1.2-2.8-.5Zm2.7 2c0 .4-.3.7-.6 1-.7.5-1.6.3-2.1-.4s-.3-1.6.4-2.1q.45-.3.9-.3c.5 0 1 .2 1.3.7.2.3.3.7.2 1.1Zm-3.1 14.3c-.5 0-1.1 0-1.5.3 0 0-.2.1-.3.2L98.8 98v-5l3.4-3.4v-.3c0-.1-.1-.2-.2-.2h-6.1l-2.6 2.6h-3.2q0-.45-.3-.9c-.6-.9-1.9-1.2-2.8-.5-.9.6-1.2 1.9-.5 2.8.4.6 1 .9 1.7.9s.8-.1 1.1-.4c.5-.3.8-.9.9-1.5h3.5l2.6-2.6h5.2l-3.1 3.1v5.6l5.2 5.2c-.4.7-.4 1.5 0 2.2.4.6 1 .9 1.7.9s.8-.1 1.1-.4c.9-.6 1.2-1.9.5-2.8-.3-.4-.8-.7-1.3-.8Zm-16.6-9.1c-.7.5-1.6.3-2.1-.4s-.3-1.6.4-2.1q.45-.3.9-.3c.5 0 1 .2 1.3.7.5.7.3 1.6-.4 2.1Zm17.1 12.4c-.7.5-1.6.3-2.1-.4s-.3-1.6.4-2.1q.45-.3.9-.3h.3c.4 0 .7.3 1 .6.5.7.3 1.6-.4 2.1Zm-10 .9v-6.3c0-.1-.1 0-.2 0h-7.6l-4.1-4.1v-7c0-.1-.1-.2-.2-.2s-.2.1-.2.2v7.3l4.2 4.3h7.6v5.8c-.3 0-.7.1-1 .3-.9.6-1.2 1.9-.5 2.8.4.6 1 .9 1.7.9s.8-.1 1.1-.4c.9-.6 1.2-1.9.5-2.8-.3-.5-.8-.8-1.4-.9Zm.5 3.3c-.7.5-1.6.3-2.1-.4s-.3-1.6.4-2.1q.45-.3.9-.3c.5 0 1 .2 1.3.7.5.7.3 1.6-.4 2.1Zm-33.5 4.2V109l-4.7-4.7V89c0-.1-.1-.2-.2-.2s-.2.1-.2.2v15.6l4.7 4.7v5c-.4 0-.7.1-1 .3-.9.6-1.2 1.9-.5 2.8.4.6 1 .9 1.7.9s.8-.1 1.1-.4c.9-.6 1.2-1.9.5-2.8-.3-.5-.8-.7-1.3-.8Zm.5 3.3c-.7.5-1.6.3-2.1-.4s-.3-1.6.4-2.1q.45-.3.9-.3c.5 0 1 .2 1.3.7.5.7.3 1.6-.4 2.1Zm-5.4 1v-8.4l-6.1-6.1 3.2-3.2V89c0-.1-.1-.2-.2-.2s-.2.1-.2.2v11.5l-3.3 3.3v.4l6.2 6.2v8.1c-.4 0-.8.1-1.1.4-.9.6-1.2 1.9-.5 2.8.4.6 1 .9 1.7.9s.8-.1 1.1-.4c.9-.6 1.2-1.9.5-2.8-.3-.5-.8-.8-1.3-.8m.5 3.3c-.7.5-1.6.3-2.1-.4s-.3-1.6.4-2.1q.45-.3.9-.3c.5 0 1 .2 1.3.7.5.7.3 1.6-.4 2.1ZM24.2 67h.4c.4 0 .8-.1 1.1-.4.4-.3.7-.8.8-1.3h4.8l2.1 2.1h4.4l2.2-2.2h8.4c.1 0 .2-.1.2-.2s-.1-.2-.2-.2h-8.7L37.5 67h-3.8l-2.1-2.1h-5.1c0-.4-.1-.7-.3-1-.3-.4-.8-.7-1.3-.8-.5 0-1.1 0-1.5.3s-.7.8-.8 1.3 0 1.1.3 1.5.8.7 1.3.8m-1.1-2.3c0-.4.3-.7.6-1q.45-.3.9-.3h.3c.4 0 .7.3 1 .6.5.7.3 1.6-.4 2.1-.3.2-.7.3-1.1.2-.4 0-.7-.3-1-.6s-.3-.7-.2-1.1Zm2.2-8.1h.4c.4 0 .7-.1 1.1-.3l3.8 3.8H34c.1 0 .2-.1.2-.2v-2.3h5.1l3.2 3.2h6c.1 0 .2-.1.2-.2s-.1-.2-.2-.2h-5.7l-3.2-3.2H34c-.1 0-.2.1-.2.2v2.3h-2.9L27.2 56c.3-.3.5-.6.5-1 0-.5 0-1.1-.3-1.5-.6-.9-1.9-1.2-2.8-.5-.9.6-1.2 1.9-.5 2.8.3.4.8.7 1.3.8Zm-.5-3.2q.45-.3.9-.3c.5 0 1 .2 1.3.7.5.7.3 1.6-.4 2.1s-1.6.3-2.1-.4-.3-1.6.4-2.1Zm13.5-11.9v6.2c0 .1.1.2.3.2h5.5l3.9 3.9v5.9c0 .1.1.2.2.2s.2-.1.2-.2v-6.2l-4-4h-5.6v-5.9q.45 0 .9-.3c.4-.3.7-.8.8-1.3 0-.5 0-1.1-.3-1.5-.6-.9-1.9-1.2-2.8-.5-.9.6-1.2 1.9-.5 2.8.3.5.8.8 1.4.8Zm-.6-3.3q.45-.3.9-.3c.5 0 1 .2 1.3.7.2.3.3.7.2 1.1s-.3.7-.6 1c-.7.5-1.6.3-2.1-.4s-.3-1.6.4-2.1Z" style="fill:#7dffff"/>
    </g>
  </g>
  <g id="NeuralNexus_x5F_type">
    <g id="Nexus">
      <path d="M288.2 113.4c-1.5 0-2.8-.4-4.1-1.1-1.2-.7-2.2-1.8-3-3-.7-1.3-1.1-2.6-1.1-4.1v-2.4h7.2c-1.1-.1-2.2-.5-3.2-1.1-1.2-.7-2.2-1.8-3-3-.7-1.3-1.1-2.6-1.1-4.1v-3.8c0-1.5.4-2.9 1.1-4.1q1.05-1.8 3-3c1.2-.8 2.6-1.1 4.1-1.1h14.7c1.5 0 2.9.4 4.1 1.1q1.8 1.2 3 3c.8 1.3 1.1 2.6 1.1 4.1v2.4h-7.3c1.1.1 2.2.5 3.2 1.1 1.2.7 2.2 1.8 3 3 .8 1.3 1.1 2.6 1.1 4.1v3.8c0 1.5-.4 2.9-1.1 4.1s-1.7 2.2-2.9 3-2.6 1.1-4.1 1.1zm13.3-9.7v-1h-11.9v1zm0-10.7v-1h-11.9v1zm-49.9 20.4c-1.5 0-2.9-.4-4.1-1.1-1.2-.8-2.2-1.8-2.9-3s-1.1-2.6-1.1-4.1V82.5h9.5v21.3h11.9V82.5h9.6v22.7c0 1.5-.4 2.9-1.1 4.1s-1.7 2.2-2.9 3-2.6 1.1-4.1 1.1h-14.7Zm-23.1 0-6.5-8.1-6.5 8.1h-9.2v-3.8l9.6-11.9-9.6-11.4v-3.9h9.2l6.5 7.8 6.5-7.8h9.3v3.9l-9.6 11.4 9.6 11.9v3.8h-9.2Zm-50.7 0c-1.5 0-2.8-.4-4.1-1.1-1.2-.7-2.2-1.8-3-3-.7-1.3-1.1-2.6-1.1-4.1V90.7c0-1.5.4-2.9 1.1-4.1s1.7-2.2 2.9-3 2.6-1.1 4.1-1.1h14.7c1.5 0 2.9.4 4.1 1.1 1.2.8 2.2 1.8 2.9 3s1.1 2.6 1.1 4.1v12.1H179v1h21.5v9.6h-22.9ZM191.1 94v-2h-11.9v2zm-36.4 19.4V92.1h-11.9v21.3h-9.6v-31h22.9c1.5 0 2.9.4 4.1 1.1 1.2.8 2.2 1.8 2.9 3s1.1 2.6 1.1 4.1v22.7h-9.5Z" style="fill:#fff"/>
      <path d="M302.9 83.4c1.3 0 2.5.3 3.6 1s2 1.5 2.6 2.6c.7 1.1 1 2.3 1 3.6V92h-7.6v-1h-13.9v3h14.3c1.3 0 2.5.3 3.6 1s2 1.5 2.6 2.6c.7 1.1 1 2.3 1 3.6v3.8c0 1.3-.3 2.5-1 3.6s-1.5 2-2.6 2.6c-1.1.7-2.3 1-3.6 1h-14.7c-1.3 0-2.5-.3-3.6-1s-2-1.5-2.6-2.6c-.7-1.1-1-2.3-1-3.6v-1.4h7.6v1h13.9v-3h-14.3c-1.3 0-2.5-.3-3.6-1s-2-1.5-2.6-2.6c-.7-1.1-1-2.3-1-3.6v-3.8c0-1.3.3-2.5 1-3.6s1.5-2 2.6-2.6c1.1-.7 2.3-1 3.6-1zm-29.4 0v21.7c0 1.3-.3 2.5-1 3.6-.6 1.1-1.5 2-2.6 2.6-1.1.7-2.3 1-3.6 1h-14.7c-1.3 0-2.5-.3-3.6-1s-1.9-1.5-2.6-2.6c-.6-1.1-1-2.3-1-3.6V83.4h7.5v21.3h13.9V83.4h7.6m-36.6 0v2.5l-9.9 11.7 9.9 12.2v2.5h-7.7l-7-8.7-7 8.7h-7.7v-2.5l9.9-12.2-9.9-11.7v-2.5h7.7l7 8.4 7-8.4h7.8m-44.4 0c1.3 0 2.5.3 3.6 1s1.9 1.5 2.6 2.6c.6 1.1 1 2.3 1 3.6v11.1h-21.5v3h21.5v7.6h-21.9c-1.3 0-2.5-.3-3.6-1s-2-1.5-2.6-2.6c-.7-1.1-1-2.3-1-3.6V90.6c0-1.3.3-2.5 1-3.6s1.5-2 2.6-2.6c1.1-.7 2.3-1 3.6-1zM178.2 95h13.9v-4h-13.9zm-22.1-11.6c1.3 0 2.5.3 3.6 1s1.9 1.5 2.6 2.6c.6 1.1 1 2.3 1 3.6v21.7h-7.6V91h-13.9v21.3h-7.6v-29h21.9m146.8-1.9h-14.7c-1.7 0-3.2.4-4.6 1.3-1.4.8-2.5 2-3.3 3.3-.8 1.4-1.3 3-1.3 4.6v3.8c0 1.7.4 3.2 1.3 4.6.6 1 1.3 1.9 2.2 2.6H279v3.4c0 1.7.4 3.2 1.3 4.6q1.2 2.1 3.3 3.3c1.4.9 2.9 1.3 4.6 1.3h14.7c1.7 0 3.3-.4 4.6-1.3 1.4-.8 2.5-2 3.3-3.3.8-1.4 1.3-3 1.3-4.6v-3.8c0-1.7-.4-3.2-1.3-4.6-.6-1-1.3-1.9-2.2-2.6h3.5v-3.4c0-1.7-.4-3.2-1.3-4.6q-1.2-2.1-3.3-3.3c-1.4-.9-3-1.3-4.6-1.3m-27.4 0h-11.6v21.3H254V81.4h-11.5v23.7c0 1.7.4 3.2 1.2 4.6q1.2 2.1 3.3 3.3c1.4.9 3 1.3 4.6 1.3h14.7c1.7 0 3.3-.4 4.6-1.3 1.4-.8 2.5-2 3.3-3.3.8-1.4 1.2-3 1.2-4.6V81.4Zm-36.7 0h-10.7l-.6.7-5.4 6.5-5.5-6.5-.6-.7h-10.7v5.2l.5.6 8.8 10.5-8.8 11-.4.5v5.2h10.7l.6-.7 5.5-6.8 5.5 6.8.6.7H239v-5.2l-.4-.5-8.8-11 8.8-10.5.5-.6v-5.2Zm-46.3 0h-14.7c-1.7 0-3.2.4-4.6 1.3-1.4.8-2.5 2-3.3 3.3-.8 1.4-1.3 3-1.3 4.6v14.5c0 1.7.4 3.2 1.3 4.6q1.2 2.1 3.3 3.3c1.4.9 2.9 1.3 4.6 1.3h23.9V90.6c0-1.7-.4-3.2-1.2-4.6q-1.2-2.1-3.3-3.3c-1.4-.9-3-1.3-4.7-1.3m-36.4 0h-23.9v33h11.6V93.1h9.9v21.3h11.6V90.7c0-1.7-.4-3.2-1.2-4.6q-1.2-2.1-3.3-3.3c-1.4-.9-3-1.3-4.6-1.3Z"/>
    </g>
    <g id="Divider">
      <path d="M132.9 76.5c-1.1 0-1.9-.9-1.9-1.9s.9-1.9 1.9-1.9h178.7c1.1 0 1.9.9 1.9 1.9s-.9 1.9-1.9 1.9z"/>
      <path d="M311.5 73.2c.8 0 1.4.6 1.4 1.4s-.6 1.4-1.4 1.4H132.8c-.8 0-1.4-.6-1.4-1.4s.6-1.4 1.4-1.4zm0-1H132.8c-1.3 0-2.4 1.1-2.4 2.4s1.1 2.4 2.4 2.4h178.7c1.3 0 2.4-1.1 2.4-2.4s-1.1-2.4-2.4-2.4" style="fill:#f1f2f2"/>
    </g>
    <g id="Neural">
      <path d="M304.6 68.1c-1.3 0-2.5-.3-3.5-1-1.1-.6-1.9-1.5-2.5-2.5-.6-1.1-1-2.3-1-3.5V27.6h6.1V61c0 .3 0 .5.3.7.2.2.4.3.7.3h5.9v6.1h-5.9Zm-34.2 0c-1.3 0-2.5-.3-3.5-1-1.1-.6-1.9-1.5-2.5-2.5-.6-1.1-1-2.3-1-3.5V49.6h25.4v-5.4c0-.3 0-.5-.3-.7-.2-.2-.4-.3-.7-.3h-24.4v-6.1h24.4c1.3 0 2.5.3 3.6 1 1.1.6 1.9 1.5 2.5 2.5.6 1.1 1 2.3 1 3.5V68h-24.5Zm-.9-7.1c0 .3 0 .5.3.7.2.2.4.3.7.3h18.3v-6.3h-19.3v5.4Zm-31.7 7.1V44.2c0-1.3.3-2.5 1-3.5.6-1.1 1.5-1.9 2.5-2.5 1.1-.6 2.3-1 3.5-1h17.3v6.1h-17.3c-.3 0-.5 0-.7.3-.2.2-.3.4-.3.7v23.9h-6.1Zm-27.6 0c-1.3 0-2.5-.3-3.5-1-1.1-.6-1.9-1.5-2.5-2.5-.6-1.1-1-2.3-1-3.5V37.2h6.1v23.9c0 .3 0 .5.3.7.2.2.4.3.7.3h17.4c.3 0 .5 0 .7-.3.2-.2.3-.4.3-.7V37.2h6.1v23.9c0 1.3-.3 2.5-1 3.5-.6 1.1-1.5 1.9-2.5 2.5-1.1.6-2.3 1-3.6 1h-17.4Zm-34.7 0c-1.3 0-2.5-.3-3.5-1-1.1-.6-1.9-1.5-2.5-2.5-.6-1.1-1-2.3-1-3.5V44.2c0-1.3.3-2.5 1-3.5.6-1.1 1.5-1.9 2.5-2.5 1.1-.6 2.3-1 3.5-1h17.4c1.3 0 2.5.3 3.6 1 1.1.6 1.9 1.5 2.5 2.5.6 1.1 1 2.3 1 3.5v11.5h-25.4v5.4c0 .3 0 .5.3.7.2.2.4.3.7.3h24.5v6.1h-24.5Zm18.4-18.6v-5.4c0-.3 0-.5-.3-.7-.2-.2-.4-.3-.7-.3h-17.4c-.3 0-.5 0-.7.3-.2.2-.3.4-.3.7v5.4h19.3Zm-34.6 18.6V44.2c0-.3 0-.5-.3-.7-.2-.2-.4-.3-.7-.3h-17.4c-.3 0-.5 0-.7.3-.2.2-.3.4-.3.7v23.9h-6.1v-31h24.5c1.3 0 2.5.3 3.5 1 1.1.6 1.9 1.5 2.5 2.5.6 1.1 1 2.3 1 3.5V68h-6.1Z" style="fill:#6dbe4c"/>
      <path d="M302.7 28.6V61c0 .5.2 1 .6 1.4s.8.6 1.4.6h4.9v4.1h-4.9c-1.1 0-2.1-.3-3-.8s-1.6-1.3-2.2-2.2c-.5-.9-.8-1.9-.8-3V28.6h4.1m-15 9.5c1.1 0 2.2.3 3.1.8s1.6 1.3 2.2 2.2c.5.9.8 1.9.8 3V67h-23.5c-1.1 0-2.1-.3-3-.8s-1.6-1.3-2.2-2.2c-.5-.9-.8-1.9-.8-3V50.5h25.4v-6.4c0-.5-.2-1-.6-1.4s-.8-.6-1.4-.6h-23.4V38h23.4m-17.4 25h19.3v-8.3h-21.3v6.4c0 .5.2 1 .6 1.4s.8.6 1.4.6m-9.2-25v4.1h-16.3c-.5 0-1 .2-1.4.6s-.6.8-.6 1.4v22.9h-4.1V44.2c0-1.1.3-2.1.8-3s1.3-1.6 2.2-2.2c.9-.5 1.9-.8 3-.8h16.3m-27.4-.1V61c0 1.1-.3 2.1-.8 3s-1.3 1.6-2.2 2.2c-.9.5-1.9.8-3.1.8h-17.4c-1.1 0-2.1-.3-3-.8s-1.6-1.3-2.2-2.2c-.5-.9-.8-1.9-.8-3V38.1h4.1V61c0 .5.2 1 .6 1.4s.8.6 1.4.6h17.4c.5 0 1-.2 1.4-.6s.6-.8.6-1.4V38.1h4.1m-40.9 0c1.1 0 2.2.3 3.1.8s1.6 1.3 2.2 2.2c.5.9.8 1.9.8 3v10.5h-25.4V61c0 .5.2 1 .6 1.4s.8.6 1.4.6h23.5v4.1h-23.5c-1.1 0-2.1-.3-3-.8s-1.6-1.3-2.2-2.2c-.5-.9-.8-1.9-.8-3V44.2c0-1.1.3-2.1.8-3s1.3-1.6 2.2-2.2c.9-.5 1.9-.8 3-.8H193m-19.4 12.3h21.3v-6.4c0-.5-.2-1-.6-1.4s-.8-.6-1.4-.6h-17.4c-.5 0-1 .2-1.4.6s-.6.8-.6 1.4v6.4m-15.1-12.4c1.1 0 2.1.3 3 .8s1.6 1.3 2.2 2.2c.5.9.8 1.9.8 3V67h-4.1V44.1c0-.5-.2-1-.6-1.4s-.8-.6-1.4-.6h-17.4c-.5 0-1 .2-1.4.6s-.6.8-.6 1.4V67h-4.1V38h23.5m146.4-11.4h-8.1V61c0 1.5.4 2.8 1.1 4.1a8.06 8.06 0 0 0 7 4h6.9V61h-6.8V26.6Zm-16.9 9.5h-43c-1.5 0-2.8.4-4.1 1.1a8.06 8.06 0 0 0-4 7v24.9h8.1V44.2h42.8v4.3h-25.4V61c0 1.5.4 2.8 1.1 4.1a8.06 8.06 0 0 0 7 4h25.5V44.2c0-1.5-.4-2.8-1.1-4.1a8.06 8.06 0 0 0-7-4Zm-17.3 20.5h17.3v4.3h-17.3zm-34.8-20.5h-8.1V61h-17.3V36.1h-8.1V61c0 1.5.4 2.8 1.1 4.1a8.06 8.06 0 0 0 7 4h17.4a8.062 8.062 0 0 0 8.1-8.1V36.1Zm-42.8 0h-17.4c-1.5 0-2.8.4-4.1 1.1a8.06 8.06 0 0 0-4 7v16.9c0 1.5.4 2.8 1.1 4.1a8.06 8.06 0 0 0 7 4H201v-8.1h-25.4v-4.3H201V44.3c0-1.5-.4-2.8-1.1-4a8.06 8.06 0 0 0-7-4Zm-17.3 8.1h17.3v4.3h-17.3zm-17.2-8.1h-25.5v33h8.1V44.2h17.3v24.9h8.1V44.2c0-1.5-.4-2.8-1.1-4.1a8.06 8.06 0 0 0-7-4Z"/>
    </g>
  </g>
</svg>
